<svg width="49" height="60" viewBox="0 0 49 60" fill="none" xmlns="http://www.w3.org/2000/svg">
<path d="M16.3789 0.500728H16.4808C20.3061 0.555362 23.4135 3.67919 23.4135 7.48115C23.4135 10.7557 21.1063 13.5238 18.0176 14.2639L17.5107 14.3853L17.6531 14.8867L19.2586 20.5401L19.3618 20.9035H19.7395L44.4627 20.9035L44.47 20.9034C44.7028 20.9 44.9272 20.9892 45.0942 21.1507C45.2598 21.316 45.3514 21.5362 45.3514 21.7637C45.3514 21.9912 45.2598 22.2114 45.0942 22.3768C44.9272 22.5383 44.7028 22.6273 44.47 22.624V22.6239H44.4627H20.5101H19.8488L20.0291 23.2602L23.3707 35.053V35.0714L23.3881 35.1356C23.6128 35.965 23.9335 36.4911 24.2567 36.7938C24.3961 36.9243 24.5461 37.0401 24.726 37.1186C24.9116 37.1996 25.0957 37.2264 25.2835 37.2264H37.6341C38.6031 37.2264 39.5394 37.4368 40.2611 37.9936C40.8416 38.4414 41.276 39.0641 41.6187 39.8606H41.618L41.8497 40.5252L48.0144 58.208L48.0244 58.2368L48.0379 58.2641C48.1457 58.4832 48.1539 58.7389 48.0599 58.9637L48.0587 58.9667C47.9671 59.1901 47.7803 59.3681 47.5432 59.4522C47.3078 59.533 47.0487 59.5107 46.8307 59.3906C46.6134 59.271 46.4598 59.0662 46.4057 58.8261L46.3994 58.7983L46.39 58.7714L40.2253 41.0887L40.1874 40.9797L40.1669 40.9594C39.8713 40.1168 39.5405 39.6253 39.1807 39.3481C38.7913 39.0483 38.3444 38.9468 37.6341 38.9468H25.2835C24.4998 38.9468 23.6768 38.6236 23.0574 38.0411L23.0573 38.0411C22.4475 37.4678 21.999 36.6692 21.7135 35.649C21.7134 35.6484 21.7134 35.6479 21.7133 35.6473C21.7099 35.6204 21.7044 35.5933 21.6965 35.5663L15.7897 14.7416L15.7009 14.4288L15.379 14.383C11.9739 13.8987 9.34426 10.982 9.34426 7.48188C9.34426 3.64619 12.5071 0.500728 16.3789 0.500728ZM13.4676 26.6684L13.4685 26.6681C13.5037 26.6587 13.5347 26.6515 13.5622 26.6465L13.6189 26.639C14.085 26.5778 14.5127 26.893 14.5917 27.3451L14.5918 27.3454C14.6706 27.7952 14.3768 28.2341 13.9196 28.3324L13.908 28.3349L13.8965 28.3379C7.54424 30.0224 2.86523 35.9755 2.86523 42.8484C2.86523 51.0314 9.51676 57.6305 17.7495 57.6305C25.5478 57.6305 31.9991 51.694 32.6532 44.1237L32.6562 44.0888L32.6543 44.0537C32.6408 43.8035 32.7372 43.5602 32.9179 43.3875L32.918 43.3874C33.1012 43.2122 33.351 43.1255 33.6067 43.1492C33.8588 43.1729 34.0878 43.3048 34.233 43.5094L34.2346 43.5116C34.3804 43.7145 34.4282 43.9696 34.367 44.2144L34.3574 44.253L34.354 44.2927C33.6245 52.7336 26.4351 59.3503 17.7492 59.3503C8.57968 59.3503 1.125 51.9434 1.125 42.8476C1.125 35.2053 6.32638 28.5628 13.4676 26.6684ZM21.6737 7.48188C21.6737 4.55637 19.3166 2.22115 16.3789 2.22115C13.4412 2.22115 11.0841 4.55637 11.0841 7.48188C11.0841 10.4074 13.4412 12.7426 16.3789 12.7426C19.3166 12.7426 21.6737 10.4074 21.6737 7.48188Z" fill="white" stroke="white"/>
</svg>
