<svg width="98" height="98" viewBox="0 0 98 98" fill="none" xmlns="http://www.w3.org/2000/svg">
<g clip-path="url(#clip0_4663_4240)">
<path d="M88.8492 30.8414C88.3257 29.693 88.8296 28.3336 89.982 27.8102C91.1304 27.2868 92.4898 27.7907 93.0132 28.943C94.4351 32.0602 95.5327 35.3336 96.2671 38.7203C96.9858 42.0367 97.3609 45.4781 97.3609 48.9933C97.3609 62.3453 91.9507 74.4343 83.1969 83.1883C74.4469 91.9383 62.3569 97.3523 49.0019 97.3523C43.2792 97.3523 37.7719 96.3484 32.6469 94.5046C28.8774 93.1491 25.3305 91.3444 22.0729 89.1569L22.5182 95.5397C22.6041 96.8014 21.6471 97.8952 20.3815 97.9772C19.1198 98.0631 18.026 97.1061 17.9401 95.8405L17.1471 84.5005C17.0651 83.2974 17.9283 82.2505 19.1041 82.0786L30.1001 79.9927C31.3462 79.7583 32.5376 80.5825 32.772 81.8208C33.0064 83.0669 32.1861 84.2583 30.9439 84.4927L25.0416 85.6099C27.8854 87.4771 30.9518 89.0161 34.19 90.1802C38.7994 91.8364 43.7838 92.7388 49.002 92.7388C61.088 92.7388 72.029 87.8404 79.947 79.9188C87.8689 71.9969 92.767 61.0598 92.767 48.9738C92.767 45.7746 92.4233 42.6574 91.7787 39.6691C91.1068 36.5714 90.1185 33.6105 88.849 30.8253L88.8492 30.8414H88.8492ZM75.4853 2.44286C75.3994 1.18116 76.3564 0.0873636 77.622 0.00536356C78.8837 -0.0805764 79.9775 0.876454 80.0634 2.14206L80.8564 13.4821C80.9384 14.6852 80.0751 15.7321 78.8994 15.904L67.9034 17.9899C66.6573 18.2243 65.4659 17.4001 65.2315 16.1618C64.9971 14.9157 65.8174 13.7243 67.0596 13.4899L72.9619 12.3727C70.1181 10.5055 67.0517 8.96646 63.8135 7.80236C59.2041 6.14616 54.2197 5.24376 49.0015 5.24376C36.9155 5.24376 25.9745 10.1422 18.0565 18.0638C10.1346 25.9857 5.23654 36.9228 5.23654 49.0088C5.23654 52.208 5.58029 55.3252 6.22482 58.3135C6.8967 61.4112 7.88502 64.3721 9.15452 67.1573C9.67796 68.3057 9.17405 69.6651 8.02172 70.1885C6.87332 70.7119 5.51392 70.208 4.99052 69.0557C3.56862 65.9385 2.46712 62.6651 1.73662 59.2784C1.01787 55.962 0.638916 52.5206 0.638916 49.0054C0.638896 35.6534 6.0491 23.5644 14.8029 14.8104C23.5529 6.06036 35.6429 0.646364 48.9979 0.646364C54.7206 0.646364 60.2279 1.65026 65.3529 3.49406C69.1224 4.84956 72.6693 6.65426 75.9269 8.84176L75.4816 2.45896L75.4853 2.44286H75.4853Z" fill="black"/>
<path d="M74.5766 29.483C74.185 28.6012 73.308 28.0314 72.3422 28.0314C72.2465 28.0314 72.1537 28.0353 72.0687 28.0465C71.4389 28.1178 70.8676 28.4264 70.4672 28.9088L40.2733 63.9073L27.4374 51.1593C26.9808 50.6866 26.3436 50.4151 25.6903 50.4122C25.0477 50.4425 24.3934 50.673 23.9296 51.1388C23.4638 51.6144 23.2118 52.2403 23.2211 52.9054C23.2333 53.5606 23.5126 54.1954 23.9779 54.6358L38.6835 69.2403C39.1425 69.6925 39.7684 69.9474 40.4164 69.9474C40.4457 69.9474 40.4755 69.9474 40.5053 69.9464C41.1786 69.9181 41.8182 69.6075 42.2611 69.0948L74.1625 32.1153C74.808 31.3966 74.9711 30.3629 74.5766 29.483V29.483Z" fill="black"/>
</g>
<defs>
<clipPath id="clip0_4663_4240">
<rect width="96.722" height="97.9825" fill="white" transform="translate(0.638916)"/>
</clipPath>
</defs>
</svg>
