<svg width="82" height="23" viewBox="0 0 82 23" fill="none" xmlns="http://www.w3.org/2000/svg">
<g clip-path="url(#clip0_367_3091)">
<path d="M77.6695 20.2124H72.8233V22.1468H77.5961C78.0131 22.1919 78.4348 22.1454 78.8328 22.0102C79.2308 21.8751 79.5958 21.6544 79.9033 21.3632C80.2107 21.0719 80.4536 20.7168 80.6154 20.3218C80.7773 19.9267 80.8544 19.5008 80.8416 19.0727C80.8607 18.6855 80.7956 18.2987 80.6508 17.9402C80.5061 17.5818 80.2854 17.2605 80.0046 16.9995C79.7237 16.7386 79.3897 16.5444 79.0266 16.431C78.6635 16.3175 78.2802 16.2877 77.9045 16.3436H75.7457C75.624 16.3545 75.5015 16.3386 75.3863 16.297C75.2712 16.2553 75.1662 16.1888 75.0785 16.1021C74.9907 16.0153 74.9223 15.9103 74.8778 15.7941C74.8332 15.678 74.8137 15.5534 74.8205 15.4289C74.812 15.3019 74.83 15.1745 74.8733 15.0552C74.9166 14.9358 74.9842 14.8272 75.0717 14.7365C75.1591 14.6458 75.2644 14.5751 75.3806 14.529C75.4968 14.4829 75.6212 14.4625 75.7457 14.4692H79.9164L80.7534 12.5048H75.8044C75.3936 12.4605 74.9783 12.5052 74.5856 12.6359C74.1928 12.7667 73.8315 12.9806 73.5252 13.2636C73.2189 13.5466 72.9746 13.8925 72.8081 14.2785C72.6416 14.6645 72.5567 15.0821 72.559 15.5039C72.5391 15.8944 72.6031 16.2847 72.7465 16.6474C72.8898 17.01 73.1091 17.3363 73.3888 17.6034C73.6686 17.8705 74.0021 18.072 74.3661 18.1937C74.7301 18.3154 75.1158 18.3544 75.4961 18.308H77.6695C77.7919 18.2993 77.9148 18.3173 78.0299 18.3607C78.145 18.4042 78.2497 18.4721 78.3372 18.56C78.4247 18.6479 78.4929 18.7538 78.5373 18.8706C78.5816 18.9874 78.6012 19.1126 78.5947 19.2377C78.6054 19.3659 78.589 19.4949 78.5467 19.6161C78.5044 19.7373 78.4371 19.8478 78.3494 19.9401C78.2617 20.0325 78.1557 20.1046 78.0384 20.1516C77.9211 20.1985 77.7953 20.2193 77.6695 20.2124ZM68.6967 20.2124H63.8505V22.1468H68.6233C69.0403 22.1919 69.462 22.1454 69.86 22.0102C70.258 21.8751 70.623 21.6544 70.9304 21.3632C71.2379 21.0719 71.4808 20.7168 71.6426 20.3218C71.8045 19.9267 71.8816 19.5008 71.8687 19.0727C71.8879 18.6855 71.8228 18.2987 71.678 17.9402C71.5333 17.5818 71.3126 17.2605 71.0317 16.9995C70.7509 16.7386 70.4169 16.5444 70.0538 16.431C69.6906 16.3175 69.3074 16.2877 68.9317 16.3436H66.6995C66.579 16.3523 66.458 16.3347 66.3447 16.292C66.2314 16.2493 66.1282 16.1825 66.0421 16.096C65.956 16.0095 65.8889 15.9053 65.8452 15.7903C65.8016 15.6752 65.7824 15.5521 65.789 15.4289C65.7849 15.3057 65.8056 15.1829 65.8499 15.0682C65.8942 14.9535 65.9612 14.8494 66.0465 14.7622C66.1319 14.675 66.2339 14.6067 66.3462 14.5614C66.4586 14.5162 66.5788 14.495 66.6995 14.4992H70.7967L71.6338 12.5348H66.8316C66.4208 12.4905 66.0055 12.5352 65.6128 12.6659C65.22 12.7967 64.8587 13.0106 64.5524 13.2936C64.2461 13.5766 64.0017 13.9225 63.8352 14.3085C63.6687 14.6945 63.5839 15.1121 63.5862 15.5339C63.5663 15.9244 63.6303 16.3147 63.7737 16.6773C63.917 17.04 64.1362 17.3663 64.416 17.6334C64.6958 17.9005 65.0293 18.102 65.3933 18.2237C65.7573 18.3454 66.1429 18.3844 66.5232 18.338H68.6967C68.8186 18.3317 68.9404 18.3513 69.0545 18.3956C69.1685 18.4399 69.2723 18.5079 69.3593 18.5953C69.4463 18.6827 69.5145 18.7876 69.5597 18.9033C69.6049 19.0191 69.6261 19.1431 69.6219 19.2677C69.626 19.3929 69.6048 19.5176 69.5598 19.6341C69.5147 19.7506 69.4467 19.8564 69.36 19.945C69.2733 20.0335 69.1696 20.103 69.0555 20.149C68.9414 20.195 68.8193 20.2166 68.6967 20.2124ZM62.4847 14.4992V12.5048H54.9511V22.1468H62.4994V20.1974H57.2127V18.263H62.2938V16.3286H57.198V14.4992H62.4847ZM49.8406 14.4992C50.1483 14.4992 50.4433 14.624 50.6609 14.8461C50.8785 15.0683 51.0007 15.3696 51.0007 15.6838C51.0007 15.998 50.8785 16.2993 50.6609 16.5215C50.4433 16.7436 50.1483 16.8684 49.8406 16.8684H47.1825V14.4992H49.8406ZM47.1825 18.6829H48.2545L51.0595 22.1618H53.8791L50.7364 18.6079C51.4501 18.5161 52.106 18.16 52.5797 17.6072C53.0534 17.0544 53.312 16.3433 53.3063 15.6088C53.3089 15.1856 53.2236 14.7667 53.0562 14.3795C52.8889 13.9923 52.6431 13.6457 52.3352 13.3624C52.0273 13.0792 51.6641 12.8657 51.2696 12.7359C50.8751 12.6062 50.4581 12.5632 50.0462 12.6098H44.9209V22.1468H47.1825V18.6829ZM41.4111 15.6838C41.42 15.8443 41.3952 16.005 41.3381 16.1549C41.2811 16.3047 41.1932 16.4404 41.0805 16.5527C40.9678 16.6649 40.8328 16.7512 40.6846 16.8057C40.5364 16.8602 40.3786 16.8816 40.2216 16.8684H37.5048V14.4992H40.2657C40.4244 14.4917 40.5828 14.5195 40.7301 14.5805C40.8773 14.6414 41.0099 14.7342 41.1187 14.8525C41.2276 14.9707 41.31 15.1116 41.3605 15.2654C41.411 15.4193 41.4282 15.5825 41.4111 15.7438V15.6838ZM35.2432 12.4448V22.1468H37.5048V18.9978H40.3538C40.7868 19.0339 41.2224 18.9762 41.632 18.8285C42.0417 18.6807 42.4161 18.4463 42.7309 18.1405C43.0456 17.8347 43.2935 17.4644 43.4583 17.054C43.6232 16.6435 43.7012 16.2022 43.6874 15.7588C43.7075 15.3209 43.636 14.8837 43.4779 14.4762C43.3197 14.0687 43.0785 13.7002 42.7701 13.3953C42.4617 13.0903 42.0933 12.8559 41.6894 12.7075C41.2854 12.5591 40.8552 12.5003 40.4272 12.5348L35.2432 12.4448ZM31.9096 22.1468H34.7439L30.9551 17.2883L34.7146 12.5048H31.9684L29.6481 15.5039L27.3425 12.5048H24.5229L28.297 17.3333L24.5375 22.1468H27.2837L29.604 18.9978L31.9096 22.1468ZM24.1117 14.4992V12.5048H16.5193V22.1468H24.1117V20.1974H18.7808V18.263H23.9354V16.3286H18.7808V14.4992H24.1117Z" fill="#006FCF"/>
<path d="M67.8451 4.67742V3.88267L68.315 4.67742L71.9277 10.4356H74.5711V0.808639H72.3242V6.38688V7.09166L71.913 6.38688L68.4032 0.808639H65.6276V10.4356H67.8451V4.67742ZM58.8136 4.40751L59.5038 2.59308L60.194 4.40751L61.0311 6.53684H57.9912L58.8136 4.40751ZM62.5584 10.4056H65.1136L61.0751 0.808639H58.138L54.0555 10.4356H56.4198L57.2275 8.38126H61.7066L62.5584 10.4056ZM52.6897 10.4056H52.8072L53.7324 8.36626H53.0422C52.698 8.39061 52.3527 8.33726 52.031 8.20998C51.7092 8.0827 51.4189 7.88463 51.1805 7.62984C50.9422 7.37504 50.7618 7.06978 50.6521 6.73575C50.5423 6.40171 50.506 6.0471 50.5457 5.6971V5.50216C50.5071 5.15746 50.5422 4.80833 50.6486 4.47883C50.755 4.14933 50.93 3.84731 51.1618 3.59358C51.3935 3.33986 51.6764 3.14047 51.9909 3.00916C52.3054 2.87785 52.644 2.81775 52.9834 2.833H55.4359V0.808639H52.8366C52.2271 0.770026 51.6166 0.865704 51.0465 1.08918C50.4764 1.31266 49.96 1.65872 49.5324 2.10388C49.1048 2.54904 48.776 3.08289 48.5682 3.66923C48.3604 4.25557 48.2785 4.88068 48.3282 5.50216V5.66711C48.2544 6.28442 48.3139 6.91073 48.5025 7.50204C48.6912 8.09334 49.0044 8.63528 49.4201 9.08977C49.8358 9.54426 50.3439 9.90027 50.9088 10.1328C51.4737 10.3653 52.0816 10.4687 52.6897 10.4356V10.4056ZM44.6715 10.4356H46.933V0.808639H44.6715V10.4356ZM39.884 2.77302C40.0447 2.75789 40.2067 2.77805 40.3591 2.83215C40.5115 2.88624 40.6509 2.97303 40.7677 3.08666C40.8846 3.2003 40.9762 3.33816 41.0366 3.49097C41.0969 3.64379 41.1246 3.80802 41.1176 3.97264C41.1248 4.13669 41.0973 4.3004 41.0368 4.45257C40.9764 4.60473 40.8844 4.74176 40.7673 4.85426C40.6501 4.96676 40.5105 5.05209 40.3581 5.10438C40.2056 5.15668 40.0439 5.17472 39.884 5.15727H37.2259V2.77302H39.884ZM37.2259 7.00169H38.298L41.1029 10.4656H43.9225L40.7798 6.89672C41.4935 6.80493 42.1495 6.44887 42.6232 5.89607C43.0969 5.34327 43.3554 4.63218 43.3498 3.89767C43.3523 3.47446 43.2671 3.0555 43.0997 2.66833C42.9323 2.28116 42.6866 1.93455 42.3786 1.65128C42.0707 1.36801 41.7075 1.15449 41.313 1.02477C40.9185 0.895044 40.5016 0.85205 40.0896 0.898611H34.9644V10.4356H37.2259V7.00169ZM33.3049 2.75803V0.808639H25.7566V10.4356H33.3049V8.50122H28.0182V6.56683H33.1874V4.63244H28.0182V2.75803H33.3049ZM14.5369 3.86768V1.2585L17.1509 10.4356H19.2069L21.7622 1.31848V3.85268V10.4356H23.9503V0.808639H19.9118L18.1202 7.63149L16.3139 0.808639H12.3635V10.4356H14.5663L14.5369 3.86768ZM5.52005 4.40751L6.21027 2.59308L6.8858 4.40751L7.72287 6.53684H4.69766L5.52005 4.40751ZM9.26484 10.4056H11.8054L7.78161 0.808639H4.84452L0.761963 10.4356H3.17038L3.96339 8.38126H8.45714L9.26484 10.4056Z" fill="#006FCF"/>
</g>
<defs>
<clipPath id="clip0_367_3091">
<rect width="80.77" height="22.4929" fill="white" transform="translate(0.61499 0.253418)"/>
</clipPath>
</defs>
</svg>
