<svg width="68" height="43" viewBox="0 0 68 43" fill="none" xmlns="http://www.w3.org/2000/svg">
<g clip-path="url(#clip0_367_3107)">
<path d="M61.4999 0.0537109H6.50016C6.27109 0.0537109 6.04162 0.0537109 5.81297 0.0550467C5.61968 0.056423 5.42684 0.0585683 5.234 0.0638305C4.81343 0.0752049 4.38926 0.100018 3.97395 0.17466C3.55201 0.250597 3.15937 0.37446 2.77632 0.569485C2.39976 0.760987 2.055 1.01147 1.75624 1.31036C1.45734 1.60925 1.20686 1.95344 1.0154 2.33041C0.820335 2.71345 0.696391 3.10621 0.62098 3.52848C0.545937 3.94391 0.520958 4.368 0.509624 4.78813C0.504443 4.98096 0.502221 5.1738 0.500962 5.3666C0.499626 5.59575 0.500071 5.82473 0.500071 6.05428V36.9464C0.500071 37.1759 0.499626 37.4045 0.500962 37.6341C0.502221 37.8269 0.504443 38.0197 0.509624 38.2126C0.520958 38.6323 0.545937 39.0564 0.62098 39.4717C0.696391 39.8942 0.820335 40.2868 1.0154 40.6699C1.20686 41.0468 1.45734 41.3915 1.75624 41.6899C2.055 41.9893 2.39976 42.2397 2.77632 42.4307C3.15937 42.6263 3.55201 42.7502 3.97395 42.8261C4.38926 42.9002 4.81343 42.9255 5.234 42.9369C5.42684 42.9412 5.61968 42.9438 5.81297 42.9447C6.04162 42.9465 6.27109 42.9465 6.50016 42.9465H61.4999C61.7286 42.9465 61.9581 42.9465 62.1867 42.9447C62.3795 42.9438 62.5724 42.9412 62.7661 42.9369C63.1858 42.9255 63.6098 42.9002 64.0262 42.8261C64.4475 42.7502 64.8403 42.6263 65.2233 42.4307C65.6003 42.2397 65.9441 41.9893 66.2434 41.6899C66.5419 41.3915 66.7923 41.0468 66.9843 40.6699C67.1798 40.2868 67.3036 39.8942 67.3787 39.4717C67.4537 39.0564 67.4781 38.6323 67.4895 38.2126C67.4947 38.0197 67.4973 37.8269 67.4982 37.6341C67.5 37.4045 67.5 37.1759 67.5 36.9464V6.05428C67.5 5.82473 67.5 5.59575 67.4982 5.3666C67.4973 5.1738 67.4947 4.98096 67.4895 4.78813C67.4781 4.368 67.4537 3.94391 67.3787 3.52848C67.3036 3.10621 67.1798 2.71345 66.9843 2.33041C66.7923 1.95344 66.5419 1.60925 66.2434 1.31036C65.9441 1.01147 65.6003 0.760987 65.2233 0.569485C64.8403 0.37446 64.4475 0.250597 64.0262 0.17466C63.6098 0.100018 63.1858 0.0752049 62.7661 0.0638305C62.5724 0.0585683 62.3795 0.056423 62.1867 0.0550467C61.958 0.0537109 61.7286 0.0537109 61.4999 0.0537109V0.0537109Z" fill="black"/>
<path d="M61.4999 1.4834L62.1765 1.48469C62.3598 1.48599 62.5431 1.48797 62.7274 1.49299C63.048 1.50165 63.423 1.51902 63.7726 1.58168C64.0765 1.63641 64.3313 1.71963 64.5759 1.84414C64.8173 1.96683 65.0386 2.12761 65.2317 2.32049C65.4256 2.51466 65.5866 2.73624 65.7109 2.98036C65.8347 3.22303 65.9174 3.47667 65.9718 3.78276C66.0343 4.12853 66.0516 4.50457 66.0604 4.82714C66.0653 5.00921 66.0677 5.19129 66.0686 5.37769C66.0704 5.60311 66.0703 5.82841 66.0703 6.05428V36.9464C66.0703 37.1722 66.0704 37.3971 66.0686 37.6274C66.0677 37.8094 66.0653 37.9915 66.0603 38.1739C66.0516 38.496 66.0343 38.8718 65.971 39.2217C65.9174 39.5235 65.8348 39.7772 65.7103 40.0211C65.5863 40.2646 65.4256 40.486 65.2325 40.6789C65.0383 40.8732 64.8178 41.0335 64.5735 41.1573C64.3307 41.2812 64.0763 41.3644 63.7754 41.4185C63.4188 41.4821 63.028 41.4996 62.7338 41.5076C62.5486 41.5117 62.3644 41.5142 62.1756 41.5151C61.9507 41.5169 61.7249 41.5168 61.4999 41.5168H6.49124C6.26885 41.5168 6.04602 41.5168 5.81959 41.5151C5.63496 41.5142 5.45075 41.5118 5.27264 41.5077C4.97165 41.4996 4.58067 41.4821 4.22693 41.4189C3.92347 41.3644 3.66906 41.2812 3.42311 41.1557C3.1811 41.033 2.96077 40.8729 2.76643 40.6782C2.5736 40.4857 2.41334 40.265 2.28944 40.0211C2.16541 39.7775 2.08243 39.5231 2.02787 39.2176C1.9648 38.8684 1.94748 38.4941 1.93882 38.1742C1.93388 37.991 1.93181 37.8079 1.93064 37.6258L1.92975 37.0883L1.92979 36.9464V6.05428L1.92975 5.91237L1.9306 5.37599C1.93181 5.19282 1.93388 5.0097 1.93882 4.8267C1.94748 4.50648 1.9648 4.13197 2.02839 3.77989C2.08247 3.47715 2.16541 3.22271 2.29009 2.97785C2.41302 2.73584 2.57355 2.51491 2.76741 2.3211C2.96049 2.12793 3.18154 1.96736 3.4251 1.84349C3.66841 1.71959 3.9233 1.63641 4.22677 1.5818C4.57642 1.51898 4.95169 1.50165 5.27309 1.49295C5.45629 1.48797 5.6395 1.48599 5.82133 1.48473L6.50019 1.4834H61.4999" fill="white"/>
<path d="M18.7906 14.4809C19.3643 13.7634 19.7536 12.8 19.6509 11.8154C18.8111 11.8572 17.7864 12.3695 17.1931 13.0876C16.6603 13.7025 16.1888 14.7063 16.3118 15.6496C17.2544 15.7313 18.1963 15.1784 18.7906 14.4809" fill="black"/>
<path d="M19.6402 15.8346C18.2712 15.753 17.1072 16.6115 16.4534 16.6115C15.7993 16.6115 14.7982 15.8757 13.7153 15.8955C12.306 15.9162 10.9983 16.7131 10.2831 17.9804C8.81205 20.5158 9.89487 24.2767 11.3254 26.3416C12.02 27.3632 12.8572 28.4881 13.9604 28.4477C15.0027 28.4068 15.4112 27.7728 16.6782 27.7728C17.9442 27.7728 18.3122 28.4477 19.4155 28.4272C20.5597 28.4068 21.275 27.4051 21.9697 26.3826C22.7666 25.218 23.0928 24.0935 23.1134 24.0318C23.0928 24.0113 20.9071 23.1728 20.8868 20.6585C20.8662 18.5532 22.6029 17.5518 22.6846 17.4897C21.7039 16.0392 20.1715 15.8757 19.6402 15.8346" fill="black"/>
<path d="M31.5607 12.9854C34.5362 12.9854 36.6082 15.0364 36.6082 18.0226C36.6082 21.0195 34.4936 23.0812 31.486 23.0812H28.1915V28.3204H25.8113V12.9854H31.5607V12.9854ZM28.1915 21.0832H30.9227C32.9951 21.0832 34.1746 19.9675 34.1746 18.0333C34.1746 16.0993 32.9951 14.994 30.9334 14.994H28.1915V21.0832V21.0832Z" fill="black"/>
<path d="M37.23 25.1427C37.23 23.1872 38.7284 21.9864 41.3854 21.8376L44.4458 21.657V20.7963C44.4458 19.5528 43.6062 18.809 42.2037 18.809C40.875 18.809 40.046 19.4465 39.8443 20.4455H37.6764C37.8039 18.4262 39.5254 16.9385 42.2886 16.9385C44.9984 16.9385 46.7306 18.3732 46.7306 20.6155V28.3202H44.5307V26.4817H44.4778C43.8296 27.7251 42.4161 28.5114 40.9496 28.5114C38.7604 28.5114 37.23 27.1512 37.23 25.1427L37.23 25.1427ZM44.4458 24.1332V23.2511L41.6933 23.4211C40.3224 23.5168 39.5467 24.1225 39.5467 25.079C39.5467 26.0566 40.3543 26.6943 41.5871 26.6943C43.1917 26.6943 44.4458 25.589 44.4458 24.1332H44.4458Z" fill="black"/>
<path d="M48.8077 32.4322V30.5724C48.9774 30.6149 49.3599 30.6148 49.5513 30.6148C50.614 30.6148 51.1879 30.1686 51.5385 29.0209C51.5385 28.9996 51.7406 28.3408 51.7406 28.3301L47.7024 17.1396H50.1888L53.016 26.2366H53.0582L55.8853 17.1396H58.3082L54.1208 28.9039C53.1648 31.6139 52.0595 32.4853 49.7428 32.4853C49.5513 32.4853 48.9774 32.464 48.8077 32.4322V32.4322Z" fill="black"/>
</g>
<defs>
<clipPath id="clip0_367_3107">
<rect width="67" height="42.8928" fill="white" transform="translate(0.5 0.0537109)"/>
</clipPath>
</defs>
</svg>
