<svg width="60" height="54" viewBox="0 0 60 54" fill="none" xmlns="http://www.w3.org/2000/svg">
<path fill-rule="evenodd" clip-rule="evenodd" d="M30.0003 26.0976L5.18596 1.28076C4.08672 0.104494 2.15217 0.104951 1.05367 1.28231C-0.0661685 2.41785 -0.112689 4.27049 1.08239 5.38309L27.9479 32.2517C28.522 32.8258 29.287 33.1196 30 33.1196C30.7127 33.1196 31.4782 32.8219 32.0498 32.254L32.0521 32.2517L58.9321 5.3717C60.0668 4.237 60.1185 2.37182 58.9165 1.25452C57.7809 0.135361 55.9288 0.0891134 54.8165 1.28396L30.0003 26.0976ZM54.8272 21.7501C55.8806 20.6967 57.4467 20.5996 58.5947 21.4562L58.6409 21.4564L58.932 21.7476C60.0662 22.8817 60.1184 24.7457 58.918 25.8632L32.052 52.7293C31.493 53.2883 30.7961 53.5997 29.9999 53.5997C29.2041 53.5997 28.5084 53.2888 27.9501 52.7341L27.9477 52.7318L1.06774 25.8518C-0.0669716 24.7171 -0.118675 22.8518 1.08337 21.7345C2.21898 20.6154 4.07104 20.5692 5.1834 21.764L29.9996 46.5777L54.8272 21.7501Z" fill="#D06F1A"/>
</svg>
