<svg width="100" height="100" viewBox="0 0 100 100" fill="none" xmlns="http://www.w3.org/2000/svg">
<path d="M89.844 31.852C89.3206 30.7036 89.8245 29.3442 90.9768 28.8208C92.1252 28.2974 93.4846 28.8013 94.008 29.9536C95.4299 33.0708 96.5275 36.3442 97.2619 39.7309C97.9807 43.0473 98.3557 46.4887 98.3557 50.0039C98.3557 63.3559 92.9455 75.4449 84.1917 84.1989C75.4417 92.9489 63.3517 98.3629 49.9967 98.3629C44.274 98.3629 38.7667 97.359 33.6417 95.5152C29.8722 94.1597 26.3253 92.355 23.0677 90.1675L23.513 96.5503C23.5989 97.812 22.6419 98.9058 21.3763 98.9878C20.1146 99.0737 19.0208 98.1167 18.9349 96.8511L18.1419 85.5111C18.0599 84.308 18.9232 83.2611 20.0989 83.0892L31.0949 81.0033C32.341 80.7689 33.5324 81.5931 33.7668 82.8314C34.0012 84.0775 33.1809 85.2689 31.9387 85.5033L26.0364 86.6205C28.8802 88.4877 31.9466 90.0267 35.1848 91.1908C39.7942 92.847 44.7786 93.7494 49.9968 93.7494C62.0828 93.7494 73.0238 88.851 80.9418 80.9294C88.8637 73.0075 93.7618 62.0704 93.7618 49.9844C93.7618 46.7852 93.4181 43.668 92.7736 40.6797C92.1017 37.582 91.1134 34.6211 89.8439 31.8359L89.844 31.852ZM50 44.079C48.3633 44.079 46.8828 44.7431 45.8086 45.8134C44.7383 46.8837 44.0742 48.3681 44.0742 50.0048C44.0742 51.6415 44.7383 53.122 45.8086 54.1962C46.8789 55.2665 48.3633 55.9306 50 55.9306C51.6367 55.9306 53.1172 55.2665 54.1914 54.1962C55.2617 53.1259 55.9258 51.6415 55.9258 50.0048C55.9258 48.3681 55.2617 46.8876 54.1914 45.8134C53.1211 44.7431 51.6367 44.079 50 44.079ZM42.5586 42.5673C44.4648 40.6611 47.0898 39.4853 50 39.4853C52.9023 39.4853 55.5352 40.665 57.4414 42.5673C59.3476 44.4735 60.5234 47.0985 60.5234 50.0087C60.5234 52.911 59.3437 55.5439 57.4414 57.4501C55.5352 59.3563 52.9102 60.5321 50 60.5321C47.0977 60.5321 44.4648 59.3524 42.5586 57.4501C40.6524 55.5439 39.4766 52.9189 39.4766 50.0087C39.4766 47.1064 40.6563 44.4735 42.5586 42.5673ZM56.8356 27.9773C57.5153 28.1882 58.1794 28.4265 58.82 28.6921C59.4763 28.9656 60.1169 29.2664 60.738 29.5906L64.4528 25.8758C65.3512 24.9773 66.8005 24.9773 67.6989 25.8758L74.1208 32.2977C75.0192 33.1961 75.0192 34.6454 74.1208 35.5438L70.4099 39.2586C70.738 39.8797 71.0388 40.5203 71.3083 41.1766C71.574 41.8172 71.8162 42.4813 72.0271 43.1649H77.281C78.5505 43.1649 79.5779 44.1922 79.5779 45.4618V54.5477C79.5779 55.8172 78.5506 56.8446 77.281 56.8446H72.0271C71.8162 57.5243 71.5779 58.1884 71.3123 58.829C71.0388 59.4852 70.738 60.1259 70.4138 60.747L74.1286 64.4618C75.0271 65.3602 75.0271 66.8095 74.1286 67.7079L67.7067 74.1298C66.8083 75.0282 65.359 75.0282 64.4606 74.1298L60.7458 70.4189C60.1247 70.747 59.4841 71.0478 58.8278 71.3173C58.1872 71.5829 57.5231 71.8251 56.8395 72.0361V77.29C56.8395 78.5595 55.8122 79.5869 54.5426 79.5869H45.4567C44.1872 79.5869 43.1598 78.5596 43.1598 77.29V72.0361C42.4801 71.8251 41.816 71.5868 41.1754 71.3212C40.5192 71.0478 39.8785 70.747 39.2574 70.4228L35.5426 74.1376C34.6442 75.036 33.1949 75.036 32.2965 74.1376L25.8746 67.7157C24.9762 66.8172 24.9762 65.368 25.8746 64.4696L29.5855 60.7548C29.2574 60.1337 28.9566 59.4931 28.6871 58.8368C28.4215 58.1962 28.1793 57.5321 27.9683 56.8485H22.7144C21.4449 56.8485 20.4175 55.8212 20.4175 54.5516V45.4657C20.4175 44.1962 21.4448 43.1688 22.7144 43.1688H27.9683C28.1793 42.4891 28.4175 41.825 28.6871 41.1844C28.9605 40.5281 29.2613 39.8875 29.5855 39.2664L25.8746 35.5516C24.9762 34.6531 24.9762 33.2039 25.8746 32.3055L32.2965 25.8836C33.195 24.9851 34.6442 24.9851 35.5426 25.8836L39.2574 29.5984C39.8785 29.2703 40.5191 28.9695 41.1754 28.6999C41.816 28.4343 42.4801 28.196 43.1598 27.9851V22.7312C43.1598 21.4617 44.1871 20.4343 45.4567 20.4343H54.5426C55.8121 20.4343 56.8395 21.4616 56.8395 22.7312V27.9851L56.8356 27.9773ZM57.0622 32.9265C56.1364 32.5437 55.1872 32.2351 54.2263 32.0085C53.1052 31.8562 52.2419 30.8952 52.2419 29.7312V25.0164H47.7497V29.7312H47.7419C47.7419 30.782 47.0153 31.7273 45.9489 31.9617C44.9255 32.1883 43.9137 32.5125 42.9294 32.9227C41.9801 33.3172 41.0583 33.7938 40.1833 34.3446C39.2887 34.9657 38.0505 34.8797 37.2536 34.0789L33.9216 30.7469L30.7458 33.9227L34.0778 37.2547C34.8199 37.9969 34.9762 39.1844 34.3942 40.1063C33.8199 41.0048 33.3278 41.9501 32.9215 42.9305C32.5387 43.8563 32.23 44.8055 32.0035 45.7664C31.8511 46.8875 30.8902 47.7508 29.7262 47.7508H25.0153V52.243H29.7262V52.2509C30.777 52.2509 31.7223 52.9774 31.9606 54.0439C32.1872 55.0673 32.5114 56.0791 32.9215 57.0634C33.3161 58.0126 33.7926 58.9306 34.3434 59.8095C34.9645 60.704 34.8786 61.9423 34.0778 62.7392L30.7458 66.0712L33.9216 69.247L37.2536 65.915C37.9958 65.1728 39.1833 65.0165 40.1052 65.5985C41.0037 66.1728 41.949 66.6649 42.9294 67.0712C43.8552 67.4541 44.8044 67.7627 45.7653 67.9892C46.8864 68.1416 47.7497 69.1025 47.7497 70.2665V74.9813H52.2419V70.2704H52.2497C52.2497 69.2196 52.9763 68.2743 54.0427 68.036C55.0661 67.8095 56.0779 67.4852 57.0622 67.0751C58.0114 66.6805 58.9294 66.204 59.8083 65.6532C60.7029 65.0321 61.9411 65.118 62.738 65.9188L66.07 69.2508L69.2458 66.075L65.9138 62.743C65.1716 62.0008 65.0154 60.8133 65.5974 59.8914C66.1716 58.993 66.6638 58.0476 67.0701 57.0672C67.4529 56.1414 67.7615 55.1922 67.9881 54.2313C68.1404 53.1102 69.1014 52.2469 70.2654 52.2469H74.9802V47.7547H70.2693V47.7469C69.2185 47.7469 68.2732 47.0203 68.0349 45.9539C67.8083 44.9305 67.4841 43.9187 67.0739 42.9344C66.6794 41.9852 66.2029 41.0672 65.652 40.1883C65.031 39.2938 65.1169 38.0555 65.9177 37.2586L69.2497 33.9266L66.0739 30.7508L62.7419 34.0828C61.9997 34.825 60.8122 34.9812 59.8903 34.3992C58.9918 33.825 58.0465 33.3328 57.0661 32.9265H57.0622ZM76.4802 3.4535C76.3942 2.1918 77.3513 1.098 78.6169 1.016C79.8786 0.930062 80.9724 1.88709 81.0583 3.1527L81.8512 14.4927C81.9333 15.6958 81.07 16.7427 79.8942 16.9146L68.8982 19.0005C67.6521 19.2349 66.4607 18.4107 66.2263 17.1724C65.992 15.9263 66.8123 14.7349 68.0544 14.5005L73.9567 13.3833C71.1129 11.5161 68.0465 9.9771 64.8083 8.813C60.1989 7.1568 55.2145 6.2544 49.9963 6.2544C37.9103 6.2544 26.9693 11.1528 19.0513 19.0744C11.1294 26.9963 6.23133 37.9334 6.23133 50.0194C6.23133 53.2186 6.57508 56.3358 7.21961 59.3241C7.89149 62.4218 8.87981 65.3827 10.1493 68.1679C10.6728 69.3163 10.1688 70.6757 9.01651 71.1991C7.86811 71.7225 6.50871 71.2186 5.98531 70.0663C4.56341 66.9491 3.46191 63.6757 2.73141 60.289C2.01266 56.9726 1.63371 53.5312 1.63371 50.016C1.63371 36.664 7.04391 24.575 15.7977 15.821C24.5477 7.071 36.6377 1.657 49.9927 1.657C55.7154 1.657 61.2227 2.6609 66.3477 4.5047C70.1172 5.8602 73.6641 7.6649 76.9217 9.8524L76.4764 3.4696L76.4802 3.4535Z" fill="black"/>
</svg>
