<svg width="18" height="18" viewBox="0 0 18 18" fill="none" xmlns="http://www.w3.org/2000/svg">
<path d="M16.4789 7.49996H5.10331L10.0492 2.56902C10.3315 2.2868 10.49 1.90402 10.49 1.5049C10.49 1.10577 10.3315 0.722997 10.0492 0.440774C9.76702 0.158551 9.38424 0 8.98512 0C8.58599 0 8.20322 0.158551 7.92099 0.440774L0.427168 7.9346C0.29072 8.07714 0.18376 8.24522 0.112428 8.42919C-0.0374759 8.79408 -0.0374759 9.20336 0.112428 9.56825C0.18376 9.75223 0.29072 9.92031 0.427168 10.0628L7.92099 17.5567C8.06032 17.6971 8.22609 17.8086 8.40872 17.8847C8.59136 17.9608 8.78726 18 8.98512 18C9.18297 18 9.37887 17.9608 9.56151 17.8847C9.74414 17.8086 9.90991 17.6971 10.0492 17.5567C10.1897 17.4173 10.3012 17.2516 10.3773 17.0689C10.4534 16.8863 10.4926 16.6904 10.4926 16.4925C10.4926 16.2947 10.4534 16.0988 10.3773 15.9162C10.3012 15.7335 10.1897 15.5678 10.0492 15.4284L5.10331 10.4975H16.4789C16.8764 10.4975 17.2577 10.3396 17.5387 10.0585C17.8198 9.77744 17.9777 9.39622 17.9777 8.99872C17.9777 8.60122 17.8198 8.22001 17.5387 7.93894C17.2577 7.65786 16.8764 7.49996 16.4789 7.49996Z" fill="black"/>
</svg>
