<svg width="69" height="82" viewBox="0 0 69 82" fill="none" xmlns="http://www.w3.org/2000/svg">
<path d="M48.1617 71.5327H22.0389C21.482 71.5327 21.0322 71.9825 21.0322 72.5394C21.0322 73.0963 21.482 73.5461 22.0389 73.5461H48.1654C48.7223 73.5461 49.1721 73.0963 49.1721 72.5394C49.1721 71.9825 48.7187 71.5327 48.1618 71.5327H48.1617Z" fill="black" stroke="black" stroke-width="0.5"/>
<path d="M34.9578 65.8888C35.5147 65.8888 35.9645 65.439 35.9645 64.8821V37.4745C35.9645 36.9176 35.5147 36.4678 34.9578 36.4678C34.4009 36.4678 33.9512 36.9176 33.9512 37.4745V64.8821C33.9512 65.4354 34.4009 65.8888 34.9578 65.8888Z" fill="black" stroke="black" stroke-width="0.5"/>
<path d="M24.8801 65.8888C25.4369 65.8888 25.8868 65.439 25.8868 64.8821L25.8903 37.4745C25.8903 36.9176 25.4406 36.4678 24.8837 36.4678C24.3268 36.4678 23.877 36.9176 23.877 37.4745V64.8821C23.8734 65.4354 24.3232 65.8888 24.8801 65.8888H24.8801Z" fill="black" stroke="black" stroke-width="0.5"/>
<path d="M61.2515 31.8311H54.9796V25.5842H54.9581C58.021 23.7351 59.9485 20.5152 59.9485 16.9206C59.9485 11.2555 55.1044 6.64361 49.1506 6.64361C48.219 6.64361 47.2908 6.75784 46.3913 6.98272C46.1022 7.05411 45.8059 6.95773 45.6417 6.72928C43.0715 3.14175 38.8129 1 34.2508 1C28.3537 1 23.113 4.56249 21.2104 9.86345C21.089 10.2026 20.7677 10.406 20.4357 10.3596C20.0074 10.299 19.5719 10.2668 19.1399 10.2668C14.2423 10.2668 10.2586 14.0649 10.2586 18.7305C10.2586 19.3409 10.3514 19.9406 10.487 20.5332C8.84494 21.6148 7.75977 23.4746 7.75977 25.5807C7.75977 28.9147 10.4728 31.6277 13.8068 31.6277C14.2958 31.6277 14.7742 31.5634 15.2311 31.4528V71.9402L12.3754 75.3099C11.4794 76.3702 11.2902 77.8943 11.8935 79.1973C12.4182 80.3253 13.4142 81 14.5565 81H55.6579C56.8038 81 57.7998 80.3253 58.3209 79.1973C58.9242 77.8943 58.735 76.3701 57.8391 75.3099L54.9833 71.9402L54.9798 60.4496H61.2517C65.1997 60.4496 68.4124 57.237 68.4124 53.2889L68.4088 38.992C68.4088 35.044 65.1997 31.8313 61.2517 31.8313L61.2515 31.8311ZM54.9796 38.9097H60.7268C61.1872 38.9097 61.5585 39.2845 61.5585 39.7414V52.5351C61.5585 52.9956 61.1837 53.3668 60.7268 53.3668L54.9796 53.3704V38.9097ZM12.2688 18.7341C12.2688 15.1787 15.3494 12.2837 19.1368 12.2837C19.4724 12.2837 19.8115 12.3087 20.1471 12.3551C21.4214 12.5371 22.6637 11.7768 23.1063 10.5452C24.7234 6.04032 29.2033 3.01324 34.2505 3.01324C38.1628 3.01324 41.811 4.84091 44.003 7.90015C44.6526 8.80328 45.7806 9.21022 46.8836 8.93534C47.619 8.74972 48.3829 8.65691 49.1504 8.65691C53.9944 8.65691 57.9318 12.3622 57.9318 16.9171C57.9318 20.5475 55.458 23.7173 51.7777 24.8025C51.6956 24.8275 51.6135 24.8489 51.5314 24.8703C51.4207 24.8989 51.3065 24.9275 51.1958 24.9524L51.1458 24.9632C51.1244 24.9667 51.103 24.9703 51.0852 24.9774C48.9755 24.9774 47.2549 26.6944 47.2549 28.8077V38.0785C47.2549 39.0781 46.441 39.8919 45.4415 39.8919C44.442 39.8919 43.6281 39.078 43.6281 38.0785V27.1948C43.6281 25.0851 41.9111 23.3645 39.7979 23.3645C37.8238 23.3645 36.2139 24.8709 36.0105 26.7914H35.9676V30.8216C35.9676 31.8211 35.1538 32.635 34.1542 32.635C33.1547 32.635 32.3408 31.8211 32.3408 30.8216V27.5982L32.3158 27.6018C32.2016 26.2524 31.0807 25.1852 29.7028 25.1816L19.8252 25.1744C19.611 22.0331 16.9944 19.5415 13.7995 19.5415C13.2998 19.5415 12.8179 19.6093 12.3539 19.7235C12.2967 19.3987 12.2682 19.0667 12.2682 18.7348L12.2688 18.7341ZM9.76646 25.5843C9.76646 23.3604 11.5763 21.5541 13.7966 21.5541C16.0206 21.5541 17.8268 23.3604 17.8268 25.5843C17.8268 27.8082 16.017 29.6145 13.7966 29.6145C11.5763 29.6145 9.76646 27.8082 9.76646 25.5843ZM56.297 76.6164C56.7432 77.1411 56.7147 77.8658 56.4898 78.3512C56.4006 78.544 56.1435 78.9866 55.6545 78.9866H14.5503C14.0612 78.9866 13.8042 78.5404 13.715 78.3512C13.4901 77.8657 13.4615 77.1411 13.9077 76.6164L17.2418 72.6826L17.2382 30.5531C18.3876 29.757 19.2408 28.5683 19.6228 27.1904L29.6996 27.2011C30.0423 27.2011 30.3207 27.4796 30.3207 27.8258V30.8315C30.3207 32.9412 32.0377 34.6618 34.151 34.6618C36.2606 34.6618 37.9812 32.9448 37.9812 30.8315V27.2047C37.9812 26.2051 38.7951 25.3913 39.7946 25.3913C40.7941 25.3913 41.608 26.2052 41.608 27.2047V38.0884C41.608 39.8483 42.8074 41.319 44.428 41.7652V64.8897C44.428 65.4466 44.8778 65.8964 45.4347 65.8964C45.9916 65.8964 46.4414 65.4466 46.4414 64.8897L46.4449 41.7551C48.0655 41.3089 49.265 39.8382 49.265 38.0784V28.8076C49.265 28.0115 49.779 27.3333 50.493 27.0905L50.6679 27.0727C50.9285 27.0441 51.2712 27.0049 51.6246 26.9228L51.6817 26.9085C51.8031 26.8799 51.9244 26.8514 52.0422 26.8193C52.1422 26.7943 52.2457 26.7657 52.3421 26.7336C52.5527 26.6729 52.7561 26.5979 52.9596 26.5265V72.6751L56.297 76.6164ZM66.3958 53.289C66.3958 56.1269 64.0863 58.4328 61.2519 58.4328H54.98V55.3844H60.7272C62.2979 55.3844 63.5758 54.1065 63.5758 52.5358L63.5722 39.7421C63.5722 38.1714 62.2943 36.8935 60.7236 36.8935L54.98 36.8971V33.8486H61.2519C64.0898 33.8486 66.3958 36.1546 66.3958 38.9925L66.3958 53.289Z" fill="black" stroke="black" stroke-width="0.5"/>
<path d="M4.53019 30.8242C2.30628 30.8242 0.5 32.6305 0.5 34.8544C0.5 37.0783 2.30985 38.8846 4.53019 38.8846C6.75409 38.8846 8.56038 37.0783 8.56038 34.8544C8.56038 32.6341 6.75053 30.8242 4.53019 30.8242ZM4.53019 36.8712C3.42006 36.8712 2.51692 35.9681 2.51692 34.858C2.51692 33.7478 3.42005 32.8447 4.53019 32.8447C5.64033 32.8447 6.54346 33.7478 6.54346 34.858C6.54346 35.9645 5.64033 36.8712 4.53019 36.8712Z" fill="black" stroke="black" stroke-width="0.5"/>
<path d="M13.3974 41.1011C13.3974 44.0568 8.96387 44.0568 8.96387 41.1011C8.96387 38.1454 13.3974 38.1454 13.3974 41.1011Z" fill="black" stroke="black" stroke-width="0.5"/>
</svg>
