<svg width="256" height="256" viewBox="0 0 256 256" fill="none" xmlns="http://www.w3.org/2000/svg">
<circle cx="129" cy="128" r="105" stroke="black" stroke-width="8"/>
<path d="M174.135 96.033C173.155 96.1598 172.248 96.612 171.567 97.3123L116.645 151.088L85.0619 126.604C84.1608 125.898 83.0063 125.573 81.8574 125.7C80.7141 125.827 79.661 126.395 78.9458 127.277C78.2249 128.165 77.8982 129.295 78.0278 130.415C78.1629 131.539 78.7486 132.565 79.6554 133.265L114.257 160.087C115.992 161.427 118.475 161.278 120.024 159.734L177.694 103.268C179.023 101.999 179.378 100.036 178.573 98.3987C177.762 96.7554 175.976 95.8071 174.135 96.0331L174.135 96.033Z" fill="black"/>
</svg>
