<svg width="12" height="32" viewBox="0 0 12 32" fill="none" xmlns="http://www.w3.org/2000/svg">
<path fill-rule="evenodd" clip-rule="evenodd" d="M10.4686 13.0445L9.53691 11.5038C9.26805 11.0576 9.09823 10.5589 9.03899 10.0413L8.1872 2.56159C8.46879 2.29542 8.63697 1.93099 8.6568 1.54403C8.67663 1.15706 8.54658 0.777347 8.29368 0.483793C8.16217 0.331849 7.99968 0.209783 7.81712 0.125795C7.63456 0.0418074 7.43615 -0.00216709 7.2352 -0.00317383H4.32441C4.1342 -0.000114391 3.94646 0.0403721 3.7719 0.116C3.59735 0.191627 3.4394 0.300908 3.30709 0.437586C3.17477 0.574264 3.07068 0.735646 3.00075 0.91256C2.93082 1.08947 2.89643 1.27846 2.89954 1.46867C2.89828 1.67384 2.93934 1.87705 3.02016 2.06564C3.10099 2.25422 3.21983 2.42411 3.36928 2.56469L2.51749 10.0445C2.45824 10.562 2.28843 11.0607 2.01957 11.5069L1.08792 13.0477C0.367372 14.2449 -0.011677 15.6165 -0.00812704 17.0138V29.5401C-0.0181786 30.1855 0.228282 30.8085 0.677147 31.2723C1.12601 31.7361 1.74059 32.0029 2.38596 32.014H9.17835C9.82371 32.0029 10.4383 31.7361 10.8872 31.2723C11.336 30.8085 11.5825 30.1855 11.5724 29.5401V17.0138C11.5742 15.6147 11.1924 14.2418 10.4686 13.0445ZM4.32441 0.93626H7.23364C7.37004 0.943655 7.49843 1.00309 7.59237 1.10226C7.68631 1.20144 7.73867 1.33283 7.73867 1.46943C7.73867 1.60604 7.68631 1.73743 7.59237 1.83661C7.49843 1.93578 7.37004 1.99517 7.23364 2.00256H4.32441C4.188 1.99517 4.05962 1.93578 3.96567 1.83661C3.87173 1.73743 3.81938 1.60604 3.81938 1.46943C3.81938 1.33283 3.87173 1.20144 3.96567 1.10226C4.05962 1.00309 4.188 0.943655 4.32441 0.93626ZM0.898462 22.9857H4.32441C4.44899 22.9857 4.56847 22.9362 4.65656 22.8481C4.74465 22.76 4.79414 22.6405 4.79414 22.516C4.79414 22.3914 4.74465 22.2719 4.65656 22.1838C4.56847 22.0957 4.44899 22.0462 4.32441 22.0462H0.90003V20.9799H1.90057C2.02515 20.9799 2.14463 20.9304 2.23272 20.8423C2.32081 20.7542 2.3703 20.6348 2.3703 20.5102C2.3703 20.3856 2.32081 20.2661 2.23272 20.178C2.14463 20.0899 2.02515 20.0405 1.90057 20.0405H0.90003V17.9736H5.78059C5.91944 17.9761 6.05164 18.0335 6.1482 18.1333C6.24477 18.2331 6.29783 18.3671 6.29573 18.506V26.5244C6.29783 26.6632 6.24477 26.7972 6.1482 26.897C6.05164 26.9968 5.91944 27.0543 5.78059 27.0567H0.90003V22.9857H0.898462ZM10.6612 29.5307C10.6674 29.9312 10.5144 30.3178 10.2358 30.6055C9.95717 30.8932 9.5757 31.0586 9.17522 31.0651H2.3844C1.98392 31.0586 1.60244 30.8932 1.32381 30.6055C1.04517 30.3178 0.892182 29.9312 0.898462 29.5307V27.9946H5.77903C6.16303 27.9881 6.52874 27.8294 6.79588 27.5535C7.06301 27.2775 7.20975 26.9068 7.20389 26.5228V18.506C7.20976 18.1218 7.06306 17.751 6.79597 17.4748C6.52888 17.1986 6.16318 17.0396 5.77903 17.0326H0.898462V17.0091C0.897043 15.7863 1.23004 14.5864 1.86142 13.5393L2.79307 12.0001C3.13164 11.435 3.34521 10.8039 3.41938 10.1494L4.24142 2.93894H7.31506L8.1371 10.1494C8.21118 10.804 8.42475 11.4351 8.76341 12.0001L9.69036 13.5377C10.322 14.5847 10.6551 15.7847 10.6533 17.0075L10.6612 29.5307ZM4.32441 24.0505H3.35362C3.22904 24.0505 3.10956 24.0999 3.02147 24.188C2.93337 24.2761 2.88388 24.3956 2.88388 24.5202C2.88388 24.6448 2.93337 24.7642 3.02147 24.8523C3.10956 24.9404 3.22904 24.9899 3.35362 24.9899H4.32441C4.44899 24.9899 4.56847 24.9404 4.65656 24.8523C4.74465 24.7642 4.79414 24.6448 4.79414 24.5202C4.79414 24.3956 4.74465 24.2761 4.65656 24.188C4.56847 24.0999 4.44899 24.0505 4.32441 24.0505ZM7.34168 11.3488C7.23066 11 7.15358 10.6413 7.11151 10.2778C7.10658 10.2172 7.08972 10.1583 7.06191 10.1043C7.03409 10.0503 6.99587 10.0023 6.94944 9.96319C6.90301 9.92404 6.8493 9.89448 6.79139 9.87618C6.73348 9.85788 6.67252 9.85122 6.61202 9.85659C6.49032 9.87227 6.3796 9.93492 6.30352 10.0312C6.22744 10.1275 6.19205 10.2497 6.20492 10.3717V10.3874C6.25362 10.8126 6.34329 11.2321 6.47266 11.64C6.48852 11.698 6.51579 11.7521 6.55288 11.7994C6.58996 11.8466 6.63612 11.886 6.68862 11.9152C6.74113 11.9443 6.79894 11.9627 6.85865 11.9693C6.91837 11.9758 6.97878 11.9703 7.03635 11.9532C7.15479 11.917 7.25415 11.8355 7.3128 11.7264C7.37145 11.6173 7.38464 11.4894 7.34951 11.3707L7.34011 11.3425L7.34168 11.3488ZM4.80823 29.0625H2.3844C2.25981 29.0625 2.14033 29.112 2.05224 29.2001C1.96415 29.2882 1.91466 29.4077 1.91466 29.5322C1.91466 29.6568 1.96415 29.7763 2.05224 29.8644C2.14033 29.9525 2.25981 30.002 2.3844 30.002H4.8145C4.87629 30.0016 4.93739 29.989 4.99432 29.965C5.05125 29.9409 5.10289 29.9059 5.14629 29.8619C5.18969 29.818 5.224 29.7659 5.24727 29.7087C5.27053 29.6514 5.2823 29.5902 5.28189 29.5284C5.28147 29.4666 5.2689 29.4054 5.24487 29.3485C5.22085 29.2916 5.18584 29.24 5.14186 29.1966C5.09788 29.1532 5.04578 29.1189 4.98853 29.0956C4.93129 29.0723 4.87002 29.0605 4.80823 29.0609V29.0625ZM7.71903 29.0625H6.74825C6.62367 29.0625 6.50419 29.112 6.41609 29.2001C6.328 29.2882 6.27851 29.4077 6.27851 29.5322C6.27851 29.6568 6.328 29.7763 6.41609 29.8644C6.50419 29.9525 6.62367 30.002 6.74825 30.002H7.7253C7.84988 30.002 7.96936 29.9525 8.05745 29.8644C8.14555 29.7763 8.19503 29.6568 8.19503 29.5322C8.19503 29.4077 8.14555 29.2882 8.05745 29.2001C7.96936 29.112 7.84988 29.0625 7.7253 29.0625H7.71903ZM8.10421 12.9208C8.07181 12.8709 8.02974 12.828 7.9805 12.7945C7.93125 12.7611 7.87581 12.7379 7.81745 12.7263C7.75909 12.7146 7.69899 12.7147 7.64067 12.7266C7.58236 12.7385 7.52702 12.7619 7.4779 12.7955C7.38162 12.8645 7.31415 12.9665 7.28843 13.0821C7.26272 13.1976 7.28056 13.3186 7.33855 13.4218L8.05724 14.6088C8.49548 15.3349 8.72669 16.1672 8.72584 17.0154V17.5086C8.7222 17.5706 8.73126 17.6326 8.75248 17.691C8.77369 17.7493 8.80661 17.8027 8.8492 17.8479C8.8918 17.8931 8.94317 17.929 9.00018 17.9536C9.05718 17.9782 9.11861 17.9909 9.18069 17.9909C9.24278 17.9909 9.30421 17.9782 9.36122 17.9536C9.41822 17.929 9.46959 17.8931 9.51219 17.8479C9.55478 17.8027 9.5877 17.7493 9.60892 17.691C9.63013 17.6326 9.63919 17.5706 9.63556 17.5086V17.0091C9.63717 15.9854 9.35828 14.9809 8.82918 14.1045L8.10421 12.9208Z" fill="black"/>
</svg>
