<svg width="19" height="32" viewBox="0 0 19 32" fill="none" xmlns="http://www.w3.org/2000/svg">
<path fill-rule="evenodd" clip-rule="evenodd" d="M17.873 7.62642C17.873 7.49106 17.873 7.35572 17.7392 7.35572L15.8712 4.10693C15.8079 4.02518 15.7272 3.95861 15.6349 3.91205C15.5426 3.86548 15.441 3.8401 15.3377 3.83779H8.66982L8.80359 2.61958C8.86265 2.33652 8.8644 2.04448 8.80872 1.76073C8.75304 1.47698 8.64105 1.20723 8.47939 0.967487C8.31773 0.727739 8.10966 0.522841 7.86748 0.36485C7.62529 0.20686 7.35391 0.0990407 7.06934 0.0476885C6.77734 0.00384391 6.47953 0.0183652 6.19322 0.0905535C5.9069 0.162742 5.63778 0.291126 5.40147 0.468173C5.16516 0.64522 4.96637 0.867436 4.81665 1.12194C4.66693 1.37644 4.56924 1.6581 4.52928 1.95066V2.62756L4.66305 3.84576H3.06257C2.95678 3.83043 2.84883 3.84805 2.75339 3.8962C2.65794 3.94435 2.57963 4.02071 2.52908 4.1149L0.66106 7.22829C0.610222 7.28195 0.571872 7.34617 0.548746 7.41638C0.525621 7.48658 0.518293 7.56103 0.527289 7.63439V28.3371C0.527289 28.4725 0.527289 28.6078 0.66106 28.6078L2.52908 31.7212C2.59236 31.8029 2.6731 31.8695 2.7654 31.9161C2.85769 31.9626 2.95922 31.988 3.06257 31.9903H15.4714C15.5748 31.988 15.6763 31.9626 15.7686 31.9161C15.8609 31.8695 15.9417 31.8029 16.0049 31.7212L17.873 28.6078C17.8871 28.5055 17.934 28.4105 18.0067 28.3371L17.873 7.62642ZM5.99758 1.67199C6.0804 1.57624 6.18286 1.49942 6.29799 1.44678C6.41313 1.39414 6.53824 1.36698 6.66484 1.36698C6.79144 1.36698 6.91656 1.39414 7.03169 1.44678C7.14683 1.49942 7.24928 1.57624 7.3321 1.67199C7.4805 1.91949 7.57189 2.19695 7.59965 2.48419L7.3321 3.83779H5.99917L5.73163 2.48419C5.70326 2.33723 5.71294 2.18545 5.75977 2.04329C5.8066 1.90113 5.88901 1.77331 5.99917 1.67199H5.99758ZM14.938 30.7752H3.33012L2.26313 28.8801H16.1387L14.938 30.7752ZM16.5384 25.0899C15.2396 24.913 14.0628 24.2311 13.2635 23.1921C12.4642 22.1531 12.1068 20.8409 12.2689 19.5401C12.3817 18.4401 12.8662 17.4114 13.6424 16.6239C14.4186 15.8364 15.4402 15.337 16.5384 15.2084V25.0899ZM16.5384 13.8548C14.8977 14.0452 13.3998 14.8795 12.3741 16.174C11.3483 17.4686 10.8785 19.1175 11.0681 20.7583C11.1999 22.1723 11.8165 23.4974 12.8135 24.5089C13.8104 25.5204 15.1264 26.156 16.5384 26.3082V27.5264H1.72805V25.6314C2.58564 25.4729 3.3612 25.0205 3.92129 24.352C4.48137 23.6835 4.79097 22.8407 4.79682 21.9686V20.7504C4.79367 20.4148 4.85683 20.0819 4.98267 19.7708C5.10852 19.4597 5.29457 19.1766 5.53014 18.9376C5.76571 18.6986 6.04616 18.5086 6.35539 18.3783C6.66462 18.248 6.99655 18.1801 7.3321 18.1784C7.82653 18.1757 8.31556 18.0755 8.77115 17.8834C9.22674 17.6913 9.63992 17.4111 9.98701 17.0589C10.3341 16.7068 10.6083 16.2897 10.7938 15.8314C10.9793 15.3731 11.0726 14.8826 11.0681 14.3882V13.7114C11.065 13.3759 11.1282 13.043 11.254 12.7319C11.3798 12.4208 11.5659 12.1377 11.8015 11.8987C12.037 11.6598 12.3175 11.4696 12.6267 11.3393C12.9359 11.2091 13.2679 11.1412 13.6034 11.1395H16.5384V13.8468V13.8548ZM16.5384 10.0646H13.4697C12.9752 10.0673 12.4862 10.1676 12.0306 10.3597C11.575 10.5518 11.1618 10.8319 10.8148 11.184C10.4677 11.5361 10.1935 11.9533 10.008 12.4116C9.82244 12.87 9.72921 13.3604 9.73362 13.8548V14.5316C9.74562 15.1882 9.50172 15.8237 9.05352 16.3037C8.60533 16.7837 7.98799 17.0705 7.3321 17.1035C6.83768 17.1062 6.34865 17.2065 5.89307 17.3986C5.43748 17.5907 5.02429 17.8708 4.6772 18.2229C4.33011 18.575 4.05594 18.9922 3.87041 19.4505C3.68489 19.9088 3.59166 20.3992 3.59607 20.8937V22.112C3.58455 22.664 3.39717 23.198 3.0612 23.6362C2.72523 24.0745 2.2582 24.394 1.72805 24.5485V8.16151H4.26333V6.94321H2.26313L3.33012 5.04811H14.938L16.0049 6.94321H9.73521V8.16151H16.54V10.0566L16.5384 10.0646Z" fill="black"/>
</svg>
