<svg width="64" height="61" viewBox="0 0 64 61" fill="none" xmlns="http://www.w3.org/2000/svg">
<path d="M62.5093 12.812L62.5109 12.8142C62.689 13.0674 62.8029 13.36 62.8428 13.667C62.8826 13.9736 62.8473 14.2854 62.74 14.5755C62.7399 14.5757 62.7398 14.576 62.7397 14.5762L53.5986 39.1212C53.5986 39.1214 53.5985 39.1216 53.5984 39.1218C53.2157 40.142 52.5318 41.0217 51.6374 41.6441C50.7431 42.2665 49.6807 42.6023 48.5912 42.6068C48.5909 42.6068 48.5906 42.6069 48.5903 42.6069H24.3543C24.3539 42.6069 24.3535 42.6068 24.353 42.6068C23.0525 42.6027 21.7978 42.1261 20.8225 41.2657C19.8469 40.405 19.2174 39.2191 19.0513 37.9287L14.9059 5.44229L14.9057 5.44132C14.8043 4.65889 14.4222 3.93992 13.8303 3.4182C13.2384 2.8965 12.4771 2.60759 11.6881 2.60523H11.6866H2.30262C2.02345 2.60523 1.75574 2.49434 1.55833 2.29693L1.20477 2.65048L1.55833 2.29693C1.36091 2.09951 1.25 1.83177 1.25 1.55262C1.25 1.27346 1.36091 1.00572 1.55833 0.808303C1.75574 0.610894 2.02345 0.5 2.30262 0.5H11.6859C12.9862 0.503907 14.2408 0.98014 15.2162 1.84007C16.1918 2.70016 16.8216 3.88547 16.9883 5.1753L17.811 11.6333L17.8667 12.0709L18.3079 12.0701L60.9393 11.9925C61.2477 11.9921 61.5516 12.0665 61.825 12.2092C62.0985 12.3519 62.3333 12.5587 62.5093 12.812ZM60.4167 14.7753L60.6684 14.0997L59.9474 14.1008L18.6975 14.166L18.1306 14.1669L18.2023 14.7292L21.1243 37.6521L21.1244 37.6526C21.2251 38.4355 21.6071 39.155 22.1992 39.677C22.7914 40.1989 23.5532 40.4876 24.3425 40.4892H24.3435L48.583 40.4892L48.5855 40.4892C49.2463 40.4859 49.8905 40.2823 50.4331 39.9052C50.9758 39.5282 51.3914 38.9955 51.625 38.3773L51.6258 38.3751L60.4167 14.7753ZM48.7683 47.8703L48.7686 47.8672C49.5414 47.8688 50.3064 48.0216 51.0205 48.3172C51.7391 48.6147 52.392 49.0508 52.942 49.6007C53.4919 50.1506 53.928 50.8035 54.2254 51.5221C54.5229 52.2407 54.6758 53.0109 54.6755 53.7886V53.7889C54.6754 54.9599 54.328 56.1046 53.6772 57.0782C53.0264 58.0517 52.1013 58.8103 51.0192 59.2579C49.9371 59.7056 48.7464 59.8221 47.598 59.5928C46.4496 59.3635 45.395 58.7987 44.5678 57.9698C43.7405 57.1409 43.1778 56.0853 42.9507 54.9364C42.7236 53.7876 42.8425 52.5973 43.2922 51.516C43.7419 50.4347 44.5023 49.5112 45.4771 48.8622C46.4519 48.2133 47.5973 47.8681 48.7683 47.8703ZM52.5764 53.7898L52.577 53.4509L52.5444 53.4378C52.4625 52.5584 52.0774 51.7306 51.4494 51.0996C50.7402 50.3871 49.7784 49.9831 48.773 49.9756H48.7693C48.0166 49.9756 47.2809 50.1987 46.655 50.6167C46.0291 51.0347 45.5411 51.6289 45.2527 52.3241C44.9644 53.0193 44.8885 53.7844 45.0349 54.5227C45.1812 55.2611 45.5431 55.9394 46.0748 56.4721C46.6065 57.0048 47.2842 57.368 48.0222 57.5157C48.7603 57.6634 49.5255 57.589 50.2213 57.302C50.9171 57.0149 51.5121 56.5281 51.9313 55.9029C52.3505 55.2778 52.575 54.5425 52.5764 53.7898ZM23.3924 47.8703L23.3927 47.8673C24.9578 47.8712 26.4581 48.4946 27.5651 49.6016C28.6756 50.7121 29.2995 52.2184 29.2995 53.7889C29.2995 54.9599 28.9521 56.1046 28.3012 57.0782C27.6504 58.0517 26.7253 58.8103 25.6432 59.2579C24.561 59.7056 23.3705 59.8221 22.2221 59.5928C21.0737 59.3635 20.0191 58.7987 19.1918 57.9698C18.3646 57.1409 17.8018 56.0853 17.5747 54.9364C17.3477 53.7876 17.4665 52.5973 17.9162 51.516C18.3659 50.4347 19.1263 49.5112 20.1011 48.8622C21.0759 48.2133 22.2213 47.8681 23.3924 47.8703ZM27.2004 53.7898L27.2011 53.4509L27.1684 53.4378C27.0865 52.5584 26.7014 51.7306 26.0734 51.0996C25.3642 50.3871 24.4024 49.9831 23.3971 49.9756H23.3933C22.6407 49.9756 21.9049 50.1987 21.279 50.6167C20.6531 51.0347 20.1651 51.6289 19.8768 52.3241C19.5884 53.0193 19.5126 53.7844 19.6589 54.5227C19.8052 55.2611 20.1672 55.9394 20.6989 56.4721C21.2306 57.0048 21.9082 57.368 22.6463 57.5157C23.3843 57.6634 24.1496 57.589 24.8453 57.302C25.5411 57.0149 26.1362 56.5281 26.5554 55.9029C26.9745 55.2778 27.199 54.5425 27.2004 53.7898Z" fill="white" stroke="white"/>
</svg>
