<svg width="16" height="16" viewBox="0 0 16 16" fill="none" xmlns="http://www.w3.org/2000/svg">
<path fill-rule="evenodd" clip-rule="evenodd" d="M15.5277 0.469703C15.3802 0.321203 15.2048 0.203347 15.0117 0.12292C14.8185 0.0424927 14.6113 0.0010869 14.402 0.0010869C14.1927 0.0010869 13.9855 0.0424927 13.7923 0.12292C13.5991 0.203347 13.4238 0.321203 13.2763 0.469703L7.99742 5.7409L2.73146 0.469703C2.43189 0.169442 2.02521 0.000486342 1.60106 1.0483e-06C1.17692 -0.000484245 0.769982 0.167542 0.469722 0.467116C0.169462 0.76669 0.000486342 1.17327 1.04781e-06 1.59741C-0.000484246 2.02156 0.167621 2.42853 0.467195 2.72879L5.74611 7.99871L0.467195 13.2712C0.167621 13.5715 -0.000484246 13.9784 1.04781e-06 14.4026C0.000486342 14.8267 0.169462 15.2333 0.469722 15.5329C0.769982 15.8325 1.17692 16.0005 1.60106 16C2.02521 15.9995 2.43189 15.8306 2.73146 15.5303L7.99742 10.2591L13.2763 15.5303C13.5759 15.8288 13.9819 15.9961 14.4048 15.9954C14.8278 15.9947 15.2331 15.826 15.5316 15.5264C15.8301 15.2268 15.9975 14.8209 15.9967 14.398C15.996 13.9751 15.8272 13.5697 15.5277 13.2712L10.2617 7.99871L15.5277 2.72879C15.8258 2.42849 15.9933 2.02245 15.9933 1.59925C15.9933 1.17605 15.8258 0.770009 15.5277 0.469703Z" fill="#D06F1A"/>
</svg>
