<svg width="24" height="24" viewBox="0 0 24 24" fill="none" xmlns="http://www.w3.org/2000/svg">
<path d="M14.0063 11.9672L23.6266 2.35061C24.1372 1.80021 24.1226 0.944671 23.5921 0.412411C23.0598 -0.11799 22.2041 -0.132545 21.6536 0.377897L12.0351 9.99634L2.41665 0.374642C1.86615 -0.137622 1.01044 -0.123067 0.478079 0.409155C-0.0524242 0.939556 -0.0669821 1.79696 0.443559 2.34554L10.0639 11.9672L0.443559 21.5838C0.167401 21.8418 0.00751899 22.2014 0.000253991 22.5792C-0.00701333 22.9589 0.141968 23.324 0.409043 23.591C0.676118 23.8581 1.04131 24.007 1.42103 23.9997C1.79893 23.9925 2.15864 23.8326 2.41664 23.5565L12.0351 13.9381L21.6535 23.5565C22.204 24.067 23.0598 24.0524 23.5921 23.522C24.1226 22.9898 24.1372 22.1342 23.6266 21.5838L14.0063 11.9672Z" fill="black"/>
</svg>
