<svg width="14" height="14" viewBox="0 0 14 14" fill="none" xmlns="http://www.w3.org/2000/svg">
<path fill-rule="evenodd" clip-rule="evenodd" d="M13.5867 0.41099C13.4577 0.281052 13.3042 0.177929 13.1352 0.107555C12.9662 0.0371811 12.7849 0.000951041 12.6017 0.000951041C12.4186 0.000951041 12.2373 0.0371811 12.0683 0.107555C11.8993 0.177929 11.7458 0.281052 11.6168 0.41099L6.99775 5.02329L2.39003 0.41099C2.1279 0.148262 1.77206 0.000425549 1.40093 9.17263e-07C1.0298 -0.000423715 0.673735 0.1466 0.411007 0.408727C0.148279 0.670854 0.000425549 1.02661 9.16834e-07 1.39774C-0.000423715 1.76886 0.146669 2.12497 0.408796 2.3877L5.02785 6.99887L0.408796 11.6123C0.146669 11.875 -0.000423715 12.2311 9.16834e-07 12.6023C0.000425549 12.9734 0.148279 13.3291 0.411007 13.5913C0.673735 13.8534 1.0298 14.0004 1.40093 14C1.77206 13.9996 2.1279 13.8517 2.39003 13.589L6.99775 8.9767L11.6168 13.589C11.8789 13.8502 12.2342 13.9966 12.6042 13.996C12.9743 13.9954 13.3289 13.8477 13.5902 13.5856C13.8514 13.3235 13.9978 12.9683 13.9971 12.5983C13.9965 12.2282 13.8488 11.8735 13.5867 11.6123L8.97898 6.99887L13.5867 2.3877C13.8476 2.12493 13.9941 1.76965 13.9941 1.39934C13.9941 1.02904 13.8476 0.673758 13.5867 0.41099Z" fill="#721C24"/>
</svg>
