<svg width="14" height="10" viewBox="0 0 14 10" fill="none" xmlns="http://www.w3.org/2000/svg">
<path d="M13.6072 8.76177C13.3583 9.00913 13.0217 9.14796 12.6709 9.14796C12.32 9.14796 11.9834 9.00913 11.7346 8.76177L6.9668 4.0604L2.26542 8.76177C2.01659 9.00913 1.67999 9.14796 1.32913 9.14796C0.978274 9.14796 0.641672 9.00913 0.392841 8.76177C0.268363 8.63831 0.169562 8.49142 0.102138 8.32959C0.0347131 8.16775 0 7.99416 0 7.81884C0 7.64352 0.0347131 7.46993 0.102138 7.30809C0.169562 7.14626 0.268363 6.99937 0.392841 6.87591L6.02387 1.24488C6.14733 1.12041 6.29421 1.0216 6.45605 0.95418C6.61789 0.886756 6.79148 0.852042 6.9668 0.852042C7.14212 0.852042 7.31571 0.886756 7.47754 0.95418C7.63938 1.0216 7.78627 1.12041 7.90973 1.24488L13.6072 6.87591C13.7316 6.99937 13.8304 7.14626 13.8979 7.30809C13.9653 7.46993 14 7.64352 14 7.81884C14 7.99416 13.9653 8.16775 13.8979 8.32959C13.8304 8.49142 13.7316 8.63831 13.6072 8.76177Z" fill="black"/>
</svg>
