<svg width="156" height="230" viewBox="0 0 156 230" fill="none" xmlns="http://www.w3.org/2000/svg">
<path d="M121.736 9.69618L121.736 83.5854L145.367 107.226C148.667 110.526 151.237 114.376 153.027 118.686C154.807 122.996 155.727 127.536 155.727 132.205L155.727 227.015C155.727 228.505 154.507 229.725 153.017 229.725L92.9359 229.725C91.4459 229.725 90.2259 228.505 90.2259 227.015L90.2259 188.625L10.3258 188.625C4.7657 188.625 0.255739 184.375 0.25574 179.155L0.255747 9.7141C0.255747 4.48402 4.77569 0.244134 10.3258 0.244134L111.676 0.244139C117.216 0.22415 121.736 4.47403 121.736 9.69412L121.736 9.69618ZM81.7262 103.566L95.9762 117.816L95.9762 5.64729L79.9862 5.64729L79.9762 102.008C80.5862 102.478 81.1562 103.008 81.7261 103.568L81.7262 103.566ZM111.665 5.64625L101.375 5.64625L101.375 123.217L116.315 138.157L116.315 9.69592C116.315 7.47592 114.225 5.64599 111.665 5.64599L111.665 5.64625ZM141.525 111.057L121.725 91.2567L121.725 143.578L134.205 156.058C135.255 157.108 135.255 158.828 134.205 159.898C133.155 160.968 131.435 160.948 130.365 159.898L96.7549 126.288C96.7349 126.268 96.7249 126.258 96.7049 126.238L77.8649 107.398C72.5649 102.098 63.9349 102.098 58.6149 107.398C53.315 112.698 53.315 121.328 58.6149 126.648L90.0645 158.059C93.6644 161.659 95.6346 166.429 95.6346 171.509L95.6346 198.74L150.285 198.74L150.285 132.231C150.285 124.231 147.186 116.731 141.525 111.061L141.525 111.057ZM95.6347 224.306L150.286 224.306L150.286 204.156L95.6347 204.156L95.6347 224.306ZM90.2146 171.506C90.2146 167.876 88.7946 164.456 86.2346 161.886L79.9746 155.626L79.9746 183.205L90.2346 183.205L90.2146 171.506ZM5.66554 9.69618L5.66553 179.145C5.66553 181.385 7.75553 183.195 10.3155 183.195L74.5459 183.195L74.5459 150.184L54.806 130.444C51.106 126.744 49.2459 121.864 49.2459 116.994C49.2459 112.114 51.0959 107.254 54.806 103.544C60.1359 98.2141 67.8661 96.7239 74.5459 99.044L74.5459 5.64499L10.3155 5.64498C7.74552 5.64498 5.66554 7.47495 5.66554 9.69488L5.66554 9.69618Z" fill="black"/>
<path d="M43.6563 104.647L43.6563 170.277C43.6563 171.767 42.4363 172.987 40.9462 172.987C39.4562 172.987 38.2362 171.767 38.2362 170.277L38.2362 104.647C38.2362 103.157 39.4562 101.937 40.9462 101.937C42.4362 101.937 43.6563 103.157 43.6563 104.647Z" fill="black"/>
<path d="M24.3262 104.647L24.3262 170.277C24.3262 171.767 23.1062 172.987 21.6161 172.987C20.1261 172.987 18.9061 171.767 18.9061 170.277L18.9061 104.647C18.9061 103.157 20.1261 101.937 21.6162 101.937C23.1062 101.937 24.3262 103.157 24.3262 104.647Z" fill="black"/>
<path d="M18.8962 37.6052L18.8962 56.9453C18.8962 58.4353 20.1162 59.6553 21.6062 59.6553L40.9462 59.6553C42.4362 59.6553 43.6563 58.4353 43.6563 56.9453L43.6563 37.6052C43.6563 36.1152 42.4363 34.8952 40.9462 34.8952L21.6062 34.8952C20.1162 34.8952 18.8962 36.1152 18.8962 37.6052ZM24.3262 54.2452L24.3262 40.3352L38.2362 40.3352L38.2362 54.2452L24.3262 54.2452Z" fill="black"/>
</svg>
