<svg width="30" height="32" viewBox="0 0 30 32" fill="none" xmlns="http://www.w3.org/2000/svg">
<path fill-rule="evenodd" clip-rule="evenodd" d="M9.69108 24.3242C9.98141 24.3208 10.259 24.2045 10.4652 24C10.6713 23.7955 10.7898 23.5189 10.7956 23.2286V14.3097C10.8023 14.1603 10.7787 14.0111 10.7262 13.8711C10.6736 13.7311 10.5933 13.6032 10.49 13.4951C10.3866 13.3871 10.2625 13.301 10.125 13.2423C9.98747 13.1835 9.83949 13.1532 9.68996 13.1532C9.54043 13.1532 9.39245 13.1835 9.25496 13.2423C9.11746 13.301 8.9933 13.3871 8.88997 13.4951C8.78664 13.6032 8.70628 13.7311 8.65375 13.8711C8.60121 14.0111 8.5776 14.1603 8.58432 14.3097V23.2241C8.58897 23.5156 8.70727 23.7937 8.91402 23.9992C9.12076 24.2047 9.39959 24.3213 9.69108 24.3242ZM15.008 24.3242C15.2987 24.3213 15.5769 24.2054 15.7835 24.0008C15.9902 23.7963 16.109 23.5193 16.1148 23.2286V14.3097C16.1148 14.0164 15.9983 13.7352 15.7909 13.5278C15.5836 13.3205 15.3024 13.204 15.0091 13.204C14.7159 13.204 14.4347 13.3205 14.2273 13.5278C14.02 13.7352 13.9035 14.0164 13.9035 14.3097V23.2241C13.9081 23.5152 14.0261 23.793 14.2324 23.9984C14.4387 24.2039 14.7169 24.3207 15.008 24.3242ZM20.3272 24.3242C20.6199 24.3243 20.9009 24.2096 21.1099 24.0047C21.3189 23.7999 21.4393 23.5212 21.4451 23.2286V14.3097C21.4518 14.1603 21.4282 14.0111 21.3757 13.8711C21.3232 13.7311 21.2428 13.6032 21.1395 13.4951C21.0361 13.3871 20.912 13.301 20.7745 13.2423C20.637 13.1835 20.489 13.1532 20.3395 13.1532C20.19 13.1532 20.042 13.1835 19.9045 13.2423C19.767 13.301 19.6428 13.3871 19.5395 13.4951C19.4362 13.6032 19.3558 13.7311 19.3033 13.8711C19.2507 14.0111 19.2271 14.1603 19.2338 14.3097V23.2241C19.2384 23.5133 19.3548 23.7895 19.5587 23.9946C19.7626 24.1998 20.038 24.3179 20.3272 24.3242ZM28.3048 5.37287H21.2282L20.3182 2.3119C20.1178 1.6474 19.7099 1.06449 19.1543 0.648494C18.5987 0.232499 17.9245 0.00526587 17.2305 0H12.7923C12.0986 0.00574123 11.4249 0.233216 10.8698 0.649177C10.3146 1.06514 9.90708 1.64776 9.70673 2.3119L8.79449 5.36611H1.71344C1.44172 5.39843 1.19129 5.5293 1.00959 5.73389C0.827894 5.93849 0.727539 6.20265 0.727539 6.47628C0.727539 6.74991 0.827894 7.014 1.00959 7.21859C1.19129 7.42319 1.44172 7.55405 1.71344 7.58637H3.03037V28.9525C3.03449 29.7597 3.35727 30.5325 3.92845 31.1028C4.49962 31.6732 5.27296 31.9948 6.08012 31.9978H23.9672C24.7777 31.9948 25.5539 31.6707 26.126 31.0966C26.698 30.5225 27.0192 29.7451 27.0192 28.9346V7.55731H28.2981C28.5946 7.55731 28.879 7.43951 29.0886 7.22985C29.2983 7.0202 29.4161 6.73586 29.4161 6.43936C29.4156 6.29466 29.386 6.15154 29.3291 6.0185C29.2722 5.88545 29.1891 5.76523 29.0848 5.66491C28.9806 5.56459 28.8572 5.48626 28.722 5.43455C28.5869 5.38285 28.4427 5.35877 28.2981 5.36386L28.3048 5.37287ZM11.8442 2.94688C11.9064 2.74208 12.031 2.56183 12.2005 2.43117C12.3701 2.30051 12.5761 2.22599 12.79 2.21801H17.2618C17.4807 2.21616 17.694 2.2872 17.8681 2.41998C18.0422 2.55277 18.1671 2.73975 18.2232 2.95139L18.9409 5.36611H11.0796L11.8442 2.94688ZM24.8124 29.185H24.7364C24.6795 29.3508 24.5731 29.495 24.4315 29.5982C24.2899 29.7014 24.12 29.7585 23.9448 29.7619H6.08012C5.85534 29.7584 5.64096 29.6666 5.48325 29.5064C5.32555 29.3461 5.23716 29.1304 5.23719 28.9056V7.55731H24.8146V29.185H24.8124Z" fill="black"/>
</svg>
