<svg width="11" height="6" viewBox="0 0 11 6" fill="none" xmlns="http://www.w3.org/2000/svg">
<path fill-rule="evenodd" clip-rule="evenodd" d="M5.58008 6C5.7031 5.98891 5.81739 5.93176 5.90008 5.84L10.7901 1.07C10.8535 1.01504 10.9048 0.9476 10.9409 0.871892C10.9771 0.796185 10.9972 0.713839 11.0001 0.63C11.0043 0.549679 10.9923 0.469337 10.9648 0.39375C10.9373 0.318163 10.8949 0.248873 10.8401 0.19C10.7853 0.130551 10.7188 0.0830081 10.6448 0.0503232C10.5708 0.0176383 10.4909 0.000509314 10.4101 0C10.3322 0.000827085 10.2553 0.0181931 10.1847 0.0509482C10.114 0.0837032 10.0511 0.1311 10.0001 0.19L5.50008 4.58L1.00008 0.19C0.947577 0.132942 0.884342 0.0867935 0.813991 0.0541918C0.74364 0.0215902 0.667552 0.00317523 0.59008 0C0.509211 0.000509314 0.42931 0.0176383 0.355339 0.0503232C0.281368 0.0830081 0.214905 0.130551 0.16008 0.19C0.105281 0.248873 0.0628778 0.318163 0.0353916 0.39375C0.00790527 0.469337 -0.00410334 0.549679 7.95879e-05 0.63C0.00429077 0.712129 0.0250649 0.792557 0.0611531 0.866452C0.0972413 0.940347 0.147898 1.00618 0.21008 1.06L5.10008 5.83C5.15938 5.89636 5.23444 5.94671 5.31833 5.97642C5.40221 6.00613 5.49223 6.01424 5.58008 6Z" fill="black"/>
</svg>
