<svg width="26" height="26" viewBox="0 0 26 26" fill="none" xmlns="http://www.w3.org/2000/svg">
<path d="M21.4885 4.51348C19.2379 2.26345 16.1845 1 13.0014 1C9.81818 1 6.76591 2.26487 4.51429 4.51486C2.26374 6.76489 1 9.8176 1 13C1 16.1824 2.26381 19.2351 4.51429 21.4851C6.76619 23.7352 9.81825 25 13.0014 25C16.1846 25 19.2379 23.7365 21.4885 21.4865C23.7377 19.2351 25 16.1824 25 13C25 9.8176 23.7375 6.76493 21.4885 4.51348ZM20.3423 5.65944C22.1859 7.50948 23.2646 9.98521 23.366 12.5947C23.466 15.2042 22.5793 17.7556 20.8829 19.7407L6.25759 5.11353C8.24457 3.41757 10.7965 2.53242 13.4066 2.63375C16.0167 2.73511 18.4931 3.81483 20.3423 5.65944ZM5.6574 20.3409C3.82181 18.4922 2.74721 16.0221 2.64721 13.4191C2.54719 10.8164 3.42848 8.27033 5.11673 6.28665L19.7421 20.8868C17.7551 22.5828 15.2032 23.4679 12.5931 23.3666C9.98296 23.2652 7.50659 22.1855 5.6574 20.3409Z" fill="#721C24" stroke="#721C24" stroke-width="0.6"/>
</svg>
