<svg width="14" height="10" viewBox="0 0 14 10" fill="none" xmlns="http://www.w3.org/2000/svg">
<path d="M13.6072 1.23824C13.3583 0.990889 13.0217 0.852051 12.6709 0.852051C12.32 0.852051 11.9834 0.990889 11.7346 1.23824L6.9668 5.93962L2.26542 1.23824C2.01659 0.990889 1.67999 0.852051 1.32913 0.852051C0.978274 0.852051 0.641672 0.990889 0.392841 1.23824C0.268363 1.36171 0.169562 1.50859 0.102138 1.67043C0.0347131 1.83227 0 2.00585 0 2.18118C0 2.3565 0.0347131 2.53008 0.102138 2.69192C0.169562 2.85376 0.268363 3.00064 0.392841 3.12411L6.02387 8.75513C6.14733 8.87961 6.29421 8.97841 6.45605 9.04584C6.61789 9.11326 6.79148 9.14797 6.9668 9.14797C7.14212 9.14797 7.31571 9.11326 7.47754 9.04584C7.63938 8.97841 7.78627 8.87961 7.90973 8.75513L13.6072 3.12411C13.7316 3.00064 13.8304 2.85376 13.8979 2.69192C13.9653 2.53008 14 2.3565 14 2.18118C14 2.00585 13.9653 1.83227 13.8979 1.67043C13.8304 1.50859 13.7316 1.36171 13.6072 1.23824Z" fill="black"/>
</svg>
