<svg width="76" height="53" viewBox="0 0 76 53" fill="none" xmlns="http://www.w3.org/2000/svg">
<path d="M69.6914 0H6.30863C2.82926 0 0 2.80608 0 6.25695V46.743C0 50.1939 2.82926 53 6.30863 53H69.6914C73.1707 53 76 50.1939 76 46.743V6.25695C76 2.80608 73.1707 0 69.6914 0ZM73.7734 6.25695V25.3961H35.9367C37.522 23.7855 38.6174 21.8686 39.0271 19.9813C39.4843 17.873 39.0539 16.0328 37.8099 14.799C35.337 12.3463 30.5929 13.2149 27.0034 16.7748C26.5819 17.1929 26.1959 17.6316 25.8427 18.0851V2.20902H69.6911C71.9414 2.20902 73.7734 4.02509 73.7734 6.25695ZM15.2175 23.9556C13.8667 22.6159 12.9434 21.0406 12.6109 19.5154C12.317 18.1668 12.5367 17.0451 13.2254 16.359C13.7331 15.8555 14.4545 15.617 15.2887 15.617C16.9809 15.617 19.1303 16.5975 20.8818 18.3347C22.2326 19.6744 23.1559 21.2497 23.4884 22.7749C23.7823 24.1235 23.5626 25.2453 22.8739 25.9314C22.7848 26.0197 22.6869 26.1021 22.583 26.1758C22.5325 26.2081 22.479 26.2405 22.4315 26.2759C20.7334 27.2799 17.6043 26.3229 15.2175 23.9556ZM27.0446 26.2788C26.9942 26.2434 26.9378 26.211 26.8873 26.1787C26.7804 26.105 26.6795 26.0226 26.5874 25.9313C25.8957 25.2453 25.679 24.1264 25.9729 22.7749C26.3054 21.2497 27.2287 19.6744 28.5795 18.3347C31.195 15.7406 34.7011 14.8367 36.2358 16.359C36.9275 17.045 37.1442 18.1639 36.8503 19.5154C36.5178 21.0406 35.5945 22.6159 34.2437 23.9556C31.8628 26.317 28.7398 27.2769 27.0446 26.2788ZM6.30795 2.20766H23.6155V18.0837C23.2652 17.6303 22.8763 17.1886 22.4577 16.7734C18.8684 13.2136 14.1212 12.3479 11.6512 14.7977C10.4073 16.0314 9.97686 17.8717 10.434 19.9799C10.8437 21.8673 11.9392 23.7841 13.5245 25.3947H2.22552V6.25559C2.22552 4.02374 4.05728 2.20698 6.30757 2.20698L6.30795 2.20766ZM2.2259 46.7423V27.6032H16.381C17.515 28.245 18.6787 28.6514 19.7861 28.8075C19.3171 29.4523 18.9163 30.156 18.5986 30.9098C17.515 33.4833 17.5091 36.3217 18.5779 38.9014C18.756 39.3283 19.1686 39.5845 19.608 39.5845C19.7505 39.5845 19.893 39.558 20.0296 39.502C20.5966 39.2694 20.8698 38.6246 20.6352 38.0622C19.7921 36.0276 19.798 33.7927 20.6531 31.761C21.2795 30.2741 22.3067 29.0315 23.6158 28.1452V50.794L6.3083 50.791C4.05801 50.791 2.2259 48.9742 2.2259 46.7423ZM69.6914 50.7909H25.843V28.1422C29.0017 30.2887 30.3377 34.4079 28.8236 38.0589C28.5891 38.6212 28.8622 39.2691 29.4293 39.4987C29.5688 39.5547 29.7113 39.5812 29.8508 39.5812C30.2873 39.5812 30.7029 39.3221 30.881 38.8981C32.3179 35.4354 31.7271 31.64 29.6668 28.8073C30.7771 28.6512 31.9409 28.2449 33.0749 27.6029H73.7739V46.7421C73.7739 48.974 71.9417 50.7909 69.6914 50.7909Z" fill="black"/>
</svg>
