<svg width="80" height="44" viewBox="0 0 80 44" fill="none" xmlns="http://www.w3.org/2000/svg">
<g clip-path="url(#clip0_367_3125)">
<path d="M58.7234 0.723633H21.2766C9.57447 0.723633 0 10.2981 0 22.0002C0 33.7024 9.57447 43.2768 21.2766 43.2768H58.7234C70.4255 43.2768 80 33.7024 80 22.0002C80 10.2981 70.4255 0.723633 58.7234 0.723633Z" fill="white"/>
<path d="M58.7234 2.44704C61.3511 2.44704 63.9043 2.96831 66.3085 3.98959C68.6383 4.97895 70.7234 6.39385 72.5319 8.19172C74.3298 9.98959 75.7447 12.0853 76.734 14.4151C77.7553 16.8194 78.2766 19.3726 78.2766 22.0002C78.2766 24.6279 77.7553 27.1811 76.734 29.5853C75.7447 31.9151 74.3298 34.0002 72.5319 35.8087C70.734 37.6066 68.6383 39.0215 66.3085 40.0109C63.9043 41.0321 61.3511 41.5534 58.7234 41.5534H21.2766C18.6489 41.5534 16.0957 41.0321 13.6915 40.0109C11.3617 39.0215 9.2766 37.6066 7.46809 35.8087C5.67022 34.0109 4.25532 31.9151 3.26596 29.5853C2.24468 27.1811 1.72341 24.6279 1.72341 22.0002C1.72341 19.3726 2.24468 16.8194 3.26596 14.4151C4.25532 12.0853 5.67022 10.0002 7.46809 8.19172C9.26596 6.39385 11.3617 4.97895 13.6915 3.98959C16.0957 2.96831 18.6489 2.44704 21.2766 2.44704L58.7234 2.44704ZM58.7234 0.723633H21.2766C9.57447 0.723633 0 10.2981 0 22.0002C0 33.7024 9.57447 43.2768 21.2766 43.2768H58.7234C70.4255 43.2768 80 33.7024 80 22.0002C80 10.2981 70.4255 0.723633 58.7234 0.723633V0.723633Z" fill="#3C4043"/>
<path d="M38.149 23.5112V29.9473H36.1064V14.0537H41.5213C42.8937 14.0537 44.0639 14.5112 45.0213 15.4261C46.0001 16.3409 46.4894 17.458 46.4894 18.7771C46.4894 20.1282 46.0001 21.2452 45.0213 22.1495C44.0745 23.0537 42.9043 23.5005 41.5213 23.5005H38.149V23.5112ZM38.149 16.0112V21.5537H41.5639C42.3724 21.5537 43.0533 21.2771 43.5852 20.7346C44.1277 20.192 44.4043 19.5324 44.4043 18.7878C44.4043 18.0537 44.1277 17.4048 43.5852 16.8622C43.0533 16.2984 42.383 16.0218 41.5639 16.0218H38.149V16.0112Z" fill="#3C4043"/>
<path d="M51.8299 18.7139C53.3405 18.7139 54.532 19.1181 55.4043 19.9266C56.2767 20.7351 56.7129 21.8415 56.7129 23.2458V29.9479H54.7661V28.4373H54.6809C53.8405 29.682 52.7129 30.299 51.3086 30.299C50.1065 30.299 49.1065 29.9479 48.298 29.2351C47.4895 28.5224 47.0852 27.6394 47.0852 26.5756C47.0852 25.4479 47.5107 24.5543 48.3618 23.8947C49.2129 23.2245 50.3512 22.8947 51.7661 22.8947C52.9788 22.8947 53.9788 23.1181 54.7554 23.5649V23.0968C54.7554 22.3841 54.4788 21.7883 53.915 21.2883C53.3512 20.7883 52.6916 20.5437 51.9363 20.5437C50.798 20.5437 49.8937 21.0224 49.2341 21.9905L47.4363 20.8628C48.4256 19.4266 49.8937 18.7139 51.8299 18.7139L51.8299 18.7139ZM49.1916 26.6075C49.1916 27.1394 49.415 27.5862 49.8724 27.9373C50.3192 28.2883 50.8512 28.4692 51.4575 28.4692C52.3192 28.4692 53.0852 28.15 53.7554 27.5117C54.4256 26.8734 54.7661 26.1288 54.7661 25.2671C54.1278 24.7671 53.2448 24.5117 52.1065 24.5117C51.2767 24.5117 50.5852 24.7139 50.032 25.1075C49.4682 25.5224 49.1916 26.0224 49.1916 26.6075Z" fill="#3C4043"/>
<path d="M67.8191 19.0635L61.0106 34.7231H58.9042L61.4361 29.2443L56.9468 19.0635H59.1702L62.4042 26.872H62.4468L65.5957 19.0635H67.8191Z" fill="#3C4043"/>
<path d="M30.0246 22.2119C30.0246 21.5459 29.965 20.9087 29.8544 20.2959H21.2927V23.8065L26.2236 23.8076C26.0236 24.9757 25.38 25.9714 24.3938 26.6353V28.9129H27.3289C29.0427 27.3267 30.0246 24.9821 30.0246 22.2119Z" fill="#4285F4"/>
<path d="M24.3948 26.6354C23.5778 27.1864 22.5257 27.5088 21.2948 27.5088C18.9172 27.5088 16.9001 25.9066 16.1778 23.7471H13.1501V26.096C14.6501 29.0726 17.7331 31.1152 21.2948 31.1152C23.7565 31.1152 25.8246 30.3056 27.3299 28.912L24.3948 26.6354Z" fill="#34A853"/>
<path d="M15.8926 22.0056C15.8926 21.3993 15.9937 20.8131 16.1777 20.262V17.9131H13.1501C12.5298 19.1439 12.1809 20.5333 12.1809 22.0056C12.1809 23.478 12.5309 24.8674 13.1501 26.0982L16.1777 23.7493C15.9937 23.1982 15.8926 22.612 15.8926 22.0056Z" fill="#FABB05"/>
<path d="M21.2948 16.4999C22.6384 16.4999 23.8416 16.9627 24.7916 17.867L27.3927 15.268C25.8129 13.7968 23.7533 12.8936 21.2948 12.8936C17.7342 12.8936 14.6501 14.9361 13.1501 17.9127L16.1778 20.2616C16.9001 18.1021 18.9172 16.4999 21.2948 16.4999Z" fill="#E94235"/>
</g>
<defs>
<clipPath id="clip0_367_3125">
<rect width="80" height="42.5532" fill="white" transform="translate(0 0.723633)"/>
</clipPath>
</defs>
</svg>
