<svg width="89" height="80" viewBox="0 0 89 80" fill="none" xmlns="http://www.w3.org/2000/svg">
<path d="M85.4799 17.3028H57.0362V11.0542C57.0362 4.95824 52.0781 0 45.982 0C39.8861 0 34.9278 4.95815 34.9278 11.0542V17.3028H2.92845C1.49622 17.3028 0.333008 18.5278 0.333008 20.029V77.2737C0.333008 78.775 1.49622 80 2.92482 80H85.48C86.9122 79.9964 88.0754 78.775 88.0754 77.2737V20.029C88.0754 18.5278 86.9122 17.3028 85.48 17.3028H85.4799ZM37.5883 11.0578C37.5883 6.4304 41.3542 2.66458 45.9815 2.66458C50.6089 2.66458 54.3748 6.43049 54.3748 11.0578V18.6187C54.3748 18.6259 54.3711 18.6296 54.3711 18.6332C54.3711 18.6405 54.3748 18.6441 54.3748 18.6477V22.1701H37.5883V11.0578ZM2.99359 77.2732L2.92816 19.9596H34.9312V22.1697H33.4954C32.7611 22.1697 32.165 22.7658 32.165 23.5001C32.165 24.2344 32.7611 24.8306 33.4954 24.8306H58.4755C59.2098 24.8306 59.8059 24.2344 59.8059 23.5001C59.8059 22.7659 59.2098 22.1697 58.4755 22.1697H57.0396V19.9632L85.4144 20.0287L85.4799 77.3385L2.99359 77.2732Z" fill="black"/>
<path d="M39.1632 32.7271H10.472C9.73776 32.7271 9.1416 33.3232 9.1416 34.0575V63.2465C9.1416 63.9808 9.73775 64.577 10.472 64.577H39.1632C39.8975 64.577 40.4937 63.9808 40.4937 63.2465V34.0575C40.4937 33.3196 39.8975 32.7271 39.1632 32.7271ZM17.535 61.9161V57.4814C17.535 56.0347 18.6183 54.8424 20.0141 54.657C23.1657 56.7071 26.4699 56.7107 29.6176 54.657C31.0171 54.8387 32.0967 56.0347 32.0967 57.4814V61.9161H17.535ZM37.8362 61.9161H34.761V57.4814C34.761 54.4462 32.2892 51.9743 29.2467 51.9743C28.9704 51.9743 28.7014 52.0616 28.476 52.2179C25.9788 53.9881 23.6524 53.9881 21.1551 52.2179C20.9297 52.0579 20.6607 51.9743 20.3845 51.9743C17.3456 51.9743 14.8701 54.4461 14.8701 57.4814V61.9161H11.8021V35.3838H37.8366L37.8362 61.9161Z" fill="black"/>
<path d="M24.8191 52.3341C28.2142 52.3341 30.9733 49.5714 30.9733 46.18C30.9733 42.7849 28.2143 40.0259 24.8191 40.0259C21.4277 40.0259 18.665 42.7848 18.665 46.18C18.665 49.5714 21.424 52.3341 24.8191 52.3341ZM24.8191 42.6832C26.7457 42.6832 28.316 44.2499 28.316 46.1765C28.316 48.103 26.7493 49.6733 24.8191 49.6733C22.8926 49.6733 21.3259 48.1066 21.3259 46.1765C21.3223 44.2499 22.889 42.6832 24.8191 42.6832Z" fill="black"/>
<path d="M77.9374 33.8062H49.5765C48.8423 33.8062 48.2461 34.4023 48.2461 35.1366C48.2461 35.8709 48.8422 36.467 49.5765 36.467L77.9374 36.4634C78.6717 36.4634 79.2678 35.8672 79.2678 35.133C79.2678 34.4023 78.6717 33.8062 77.9374 33.8062V33.8062Z" fill="black"/>
<path d="M77.9374 47.3208H49.5765C48.8423 47.3208 48.2461 47.9169 48.2461 48.6512C48.2461 49.3855 48.8422 49.9817 49.5765 49.9817L77.9374 49.978C78.6717 49.978 79.2678 49.3819 79.2678 48.6476C79.2678 47.9133 78.6717 47.3208 77.9374 47.3208V47.3208Z" fill="black"/>
<path d="M77.9374 60.8364H49.5765C48.8423 60.8364 48.2461 61.4326 48.2461 62.1669C48.2461 62.9011 48.8422 63.4973 49.5765 63.4973L77.9374 63.4937C78.6717 63.4937 79.2678 62.8975 79.2678 62.1632C79.2678 61.429 78.6717 60.8364 77.9374 60.8364V60.8364Z" fill="black"/>
<path d="M45.9821 4.72217C43.1576 4.72217 40.8604 7.01955 40.8604 9.84391C40.8604 12.6683 43.1577 14.9693 45.9821 14.9693C48.8065 14.9693 51.1075 12.6683 51.1075 9.84391C51.1075 7.01955 48.8065 4.72217 45.9821 4.72217ZM45.9821 12.312C44.6226 12.312 43.5176 11.207 43.5176 9.84754C43.5176 8.48807 44.6226 7.38303 45.9821 7.38303C47.3416 7.38303 48.4466 8.48807 48.4466 9.84754C48.4466 11.207 47.3416 12.312 45.9821 12.312Z" fill="black"/>
</svg>
