<svg width="50" height="51" viewBox="0 0 50 51" fill="none" xmlns="http://www.w3.org/2000/svg">
<g clip-path="url(#clip0_367_3097)">
<path fill-rule="evenodd" clip-rule="evenodd" d="M50 42.7145C50 47.0143 46.5143 50.5 42.2145 50.5H7.72328C3.45835 50.5005 0.00052048 47.0435 0 42.7786V7.94889C0 3.83498 3.33498 0.5 7.44889 0.5H42.5558C46.6679 0.502603 50 3.83682 50 7.94889L50 42.7145Z" fill="#FFB92A"/>
<path d="M4.71445 19.9597V32.6662L2.4515 33.1754V20.4689L4.71445 19.9597ZM10.7179 21.5985C9.31862 21.9125 8.45493 23.4843 8.45493 23.4843V22.3028L6.25421 22.7828V30.3637C6.98001 30.0827 7.79697 30.1705 8.44644 30.5994V26.9004C8.46342 25.1278 8.97164 24.0925 10.0333 23.8539C10.9659 23.6446 11.3157 24.3404 11.3006 25.4125V31.201L13.4598 30.7135L13.4749 24.943C13.5013 22.1161 12.3614 21.2298 10.7207 21.5985H10.7179H10.7179ZM13.9879 21.0478L15.2259 20.765V18.9923L17.4181 18.5086V20.2822L18.9767 19.9324L18.9522 21.8502L17.3927 22.2001L17.3804 27.0088C17.3908 27.5963 17.4936 27.9602 18.1526 27.8122C18.3902 27.7593 18.6234 27.6887 18.8504 27.601L18.857 29.4048C18.436 29.6148 17.9903 29.771 17.5303 29.8696C16.2782 30.16 15.1966 29.3453 15.1966 27.6802L15.2051 22.6885L13.9662 22.9666L13.9879 21.0478V21.0478ZM21.6121 24.6865C21.6053 24.8755 21.6147 25.0648 21.6404 25.2522C21.8035 26.2272 22.2835 26.9843 23.2688 26.7609C24.174 26.5581 24.4748 25.9566 24.6483 25.2928L26.9433 24.7779C26.7038 26.2479 25.9061 28.1007 23.4036 28.6617C21.1577 29.1662 19.7999 27.8697 19.4274 25.6539C19.0192 23.225 19.6518 19.6052 22.9812 18.8594C25.4328 18.3087 26.5859 19.7617 26.9018 21.6409C27.007 22.2488 27.0324 22.8679 26.9772 23.4824L21.6121 24.6865ZM24.7982 22.2981C24.8002 22.1587 24.7882 22.0194 24.7624 21.8823C24.6275 21.0846 24.1881 20.468 23.2188 20.6829C22.2175 20.9083 21.7224 21.755 21.631 23.0081L24.7982 22.2981ZM32.3932 19.5053C30.8686 19.8664 30.1303 20.929 30.1246 23.0128L30.1048 26.973L27.9211 27.4662V17.9184L30.0331 17.4469C30.0864 18.017 30.1106 18.5895 30.1058 19.162C30.4622 17.9363 30.9496 17.313 32.397 16.9877L32.3932 19.5053V19.5053ZM40.1674 24.645H40.1561L37.9601 25.141C37.7944 24.8193 37.6705 24.4777 37.5914 24.1245C37.2803 24.7845 36.8531 25.5389 35.3096 25.8896C33.669 26.2583 32.7364 25.141 32.5328 24.0623C32.051 21.5165 33.8773 20.2813 35.7462 19.8051C36.4185 19.6344 36.9842 19.5326 37.6216 19.3714L37.5895 18.799C37.5754 18.1022 37.4142 17.2536 36.2402 17.5176C35.1946 17.7524 35.1399 18.4153 35.0465 18.8961L32.8128 19.4015C32.8411 17.8656 33.5115 16.3843 36.1016 15.8016C38.1279 15.3461 39.8129 15.9477 39.7978 18.4417V22.9676C39.8231 23.3471 39.8697 23.7248 39.9374 24.0991C39.9749 24.2951 40.0533 24.4812 40.1674 24.645V24.645ZM37.5877 20.9215C37.1028 21.0306 36.6251 21.1694 36.1573 21.3373C34.9749 21.8238 34.576 22.3745 34.7231 23.1514C34.824 23.6814 35.2059 24.0199 35.914 23.8605C37.4226 23.5211 37.5575 22.0916 37.5829 21.0724L37.5877 20.9215ZM48.0585 19.7061C47.936 21.5391 47.0807 23.224 44.6207 23.7766C42.5133 24.248 41.1461 23.1382 40.7313 20.9479C40.2296 18.2965 40.9877 14.6804 44.0757 13.9874C46.7771 13.3802 47.8473 15.332 47.9595 16.5238L45.8361 17C45.6862 16.2966 45.3402 15.6186 44.3586 15.8393C42.8151 16.1863 42.685 18.8688 42.9631 20.336C43.2035 21.6079 43.7768 22.069 44.566 21.8917C45.2902 21.7296 45.7051 21.1761 45.872 20.1945L48.0585 19.7061V19.7061ZM12.1341 35.9334L9.03858 33.826V38.9969C9.03858 39.1546 8.91067 39.2826 8.75289 39.2826C8.5951 39.2826 8.46719 39.1546 8.46719 38.9969C8.46719 38.9422 8.46059 33.3395 8.46059 32.6596C8.48014 31.9256 7.90097 31.3148 7.16697 31.2952C6.43298 31.2757 5.82211 31.8548 5.80256 32.5888C5.80193 32.6124 5.80193 32.636 5.80256 32.6596V43.7019C5.80463 45.6873 7.41247 47.2968 9.39783 47.301H9.63544C11.5841 47.3005 13.1634 45.7204 13.1628 43.7717L13.1628 43.7594V37.9323C13.1647 37.1648 12.7413 36.3982 12.1351 35.9334H12.1341ZM3.15019 34.2871C2.60081 34.4146 2.2588 34.9633 2.38628 35.5126C2.51375 36.062 3.06245 36.404 3.61182 36.2765C3.61699 36.2753 3.62215 36.2741 3.62729 36.2728L5.17459 35.9013V33.8015L3.15019 34.2871ZM3.15019 36.9923C2.60081 37.1197 2.2588 37.6684 2.38628 38.2178C2.51375 38.7672 3.06245 39.1092 3.61182 38.9817C3.61699 38.9805 3.62215 38.9793 3.62729 38.978L5.17459 38.6065V36.5076L3.15019 36.9923ZM2.39587 40.9289C2.52809 41.4769 3.07904 41.8144 3.62729 41.6832L5.17459 41.3117V39.2128L3.15019 39.6984C2.60231 39.8301 2.26473 40.3808 2.39587 40.9289Z" fill="#2D2926"/>
</g>
<defs>
<clipPath id="clip0_367_3097">
<rect width="50" height="50" fill="white" transform="translate(0 0.5)"/>
</clipPath>
</defs>
</svg>
