<svg width="25" height="24" viewBox="0 0 25 24" fill="none" xmlns="http://www.w3.org/2000/svg">
<path fill-rule="evenodd" clip-rule="evenodd" d="M23.6252 9.60502H22.0257C21.9732 9.60502 21.9212 9.61541 21.8726 9.63552C21.8241 9.65563 21.78 9.68508 21.7428 9.72224C21.7056 9.7594 21.6762 9.80349 21.656 9.85204C21.6359 9.90059 21.6256 9.95269 21.6256 10.0052V13.5995H19.1911C19.2127 13.0675 19.2258 12.5368 19.2258 12C19.2258 11.0523 19.1935 10.1274 19.1252 9.17256C19.0629 8.31114 18.9766 7.4952 18.8676 6.744C18.6729 5.08567 18.2567 3.46098 17.63 1.91335V0.402582C17.63 0.296454 17.5878 0.194632 17.5128 0.119588C17.4377 0.0445434 17.336 0.00244141 17.2298 0.00244141H2.02735C1.92122 0.00244141 1.81944 0.0445434 1.74439 0.119588C1.66935 0.194632 1.62719 0.296454 1.62719 0.402582V1.91452C1.00046 3.46173 0.584202 5.08606 0.389569 6.744C0.275751 7.4928 0.189489 8.31109 0.127189 9.17132C0.0600962 10.1298 0.0265503 11.0511 0.0265503 12C0.0265503 12.9489 0.0588981 13.8726 0.127189 14.8275C0.189489 15.6889 0.275751 16.5048 0.384777 17.256C0.579448 18.9144 0.995699 20.5391 1.6224 22.0867V23.5975C1.6224 23.7036 1.66456 23.8054 1.7396 23.8804C1.81465 23.9555 1.91643 23.9976 2.02256 23.9976H17.2226C17.3288 23.9976 17.4305 23.9555 17.5056 23.8804C17.5806 23.8054 17.6228 23.7036 17.6228 23.5975V22.0903C18.2088 20.6511 18.6082 19.1429 18.8113 17.6023H19.2222V18.8004C19.2233 19.0475 19.3008 19.2883 19.4441 19.4897C19.5873 19.6911 19.7894 19.8433 20.0226 19.9253V21.1989C20.0226 21.305 20.0647 21.4068 20.1398 21.4819C20.2148 21.5569 20.3166 21.5991 20.4227 21.5991H22.0222C22.1283 21.5991 22.2301 21.5569 22.3051 21.4819C22.3802 21.4068 22.4223 21.305 22.4223 21.1989V19.9265C22.6555 19.8444 22.8575 19.6923 23.0008 19.4909C23.1441 19.2895 23.2216 19.0487 23.2226 18.8015V17.6035H23.6228C23.7289 17.6035 23.8307 17.5613 23.9058 17.4862C23.9808 17.4112 24.023 17.3094 24.023 17.2033V10.004C24.0226 9.89849 23.9807 9.7974 23.9062 9.72268C23.8317 9.64796 23.7307 9.60565 23.6252 9.60502ZM22.4271 10.4041H23.225V13.6042H22.4259V10.409L22.4271 10.4041ZM18.0301 16.8031H1.13717C1.07008 16.2951 1.01736 15.7596 0.967045 15.2037H18.3009C18.2554 15.7656 18.1979 16.2951 18.1308 16.8031H18.0277H18.0301ZM5.98461 21.6038C5.96545 21.4409 5.93909 21.2241 5.91034 20.9665V20.9245C5.89716 20.8047 5.88278 20.6741 5.86601 20.5375V20.5028L5.82048 20.0871L5.80251 19.9182C5.79173 19.8163 5.77975 19.7109 5.76896 19.6031C5.76178 19.5432 5.75698 19.4832 5.74979 19.4209C5.73302 19.2676 5.71744 19.1071 5.70067 18.9417C5.69348 18.8782 5.68869 18.8111 5.6815 18.7476C5.66353 18.6278 5.64795 18.508 5.63477 18.3882L5.61441 18.1809C5.59764 18.0012 5.57967 17.8215 5.56289 17.637V17.6059H9.22902V21.6063H5.98222L5.98461 21.6038ZM10.0341 17.6046H13.6979V17.6358C13.6811 17.8203 13.6643 17.9953 13.6464 18.1798L13.626 18.387C13.614 18.5068 13.602 18.6266 13.59 18.7464C13.5829 18.8111 13.5769 18.877 13.5709 18.9405C13.5541 19.1034 13.5373 19.264 13.5218 19.4197C13.5146 19.482 13.5098 19.5396 13.5026 19.6031C13.4918 19.7145 13.4798 19.8151 13.469 19.9169L13.4511 20.0859L13.4055 20.5016V20.5364C13.39 20.6729 13.3756 20.8023 13.3612 20.9233V20.9652C13.3325 21.2216 13.3061 21.4445 13.2869 21.6027H10.0281L10.0341 17.6046ZM13.2797 2.40819C13.2989 2.57113 13.3253 2.78796 13.354 3.04555V3.08745C13.3684 3.20726 13.3816 3.33784 13.3984 3.47443V3.50923L13.4439 3.92495L13.4619 4.09387C13.4726 4.19571 13.4846 4.30117 13.4954 4.4078C13.5026 4.4689 13.5074 4.52755 13.5146 4.59105C13.5313 4.7444 13.5477 4.90418 13.5637 5.07031L13.5829 5.26197C13.5948 5.38178 13.608 5.50165 13.6188 5.62145L13.6392 5.82869C13.6559 6.00721 13.6739 6.18809 13.6907 6.3726V6.40375H10.0269V2.40577L13.2797 2.40819ZM9.23023 6.40733H5.5581V6.37501C5.57487 6.1913 5.59204 6.01039 5.60961 5.83227L5.62998 5.62504C5.64197 5.50523 5.65514 5.38536 5.66593 5.26555L5.68749 5.07272C5.70427 4.90819 5.72064 4.74841 5.73662 4.59346C5.7438 4.53116 5.74859 4.47363 5.75578 4.41014C5.76657 4.29871 5.77855 4.19812 5.78933 4.09628L5.8073 3.92736L5.85283 3.51157V3.47684C5.8684 3.34026 5.88278 3.21087 5.89716 3.08986V3.04796C5.92591 2.79037 5.95227 2.56867 5.97144 2.41053H9.22663V6.40974L9.23023 6.40733ZM18.1272 7.20652C18.1943 7.7145 18.247 8.25 18.2973 8.80591H0.958659C1.00419 8.24401 1.0605 7.7145 1.12879 7.20652H18.1248H18.1272ZM18.4291 11.9988C18.4291 12.8052 18.4039 13.5935 18.3548 14.395H14.7462C14.7462 14.3267 14.7534 14.262 14.7558 14.1949C14.7558 14.0906 14.7666 13.9865 14.7726 13.887C14.7797 13.742 14.7857 13.6042 14.7917 13.4676C14.7917 13.3766 14.8001 13.2855 14.8025 13.1993C14.8025 13.0519 14.8121 12.9118 14.8145 12.7728V12.5691C14.8145 12.369 14.8217 12.1773 14.8217 11.9952C14.8217 11.8131 14.8217 11.6238 14.8145 11.4225V11.2189C14.8145 11.0787 14.8061 10.9385 14.8025 10.7924C14.8025 10.7049 14.7953 10.615 14.7917 10.524C14.7917 10.3874 14.7797 10.2484 14.7726 10.1046C14.7726 10.004 14.763 9.90099 14.7558 9.79676C14.7558 9.72966 14.7486 9.66498 14.7462 9.59669H18.3524C18.4004 10.4006 18.4255 11.1889 18.4255 11.9929L18.4291 11.9988ZM5.31728 14.395C5.31728 14.3183 5.3077 14.2392 5.30411 14.1697C5.30411 14.0691 5.29332 13.9697 5.28853 13.8714C5.28134 13.7253 5.27535 13.5875 5.26936 13.4485C5.26936 13.3622 5.26097 13.2736 5.25858 13.1897C5.25858 13.0435 5.24899 12.9058 5.2466 12.768V12.5643C5.2466 12.3666 5.23941 12.1773 5.23941 12.0012C5.23941 11.8251 5.23941 11.6346 5.2466 11.4393V11.2476C5.2466 11.1099 5.25498 10.9733 5.25858 10.8271C5.25858 10.742 5.26577 10.6546 5.26936 10.5671C5.26936 10.4282 5.28134 10.2904 5.28853 10.1454C5.28853 10.0472 5.29931 9.94534 5.30411 9.8459C5.30411 9.77042 5.31369 9.69129 5.31728 9.6206H9.22902V14.4129H5.31489L5.31728 14.395ZM0.829266 11.9988C0.829266 11.1925 0.854426 10.4042 0.903548 9.60268H4.50858C4.50858 9.67097 4.50139 9.73446 4.49899 9.80275C4.49899 9.90818 4.48821 10.0136 4.48222 10.1154C4.47503 10.2568 4.46904 10.3958 4.46305 10.53C4.46305 10.621 4.45586 10.7133 4.45227 10.8008C4.45227 10.9469 4.44268 11.0847 4.44029 11.2225V11.4321C4.44029 11.6322 4.4331 11.8227 4.4331 12.0024C4.4331 12.1821 4.4331 12.375 4.44029 12.5739V12.7836C4.44029 12.9213 4.44747 13.0591 4.45227 13.2053C4.45227 13.2927 4.45946 13.385 4.46305 13.4761C4.46305 13.6114 4.47383 13.7492 4.48222 13.8906C4.48222 13.9924 4.49181 14.0978 4.49899 14.2033C4.49899 14.2704 4.50618 14.3339 4.50858 14.4034H0.90115C0.852029 13.5982 0.826869 12.8051 0.826869 12.0048L0.829266 11.9988ZM10.0281 9.60268H13.9447C13.9447 9.67936 13.9543 9.75722 13.9579 9.82791C13.9579 9.92855 13.9686 10.0279 13.9734 10.1262C13.9806 10.2724 13.9866 10.4102 13.9926 10.548C13.9926 10.6354 14.001 10.7241 14.0034 10.8079C14.0034 10.9541 14.013 11.0919 14.0154 11.2285V11.4333C14.0154 11.631 14.0226 11.8203 14.0226 11.9964C14.0226 12.1726 14.0226 12.363 14.0154 12.5583V12.7632C14.0154 12.901 14.007 13.0375 14.0034 13.1837C14.0034 13.2688 13.9962 13.3563 13.9926 13.4437C13.9926 13.5827 13.9806 13.7205 13.9734 13.8654C13.9734 13.9637 13.9639 14.0655 13.9579 14.165C13.9579 14.2404 13.9483 14.3195 13.9447 14.3902H10.0269V9.59786L10.0281 9.60268ZM14.5006 6.40375V6.3726C14.4814 6.17132 14.4634 5.97124 14.4443 5.77355V5.72324C14.4275 5.54832 14.4107 5.37822 14.394 5.21049C14.3919 5.17038 14.3879 5.13035 14.382 5.09064C14.3448 4.71803 14.3077 4.37182 14.2694 4.04115V4.01116L14.2178 3.53914C14.1663 3.06949 14.1208 2.68136 14.0884 2.41418H16.9758C17.4713 3.70365 17.8201 5.04472 18.0158 6.41216L14.5006 6.40375ZM2.42871 0.803894H16.8273V1.60425H2.42751V0.803894H2.42871ZM2.28853 2.40336H5.17591C5.14356 2.67652 5.09804 3.06473 5.04652 3.52839L4.995 4.00042V4.03157C4.95986 4.35665 4.92232 4.70646 4.88238 5.08106C4.88042 5.12117 4.87642 5.1612 4.8704 5.20091C4.85363 5.36864 4.83686 5.53997 4.82008 5.7125V5.76281C4.80091 5.95809 4.78294 6.15697 4.76377 6.36185V6.393H1.2474C1.44499 5.02945 1.79378 3.69213 2.28733 2.40577L2.28853 2.40336ZM4.75299 17.5975V17.6286C4.77215 17.8299 4.79013 18.03 4.8093 18.2277V18.2768C4.82607 18.4517 4.84284 18.623 4.85962 18.7907L4.8716 18.9106C4.90994 19.2832 4.94588 19.6354 4.98422 19.9601V19.9936L5.03573 20.4645C5.08725 20.9341 5.13278 21.3223 5.16513 21.5894H2.28973C1.7943 20.3 1.44546 18.9589 1.24979 17.5915L4.75299 17.5975ZM16.8249 23.1961H2.42751V22.4018H16.8273L16.8249 23.1961ZM16.9639 21.5967H14.0777C14.11 21.3235 14.1555 20.9353 14.2071 20.4716L14.2586 20.0008V19.9673C14.2933 19.6414 14.3305 19.2927 14.3712 18.9177L14.3832 18.798C14.4 18.6302 14.4167 18.4601 14.4335 18.284V18.2348C14.4527 18.0395 14.4706 17.8406 14.4898 17.6358V17.6046H17.9978C17.8027 18.9699 17.4563 20.3092 16.965 21.5978L16.9639 21.5967ZM21.6244 20.7963H20.8253V19.9972H21.6268L21.6244 20.7963ZM22.4247 18.7967C22.4247 18.8493 22.4144 18.9014 22.3943 18.9499C22.3741 18.9985 22.3447 19.0425 22.3075 19.0797C22.2704 19.1169 22.2262 19.1463 22.1777 19.1664C22.1291 19.1865 22.0771 19.1969 22.0246 19.1969H20.4251C20.319 19.1969 20.2172 19.1548 20.1422 19.0797C20.0671 19.0047 20.025 18.9028 20.025 18.7967V17.5986H22.4211V18.7967H22.4247ZM23.225 16.7971H18.9275C19.0074 16.1749 19.0721 15.518 19.1216 14.8263C19.1312 14.6825 19.1348 14.5412 19.1444 14.3986H23.2178L23.225 16.7971ZM9.22663 7.60541H10.0269V8.4046H9.22663V7.60541ZM4.42711 7.60541H5.22743V8.4046H4.42711V7.60541ZM14.0261 7.60541H14.8265V8.4046H14.0273V7.60541H14.0261ZM9.22543 15.6038H10.0258V16.3994H9.22663V15.6003L9.22543 15.6038ZM4.42591 15.6038H5.22623V16.3994H4.42711V15.6003L4.42591 15.6038ZM14.025 15.6038H14.8265V16.3994H14.0273V15.6003L14.025 15.6038Z" fill="black"/>
</svg>
