<svg width="250" height="673" viewBox="0 0 250 673" fill="none" xmlns="http://www.w3.org/2000/svg">
<g clip-path="url(#clip0_9_751)">
<path d="M79.0781 299.428H158.475C166.404 299.428 171.698 304.257 171.698 312.6V367.409C171.698 377.048 166.404 380.559 158.475 380.559H79.0781V299.428ZM79.0781 161.31H158.475C166.404 161.31 171.698 164.816 171.698 174.463V224.892C171.698 234.534 167.29 238.047 158.911 238.047H79.0781L79.0781 161.31ZM6.30639 95.5213C3.66659 95.5213 1.8941 96.8376 1.8941 99.9174V441.952C1.8941 444.579 3.2212 446.341 6.30639 446.341H169.494C218.453 446.341 248.877 423.974 248.877 367.409V330.13C248.877 297.238 242.259 279.705 211.392 268.74C241.382 259.969 248.877 242.867 248.877 208.666V174.463C248.877 117.883 218.453 95.5213 169.494 95.5213H6.30639Z" fill="url(#paint0_linear_9_751)"/>
<path d="M6.1952 55.1149H231.631C234.11 55.1149 235.824 53.4902 235.824 50.7918V18.8559C235.812 13.8526 233.814 9.05826 230.27 5.52371C226.725 1.98916 221.922 0.00278979 216.914 3.16966e-07H20.8508C15.8481 -0.00091478 11.0492 1.97965 7.50587 5.50758C3.96252 9.03551 1.96384 13.823 1.94792 18.8206V50.7918C1.90418 51.3638 1.98339 51.9385 2.18025 52.4774C2.3771 53.0164 2.68705 53.507 3.0893 53.9164C3.49155 54.3259 3.97679 54.6446 4.51248 54.8513C5.04816 55.058 5.6219 55.1479 6.1952 55.1149Z" fill="white"/>
<path d="M17.7324 570.178H34.8387C35.22 570.146 35.6037 570.198 35.963 570.329C36.3224 570.461 36.6489 570.668 36.9199 570.938C37.1909 571.208 37.4 571.533 37.5326 571.892C37.6652 572.251 37.7181 572.634 37.6878 573.015V584.825C37.6878 586.901 36.5475 587.659 34.8387 587.659H17.7324V570.178ZM17.7324 540.418H34.8387C36.5475 540.418 37.6878 541.173 37.6878 543.252V554.117C37.6878 556.194 36.7381 556.951 34.9323 556.951H17.7324V540.418ZM2.05295 526.244C1.92464 526.228 1.79434 526.241 1.67196 526.283C1.54958 526.325 1.43832 526.394 1.34666 526.485C1.25499 526.576 1.18532 526.687 1.14294 526.809C1.10056 526.931 1.08658 527.061 1.10207 527.189V600.886C1.0867 601.015 1.10076 601.145 1.14318 601.267C1.18561 601.389 1.25528 601.499 1.34692 601.59C1.43856 601.682 1.54976 601.751 1.67209 601.792C1.79442 601.834 1.92466 601.848 2.05295 601.832H37.2129C47.7626 601.832 54.3157 597.014 54.3157 584.825V576.793C54.3157 569.706 52.8911 565.928 46.2409 563.566C52.7029 561.675 54.3157 557.99 54.3157 550.621V543.252C54.3157 531.062 47.7626 526.244 37.2129 526.244H2.05295Z" fill="white"/>
<path d="M65.1372 601.831H112.651C113.316 601.831 113.601 601.546 113.601 600.886V588.132C113.601 587.565 113.412 587.185 112.651 587.185H80.8166V570.652H106C106.664 570.652 106.95 570.367 106.95 569.706V557.423C106.95 556.855 106.76 556.479 106 556.479H80.8166V540.418H112.651C113.316 540.418 113.604 540.134 113.604 539.472V527.189C113.604 526.623 113.412 526.244 112.651 526.244H65.1383C65.01 526.228 64.8797 526.241 64.7573 526.283C64.635 526.325 64.5237 526.394 64.432 526.485C64.3404 526.576 64.2707 526.687 64.2283 526.809C64.1859 526.931 64.172 527.061 64.1875 527.189L64.1863 600.886C64.1708 601.014 64.1848 601.144 64.2272 601.266C64.2696 601.389 64.3392 601.499 64.4309 601.59C64.5226 601.682 64.6338 601.751 64.7562 601.792C64.8786 601.834 65.0089 601.847 65.1372 601.831" fill="white"/>
<path d="M124.443 601.831H171.953C172.62 601.831 172.905 601.546 172.905 600.886V588.132C172.905 587.565 172.716 587.185 171.953 587.185H140.122V570.652H165.304C165.968 570.652 166.253 570.367 166.253 569.706V557.423C166.253 556.855 166.062 556.479 165.304 556.479H140.122V540.418H171.953C172.62 540.418 172.905 540.134 172.905 539.472V527.189C172.905 526.623 172.716 526.244 171.953 526.244H124.443C124.315 526.228 124.185 526.241 124.062 526.282C123.939 526.324 123.828 526.393 123.736 526.484C123.644 526.575 123.574 526.686 123.532 526.808C123.49 526.931 123.476 527.061 123.491 527.189V600.886C123.476 601.014 123.49 601.145 123.532 601.267C123.574 601.389 123.644 601.5 123.736 601.591C123.828 601.682 123.939 601.751 124.062 601.793C124.185 601.835 124.315 601.848 124.443 601.831" fill="white"/>
<path d="M219.028 558.369C219.028 560.446 217.984 561.202 216.178 561.202H199.073V540.417H216.178C217.984 540.417 219.028 541.173 219.028 543.252L219.028 558.369ZM237.083 600.413L226.536 573.11C233.092 570.368 235.659 566.59 235.659 556.48V542.306C235.278 530.779 228.913 526.243 218.553 526.243H183.394C183.266 526.227 183.135 526.241 183.013 526.283C182.891 526.324 182.779 526.394 182.687 526.485C182.596 526.576 182.526 526.687 182.483 526.809C182.441 526.931 182.427 527.061 182.442 527.19V600.885C182.427 601.014 182.441 601.144 182.483 601.266C182.525 601.389 182.595 601.5 182.687 601.591C182.779 601.682 182.89 601.751 183.013 601.793C183.135 601.835 183.266 601.848 183.394 601.832H198.123C198.251 601.848 198.381 601.834 198.504 601.792C198.626 601.751 198.737 601.681 198.829 601.59C198.92 601.499 198.99 601.388 199.032 601.266C199.074 601.144 199.088 601.014 199.073 600.885V575.374H210.947L219.599 600.413C220.071 601.832 220.55 601.832 221.977 601.832H236.133C236.608 601.832 237.179 601.641 237.179 600.981C237.181 600.788 237.148 600.596 237.083 600.413" fill="white"/>
<path d="M88.0768 612.744H47.8034C47.6779 612.732 47.5513 612.748 47.4327 612.791C47.3141 612.834 47.2062 612.902 47.1169 612.991C47.0276 613.079 46.959 613.187 46.9159 613.305C46.8729 613.424 46.8564 613.55 46.8678 613.675V623.516C46.8565 623.641 46.8731 623.768 46.9162 623.886C46.9593 624.004 47.0279 624.112 47.1172 624.201C47.2065 624.289 47.3142 624.358 47.4328 624.4C47.5514 624.443 47.6779 624.459 47.8034 624.447H61.2794V670.983C61.2679 671.108 61.2841 671.235 61.3271 671.353C61.37 671.472 61.4385 671.579 61.5277 671.668C61.6169 671.757 61.7246 671.825 61.8432 671.868C61.9618 671.911 62.0883 671.927 62.2138 671.915H73.6652C73.791 671.927 73.9178 671.911 74.0367 671.869C74.1556 671.826 74.2637 671.758 74.3532 671.669C74.4427 671.58 74.5116 671.472 74.5548 671.354C74.598 671.235 74.6145 671.109 74.6032 670.983V624.447H88.0768C88.2026 624.46 88.3298 624.445 88.449 624.403C88.5682 624.361 88.6766 624.293 88.7662 624.204C88.8558 624.114 88.9244 624.006 88.967 623.887C89.0096 623.769 89.0251 623.642 89.0125 623.516V613.675C89.0238 613.55 89.0074 613.424 88.9643 613.305C88.9213 613.187 88.8526 613.079 88.7633 612.991C88.674 612.902 88.5662 612.834 88.4476 612.791C88.3289 612.748 88.2024 612.732 88.0768 612.744" fill="white"/>
<path d="M118.59 661.528H112.308C109.254 661.528 107.704 659.985 107.704 656.948V627.636C107.704 624.596 109.254 623.057 112.308 623.057H118.59C120.692 623.057 123.194 623.851 123.194 627.636V656.948C123.194 659.985 121.645 661.528 118.59 661.528V661.528ZM131.483 615.593C128.393 612.971 123.805 611.643 117.852 611.643H113.048C107.133 611.643 102.527 613.08 99.3577 615.907C96.0524 618.86 94.3788 623.273 94.3788 629.03V656.948C94.3788 662.424 96.1121 666.562 99.5331 669.244C102.662 671.697 107.209 672.939 113.048 672.939H117.852C123.692 672.939 128.236 671.697 131.366 669.244C134.787 666.562 136.519 662.424 136.519 656.948V628.738C136.519 622.85 134.826 618.427 131.483 615.593" fill="white"/>
<path d="M174.629 626.167V637.924C174.629 639.327 174.026 639.928 172.612 639.928H159.506V624.158H172.612C174.026 624.158 174.629 624.759 174.629 626.167L174.629 626.167ZM180.917 649.49C183.573 648.353 185.234 647.014 186.292 645.162C187.441 643.158 187.954 640.469 187.954 636.449V625.424C187.67 616.892 183.259 612.744 174.457 612.744H147.116C146.99 612.732 146.864 612.748 146.745 612.79C146.626 612.833 146.518 612.901 146.429 612.99C146.339 613.079 146.271 613.186 146.228 613.305C146.184 613.423 146.168 613.55 146.179 613.675V670.983C146.168 671.108 146.184 671.235 146.227 671.353C146.271 671.472 146.339 671.579 146.429 671.668C146.518 671.757 146.626 671.825 146.745 671.868C146.863 671.911 146.99 671.927 147.116 671.915H158.57C158.695 671.927 158.822 671.911 158.941 671.868C159.059 671.825 159.167 671.757 159.257 671.668C159.346 671.579 159.415 671.472 159.458 671.353C159.501 671.235 159.518 671.108 159.506 670.983V651.343H168.405L175.082 670.675C175.498 671.915 176.003 671.915 177.117 671.915H188.126C188.749 671.915 189.135 671.585 189.135 671.054C189.136 670.879 189.107 670.706 189.048 670.542L180.917 649.49Z" fill="white"/>
<path d="M234.735 612.755H197.787C197.662 612.743 197.537 612.759 197.42 612.801C197.302 612.843 197.195 612.91 197.107 612.998C197.018 613.086 196.95 613.192 196.908 613.309C196.865 613.427 196.849 613.552 196.86 613.676V670.982C196.849 671.106 196.865 671.231 196.908 671.349C196.951 671.466 197.019 671.572 197.107 671.66C197.195 671.748 197.302 671.816 197.42 671.858C197.537 671.9 197.662 671.916 197.787 671.904H234.735C234.861 671.923 234.989 671.912 235.11 671.873C235.231 671.833 235.34 671.766 235.43 671.676C235.52 671.587 235.588 671.477 235.628 671.357C235.668 671.236 235.679 671.108 235.66 670.982V661.065C235.679 660.939 235.668 660.81 235.628 660.689C235.589 660.569 235.521 660.459 235.431 660.369C235.341 660.279 235.231 660.211 235.11 660.171C234.989 660.131 234.861 660.12 234.735 660.139H210.168V647.659H229.563C229.688 647.678 229.817 647.668 229.937 647.628C230.058 647.588 230.168 647.521 230.257 647.431C230.347 647.342 230.415 647.232 230.454 647.111C230.494 646.991 230.505 646.863 230.486 646.737V637.183C230.505 637.058 230.494 636.93 230.454 636.81C230.414 636.689 230.347 636.58 230.257 636.49C230.167 636.401 230.058 636.333 229.937 636.294C229.816 636.254 229.688 636.244 229.563 636.263H210.168V624.148H234.735C234.86 624.168 234.989 624.157 235.11 624.118C235.23 624.078 235.34 624.011 235.43 623.922C235.52 623.832 235.588 623.722 235.628 623.602C235.668 623.481 235.679 623.353 235.66 623.228V613.676C235.679 613.55 235.668 613.422 235.628 613.301C235.589 613.181 235.521 613.071 235.431 612.981C235.341 612.892 235.231 612.825 235.11 612.785C234.989 612.746 234.86 612.736 234.735 612.755Z" fill="white"/>
<path d="M27.9261 637.327L18.3332 634.023C14.9789 632.916 13.6736 631.219 13.6736 627.974V627.612C13.6736 624.577 15.221 623.039 18.2712 623.039H24.9121C27.9636 623.039 29.511 624.577 29.511 627.612V629.81C29.4993 629.935 29.5155 630.062 29.5583 630.18C29.6012 630.298 29.6696 630.406 29.7587 630.495C29.8478 630.584 29.9554 630.652 30.0739 630.694C30.1924 630.737 30.3189 630.753 30.4443 630.741H41.512C41.6374 630.753 41.7639 630.737 41.8824 630.694C42.0009 630.652 42.1085 630.584 42.1976 630.495C42.2867 630.406 42.3551 630.298 42.3979 630.18C42.4408 630.062 42.4569 629.935 42.4453 629.81V628.637C42.4453 617.361 36.1752 611.643 23.8045 611.643H19.0092C13.0876 611.643 8.47832 613.085 5.31343 615.929C2.03276 618.878 0.368438 623.275 0.368438 629.007C0.594168 639.044 4.93917 642.275 15.2561 646.134L24.8466 649.429C28.2033 650.621 29.5109 652.317 29.5109 655.483V656.949C29.5109 659.983 27.9636 661.521 24.9121 661.521H17.5356C14.483 661.521 12.9356 659.983 12.9356 656.949V653.648C12.9471 653.523 12.9307 653.397 12.8877 653.278C12.8448 653.16 12.7762 653.053 12.687 652.964C12.5978 652.875 12.4901 652.807 12.3715 652.765C12.253 652.722 12.1265 652.706 12.0011 652.718H0.934516C0.809175 652.706 0.68279 652.722 0.564326 652.765C0.445861 652.807 0.33822 652.876 0.249037 652.964C0.159853 653.053 0.091313 653.16 0.0482773 653.279C0.00524164 653.397 -0.0112351 653.523 1.57489e-05 653.648V655.556C1.57489e-05 661.555 1.67487 666.045 4.97542 668.909C8.08651 671.607 12.5555 672.917 18.6408 672.917H24.1729C30.1483 672.917 34.7354 671.569 37.8114 668.909C41.1319 666.039 42.8149 661.547 42.8149 655.556C42.8149 644.686 38.9144 641.331 27.9261 637.327Z" fill="white"/>
</g>
<defs>
<linearGradient id="paint0_linear_9_751" x1="-32.3449" y1="131.981" x2="245.555" y2="410.157" gradientUnits="userSpaceOnUse">
<stop stop-color="#E08727"/>
<stop offset="0.52021" stop-color="#F9C048"/>
<stop offset="1" stop-color="#FFF0A5"/>
</linearGradient>
<clipPath id="clip0_9_751">
<rect width="250" height="672.939" fill="white"/>
</clipPath>
</defs>
</svg>
