<svg width="120" height="120" viewBox="0 0 120 120" fill="none" xmlns="http://www.w3.org/2000/svg">
<path d="M48 7.20001C70.5048 7.20001 88.8 25.4952 88.8 48C88.8 58.3875 84.8953 67.866 78.4874 75.0744L112.087 108.674C112.556 109.12 112.823 109.734 112.833 110.376C112.842 111.023 112.594 111.642 112.139 112.101C111.684 112.56 111.066 112.818 110.423 112.814C109.776 112.814 109.162 112.551 108.712 112.087L75.0752 78.4497C67.8658 84.867 58.3928 88.7997 48.0008 88.7997C25.496 88.7997 7.2008 70.5045 7.2008 47.9997C7.2008 25.4949 25.4952 7.20001 48 7.20001ZM48 12C28.0872 12 12 28.0872 12 48C12 67.9128 28.0872 84 48 84C67.9128 84 84 67.9128 84 48C84 28.0872 67.9128 12 48 12Z" fill="black"/>
<path fill-rule="evenodd" clip-rule="evenodd" d="M43.3536 60L44.3431 60L48.5 60L38.1443 31H33.2412L22.5 60L23.5 60L27.3895 60L27.3899 60L30.4281 51.6172H40.4784L43.3536 60ZM35.5934 37.3591L31.9124 47.5188H39.0736L35.5934 37.3591ZM69.265 56.2205C69.265 56.4356 69.2956 56.6072 69.3568 56.7338C69.3625 56.7422 69.3684 56.7506 69.3744 56.7589C69.3943 56.787 69.4173 56.8131 69.4433 56.8373C69.509 56.8696 69.6471 56.9077 69.8942 56.9077C70.0283 56.9077 70.1814 56.8992 70.351 56.8822C70.5289 56.8653 70.7149 56.837 70.9146 56.8002L71.5 56.6956V56.9617V59.4269V60.273L71.1389 60.3776C70.5863 60.5416 70.1705 60.6406 69.8696 60.6859C69.5687 60.7283 69.1802 60.7481 68.6769 60.7481C67.3391 60.7481 66.3462 60.239 65.7252 59.2294C65.5392 58.9268 65.3915 58.5677 65.2738 58.1378C64.6173 58.7996 63.7993 59.3935 62.8255 59.9138C61.4741 60.6349 59.964 60.9997 58.3391 60.9997L58.339 61C56.353 61 54.7006 60.3609 53.4259 59.1052C52.1483 57.8411 51.5 56.2405 51.5 54.3486C51.5 54.3089 51.5002 54.2693 51.5007 54.2299C51.5002 54.1972 51.5 54.1645 51.5 54.1316C51.5 53.3784 51.6025 52.6942 51.808 52.0793C52.1155 51.0503 52.652 50.1832 53.4122 49.4873C54.646 48.3646 56.2764 47.6633 58.2542 47.4059L63.6379 46.7074C64.237 46.6282 64.62 46.3907 64.8088 45.9891C64.8881 45.8194 64.9838 45.4914 64.9838 44.8664C64.9838 43.8512 64.6583 43.1413 63.9853 42.7002C63.2522 42.2166 62.1607 41.9734 60.7437 41.9734C59.1543 41.9734 58.0245 42.4061 57.3925 43.2544C57.0369 43.7239 56.7989 44.4592 56.6867 45.4376L56.6348 45.8901H52.5341L52.5477 45.3641C52.6161 42.6266 53.5025 40.6809 55.1876 39.5865C56.8043 38.5345 58.7001 38 60.8202 38C63.2631 38 65.2874 38.4949 66.833 39.4705C68.447 40.4971 69.265 42.1062 69.265 44.2526V56.2205ZM66.8887 59.0924C67.2434 59.442 67.7114 59.6439 68.3022 59.7017C67.74 59.6094 67.2687 59.4063 66.8887 59.0924ZM64.899 50.0703C64.609 50.1976 64.2835 50.3079 63.9333 50.4069C63.2658 50.5963 62.6011 50.7292 61.9555 50.8113L59.9202 51.0799C58.7686 51.2383 57.8986 51.4843 57.3405 51.8123C56.4542 52.327 56.0247 53.1302 56.0247 54.2698C56.0247 55.1183 56.312 55.763 56.9056 56.2466C57.5348 56.7585 58.2624 57.0074 59.1324 57.0074C60.2375 57.0074 61.3263 56.7387 62.3631 56.207C64.0701 55.3473 64.899 53.9871 64.899 52.0386L64.899 50.0703Z" fill="black"/>
</svg>
