<svg width="32" height="32" viewBox="0 0 32 32" fill="none" xmlns="http://www.w3.org/2000/svg">
<path d="M12.8001 1.91992C18.8013 1.91992 23.6801 6.79864 23.6801 12.7999C23.6801 15.5699 22.6388 18.0975 20.9301 20.0198L29.8901 28.9798C30.015 29.0985 30.0863 29.2623 30.0888 29.4335C30.0913 29.606 30.025 29.771 29.9038 29.8935C29.7825 30.016 29.6176 30.0848 29.4463 30.0835C29.2738 30.0835 29.11 30.0135 28.99 29.8898L20.0201 20.9199C18.0976 22.6311 15.5715 23.6799 12.8003 23.6799C6.799 23.6799 1.92028 18.8011 1.92028 12.7999C1.92028 6.79857 6.79879 1.91992 12.8001 1.91992ZM12.8001 3.19992C7.48999 3.19992 3.20007 7.48984 3.20007 12.7999C3.20007 18.11 7.48999 22.3999 12.8001 22.3999C18.1101 22.3999 22.4001 18.11 22.4001 12.7999C22.4001 7.48984 18.1101 3.19992 12.8001 3.19992Z" fill="white" stroke="white"/>
<path fill-rule="evenodd" clip-rule="evenodd" d="M11.7197 15.3907H12.868L10.5574 8.91992H9.46337L7.67563 13.7466L7.06669 15.3628H7.07702L7.06669 15.3907H8.15767L8.8242 13.5202H11.0746L11.2863 14.127L11.7197 15.3907ZM10.756 12.6057H9.14989L9.96171 10.3273L10.756 12.6057ZM17.5013 14.5473C17.5013 14.5953 17.5081 14.6336 17.5218 14.6619L17.5257 14.6675C17.5302 14.6737 17.5353 14.6796 17.5411 14.685C17.5558 14.6922 17.5866 14.7007 17.6417 14.7007C17.6716 14.7007 17.7058 14.6988 17.7436 14.695C17.7833 14.6912 17.8248 14.6849 17.8694 14.6767L18 14.6533V14.7127V15.2628V15.4516L17.9194 15.4749C17.7961 15.5115 17.7034 15.5336 17.6362 15.5437C17.5691 15.5532 17.4824 15.5576 17.3701 15.5576C17.0716 15.5576 16.85 15.444 16.7115 15.2187C16.67 15.1512 16.637 15.0711 16.6108 14.9751C16.4643 15.1228 16.2818 15.2553 16.0645 15.3714C15.7629 15.5323 15.426 15.6138 15.0634 15.6138C14.6203 15.6138 14.2516 15.4712 13.9671 15.191C13.6821 14.9089 13.5374 14.5518 13.5374 14.1297L13.5376 14.1032L13.5374 14.0813C13.5374 13.9132 13.5603 13.7605 13.6062 13.6233C13.6748 13.3937 13.7945 13.2002 13.9641 13.045C14.2394 12.7945 14.6032 12.638 15.0445 12.5806L16.2457 12.4247C16.3794 12.407 16.4649 12.354 16.507 12.2644C16.5247 12.2266 16.5461 12.1534 16.5461 12.0139C16.5461 11.7874 16.4734 11.629 16.3233 11.5306C16.1597 11.4227 15.9161 11.3684 15.6 11.3684C15.2453 11.3684 14.9932 11.4649 14.8522 11.6542C14.7729 11.759 14.7198 11.923 14.6947 12.1414L14.6831 12.2423H13.7682L13.7712 12.125C13.7865 11.5142 13.9842 11.08 14.3602 10.8358C14.721 10.6011 15.144 10.4818 15.617 10.4818C16.1621 10.4818 16.6138 10.5922 16.9587 10.8099C17.3188 11.039 17.5013 11.398 17.5013 11.877V14.5473ZM16.5271 13.1751C16.4624 13.2035 16.3898 13.2281 16.3117 13.2502C16.1627 13.2924 16.0144 13.3221 15.8703 13.3404L15.4162 13.4003C15.1592 13.4357 14.9651 13.4906 14.8406 13.5638C14.6429 13.6786 14.547 13.8578 14.547 14.1121C14.547 14.3014 14.6111 14.4453 14.7436 14.5532C14.884 14.6674 15.0463 14.7229 15.2404 14.7229C15.487 14.7229 15.73 14.663 15.9613 14.5443C16.3422 14.3525 16.5271 14.049 16.5271 13.6142L16.5271 13.1751Z" fill="white"/>
<path d="M12.868 15.3907L12.9622 15.357L13.0099 15.4907H12.868V15.3907ZM11.7197 15.3907V15.4907H11.6483L11.6251 15.4231L11.7197 15.3907ZM10.5574 8.91992V8.81992H10.6279L10.6516 8.88629L10.5574 8.91992ZM9.46337 8.91992L9.36959 8.88519L9.39377 8.81992H9.46337V8.91992ZM7.67563 13.7466L7.76941 13.7813L7.76921 13.7818L7.67563 13.7466ZM7.06669 15.3628V15.4628H6.92215L6.97311 15.3275L7.06669 15.3628ZM7.07702 15.3628V15.2628H7.2207L7.1708 15.3975L7.07702 15.3628ZM7.06669 15.3907V15.4907H6.92301L6.97292 15.3559L7.06669 15.3907ZM8.15767 15.3907L8.25187 15.4242L8.22819 15.4907H8.15767V15.3907ZM8.8242 13.5202L8.73001 13.4867L8.75368 13.4202H8.8242V13.5202ZM11.0746 13.5202V13.4202H11.1457L11.1691 13.4873L11.0746 13.5202ZM11.2863 14.127L11.3807 14.0941L11.3809 14.0946L11.2863 14.127ZM9.14989 12.6057V12.7057H9.0081L9.05569 12.5722L9.14989 12.6057ZM10.756 12.6057L10.8504 12.5728L10.8967 12.7057H10.756V12.6057ZM9.96171 10.3273L9.86751 10.2937L9.96274 10.0264L10.0561 10.2943L9.96171 10.3273ZM17.5218 14.6619L17.4399 14.7193L17.4353 14.7126L17.4317 14.7054L17.5218 14.6619ZM17.5257 14.6675L17.4442 14.7254L17.4438 14.7249L17.5257 14.6675ZM17.5411 14.685L17.4969 14.7747L17.4837 14.7682L17.4729 14.7582L17.5411 14.685ZM17.7436 14.695L17.7337 14.5955L17.7341 14.5954L17.7436 14.695ZM17.8694 14.6767L17.8513 14.5783L17.8518 14.5783L17.8694 14.6767ZM18 14.6533L17.9824 14.5549L18.1 14.5339V14.6533H18ZM18 15.4516H18.1V15.5267L18.0278 15.5476L18 15.4516ZM17.9194 15.4749L17.891 15.379L17.8916 15.3789L17.9194 15.4749ZM17.6362 15.5437L17.6511 15.6426L17.6502 15.6427L17.6362 15.5437ZM16.7115 15.2187L16.6263 15.2711L16.6263 15.2711L16.7115 15.2187ZM16.6108 14.9751L16.5398 14.9047L16.6616 14.782L16.7072 14.9488L16.6108 14.9751ZM16.0645 15.3714L16.1116 15.4596L16.1115 15.4596L16.0645 15.3714ZM13.9671 15.191L13.897 15.2623L13.8968 15.2621L13.9671 15.191ZM13.5374 14.1297H13.4374L13.4374 14.1291L13.5374 14.1297ZM13.5376 14.1032L13.6376 14.1024L13.6376 14.1038L13.5376 14.1032ZM13.5374 14.0813L13.4374 14.082V14.0813H13.5374ZM13.6062 13.6233L13.702 13.6519L13.701 13.655L13.6062 13.6233ZM13.9641 13.045L13.8966 12.9712L13.8968 12.971L13.9641 13.045ZM15.0445 12.5806L15.0316 12.4814L15.0316 12.4814L15.0445 12.5806ZM16.2457 12.4247L16.2588 12.5238L16.2586 12.5239L16.2457 12.4247ZM16.507 12.2644L16.5976 12.3068L16.5975 12.307L16.507 12.2644ZM16.3233 11.5306L16.2684 11.6142L16.2682 11.614L16.3233 11.5306ZM14.8522 11.6542L14.9324 11.714L14.9319 11.7146L14.8522 11.6542ZM14.6947 12.1414L14.7941 12.1528L14.7941 12.1528L14.6947 12.1414ZM14.6831 12.2423L14.7825 12.2537L14.7723 12.3423H14.6831V12.2423ZM13.7682 12.2423V12.3423H13.6655L13.6682 12.2397L13.7682 12.2423ZM13.7712 12.125L13.8712 12.1275L13.8712 12.1276L13.7712 12.125ZM14.3602 10.8358L14.4148 10.9196L14.4147 10.9197L14.3602 10.8358ZM16.9587 10.8099L17.012 10.7254L17.0123 10.7256L16.9587 10.8099ZM16.3117 13.2502L16.2843 13.154L16.2845 13.1539L16.3117 13.2502ZM16.5271 13.1751L16.4869 13.0835L16.6271 13.022L16.6271 13.1751L16.5271 13.1751ZM15.8703 13.3404L15.8573 13.2412L15.8577 13.2412L15.8703 13.3404ZM15.4162 13.4003L15.4026 13.3013L15.4031 13.3012L15.4162 13.4003ZM14.8406 13.5638L14.8913 13.65L14.8908 13.6502L14.8406 13.5638ZM14.7436 14.5532L14.6805 14.6307L14.6804 14.6307L14.7436 14.5532ZM15.9613 14.5443L15.9157 14.4553L15.9163 14.455L15.9613 14.5443ZM16.5271 13.6142L16.6271 13.6142V13.6142H16.5271ZM12.868 15.4907H11.7197V15.2907H12.868V15.4907ZM10.6516 8.88629L12.9622 15.357L12.7739 15.4243L10.4632 8.95355L10.6516 8.88629ZM9.46337 8.81992H10.5574V9.01992H9.46337V8.81992ZM7.58186 13.7119L9.36959 8.88519L9.55714 8.95465L7.76941 13.7813L7.58186 13.7119ZM6.97311 15.3275L7.58206 13.7113L7.76921 13.7818L7.16027 15.398L6.97311 15.3275ZM7.07702 15.4628H7.06669V15.2628H7.07702V15.4628ZM6.97292 15.3559L6.98325 15.328L7.1708 15.3975L7.16047 15.4254L6.97292 15.3559ZM8.15767 15.4907H7.06669V15.2907H8.15767V15.4907ZM8.9184 13.5538L8.25187 15.4242L8.06347 15.3571L8.73001 13.4867L8.9184 13.5538ZM11.0746 13.6202H8.8242V13.4202H11.0746V13.6202ZM11.1919 14.1599L10.9802 13.5532L11.1691 13.4873L11.3807 14.0941L11.1919 14.1599ZM11.6251 15.4231L11.1917 14.1594L11.3809 14.0946L11.8143 15.3582L11.6251 15.4231ZM9.14989 12.5057H10.756V12.7057H9.14989V12.5057ZM10.0559 10.3608L9.24409 12.6393L9.05569 12.5722L9.86751 10.2937L10.0559 10.3608ZM10.6615 12.6386L9.86728 10.3602L10.0561 10.2943L10.8504 12.5728L10.6615 12.6386ZM17.4317 14.7054C17.409 14.6582 17.4013 14.6031 17.4013 14.5473H17.6013C17.6013 14.5876 17.6073 14.609 17.6118 14.6183L17.4317 14.7054ZM17.4438 14.7249L17.4399 14.7193L17.6037 14.6044L17.6076 14.6101L17.4438 14.7249ZM17.4729 14.7582C17.4624 14.7483 17.4527 14.7374 17.4442 14.7254L17.6072 14.6096C17.6076 14.6101 17.6082 14.6108 17.6093 14.6118L17.4729 14.7582ZM17.6417 14.8007C17.5783 14.8007 17.5305 14.7912 17.4969 14.7747L17.5853 14.5953C17.5823 14.5938 17.5844 14.5954 17.5943 14.5972C17.6038 14.5989 17.6191 14.6007 17.6417 14.6007V14.8007ZM17.7536 14.7945C17.7132 14.7985 17.6757 14.8007 17.6417 14.8007V14.6007C17.6676 14.6007 17.6983 14.599 17.7337 14.5955L17.7536 14.7945ZM17.8875 14.775C17.8411 14.7836 17.7966 14.7904 17.7531 14.7945L17.7341 14.5954C17.77 14.592 17.8085 14.5862 17.8513 14.5783L17.8875 14.775ZM18.0176 14.7518L17.887 14.7751L17.8518 14.5783L17.9824 14.5549L18.0176 14.7518ZM17.9 14.7127V14.6533H18.1V14.7127H17.9ZM17.9 15.2628V14.7127H18.1V15.2628H17.9ZM17.9 15.4516V15.2628H18.1V15.4516H17.9ZM17.8916 15.3789L17.9722 15.3555L18.0278 15.5476L17.9473 15.571L17.8916 15.3789ZM17.6213 15.4448C17.6818 15.4357 17.7695 15.4151 17.891 15.379L17.9479 15.5708C17.8228 15.6079 17.7249 15.6315 17.6511 15.6426L17.6213 15.4448ZM17.3701 15.4576C17.4805 15.4576 17.5618 15.4532 17.6222 15.4447L17.6502 15.6427C17.5763 15.6531 17.4843 15.6576 17.3701 15.6576V15.4576ZM16.7967 15.1663C16.9143 15.3576 17.1008 15.4576 17.3701 15.4576V15.6576C17.0424 15.6576 16.7858 15.5304 16.6263 15.2711L16.7967 15.1663ZM16.7072 14.9488C16.7316 15.0379 16.7613 15.1088 16.7967 15.1663L16.6263 15.2711C16.5787 15.1936 16.5424 15.1042 16.5143 15.0015L16.7072 14.9488ZM16.0173 15.2832C16.2274 15.171 16.4014 15.0442 16.5398 14.9047L16.6818 15.0456C16.5271 15.2014 16.3361 15.3396 16.1116 15.4596L16.0173 15.2832ZM15.0634 15.5138C15.4106 15.5138 15.7312 15.4359 16.0174 15.2832L16.1115 15.4596C15.7946 15.6288 15.4413 15.7138 15.0634 15.7138V15.5138ZM14.0373 15.1198C14.301 15.3795 14.6435 15.5138 15.0634 15.5138V15.7138C14.597 15.7138 14.2022 15.5629 13.897 15.2623L14.0373 15.1198ZM13.6374 14.1297C13.6374 14.5267 13.7725 14.8577 14.0375 15.1199L13.8968 15.2621C13.5917 14.9602 13.4374 14.577 13.4374 14.1297H13.6374ZM13.6376 14.1038L13.6374 14.1303L13.4374 14.1291L13.4376 14.1026L13.6376 14.1038ZM13.6374 14.0805L13.6376 14.1024L13.4376 14.1039L13.4374 14.082L13.6374 14.0805ZM13.701 13.655C13.6591 13.7805 13.6374 13.9222 13.6374 14.0813H13.4374C13.4374 13.9041 13.4615 13.7405 13.5113 13.5916L13.701 13.655ZM14.0316 13.1187C13.8759 13.2613 13.7656 13.4389 13.702 13.6519L13.5103 13.5947C13.5839 13.3485 13.713 13.1392 13.8966 12.9712L14.0316 13.1187ZM15.0574 12.6797C14.6323 12.735 14.2888 12.8847 14.0314 13.1189L13.8968 12.971C14.19 12.7042 14.574 12.5409 15.0316 12.4814L15.0574 12.6797ZM16.2586 12.5239L15.0574 12.6797L15.0316 12.4814L16.2329 12.3255L16.2586 12.5239ZM16.5975 12.307C16.5361 12.4375 16.4134 12.5034 16.2588 12.5238L16.2326 12.3256C16.3455 12.3107 16.3936 12.2705 16.4165 12.2219L16.5975 12.307ZM16.6461 12.0139C16.6461 12.163 16.6233 12.2518 16.5976 12.3068L16.4164 12.2221C16.4261 12.2014 16.4461 12.1437 16.4461 12.0139H16.6461ZM16.3781 11.4469C16.564 11.5688 16.6461 11.7639 16.6461 12.0139H16.4461C16.4461 11.8109 16.3828 11.6892 16.2684 11.6142L16.3781 11.4469ZM15.6 11.2684C15.9246 11.2684 16.1911 11.3236 16.3783 11.4471L16.2682 11.614C16.1283 11.5217 15.9077 11.4684 15.6 11.4684V11.2684ZM14.772 11.5945C14.9399 11.3691 15.2301 11.2684 15.6 11.2684V11.4684C15.2605 11.4684 15.0465 11.5608 14.9324 11.714L14.772 11.5945ZM14.5954 12.13C14.6212 11.9044 14.6773 11.7195 14.7725 11.5939L14.9319 11.7146C14.8684 11.7985 14.8183 11.9417 14.7941 12.1528L14.5954 12.13ZM14.5838 12.2309L14.5954 12.13L14.7941 12.1528L14.7825 12.2537L14.5838 12.2309ZM13.7682 12.1423H14.6831V12.3423H13.7682V12.1423ZM13.8712 12.1276L13.8681 12.2449L13.6682 12.2397L13.6712 12.1224L13.8712 12.1276ZM14.4147 10.9197C14.0759 11.1397 13.8859 11.5364 13.8712 12.1275L13.6712 12.1225C13.687 11.4919 13.8926 11.0203 14.3058 10.752L14.4147 10.9197ZM15.617 10.5818C15.1614 10.5818 14.7577 10.6965 14.4148 10.9196L14.3057 10.752C14.6842 10.5057 15.1266 10.3818 15.617 10.3818V10.5818ZM16.9053 10.8945C16.5809 10.6898 16.1494 10.5818 15.617 10.5818V10.3818C16.1748 10.3818 16.6467 10.4947 17.012 10.7254L16.9053 10.8945ZM17.4013 11.877C17.4013 11.4273 17.2323 11.1025 16.905 10.8943L17.0123 10.7256C17.4053 10.9755 17.6013 11.3688 17.6013 11.877H17.4013ZM17.4013 14.5473V11.877H17.6013V14.5473H17.4013ZM16.2845 13.1539C16.3597 13.1326 16.4277 13.1095 16.4869 13.0835L16.5673 13.2666C16.4971 13.2974 16.4198 13.3235 16.3389 13.3464L16.2845 13.1539ZM15.8577 13.2412C15.9969 13.2235 16.1403 13.1948 16.2843 13.154L16.339 13.3464C16.1851 13.39 16.0319 13.4207 15.8829 13.4396L15.8577 13.2412ZM15.4031 13.3012L15.8573 13.2412L15.8834 13.4395L15.4293 13.4995L15.4031 13.3012ZM14.7899 13.4775C14.9316 13.3943 15.1414 13.3372 15.4026 13.3013L15.4298 13.4994C15.1771 13.5342 14.9987 13.5869 14.8913 13.65L14.7899 13.4775ZM14.447 14.1121C14.447 13.9724 14.4734 13.847 14.5315 13.7384C14.5899 13.6293 14.6774 13.5429 14.7904 13.4773L14.8908 13.6502C14.8061 13.6994 14.7468 13.7601 14.7078 13.8328C14.6686 13.9061 14.647 13.9975 14.647 14.1121H14.447ZM14.6804 14.6307C14.5219 14.5016 14.447 14.3278 14.447 14.1121H14.647C14.647 14.275 14.7003 14.3889 14.8067 14.4756L14.6804 14.6307ZM15.2404 14.8229C15.0251 14.8229 14.84 14.7605 14.6805 14.6307L14.8067 14.4756C14.9279 14.5742 15.0676 14.6229 15.2404 14.6229V14.8229ZM16.0069 14.6333C15.7622 14.7588 15.5037 14.8229 15.2404 14.8229V14.6229C15.4704 14.6229 15.6977 14.5671 15.9157 14.4554L16.0069 14.6333ZM16.6271 13.6142C16.6271 13.846 16.5777 14.0495 16.4725 14.2224C16.3672 14.3954 16.2102 14.5309 16.0063 14.6336L15.9163 14.455C16.0933 14.3659 16.2192 14.2538 16.3016 14.1184C16.3841 13.9829 16.4271 13.8172 16.4271 13.6142H16.6271ZM16.6271 13.1751L16.6271 13.6142L16.4271 13.6142L16.4271 13.1751L16.6271 13.1751Z" fill="white"/>
</svg>
