<svg width="120" height="120" viewBox="0 0 120 120" fill="none" xmlns="http://www.w3.org/2000/svg">
<path d="M92.4793 89.5547C92.4793 89.5219 92.484 89.4938 92.484 89.461C92.484 89.4469 92.4793 89.4329 92.4793 89.4188L92.409 67.238C92.409 62.5646 88.8417 58.7583 84.459 58.7583C82.7715 58.7583 81.2433 59.2411 79.9824 60.0849C79.3449 56.1615 76.1854 53.2646 72.2574 53.2646C70.5277 53.2646 68.9527 53.8318 67.6683 54.7927C66.7027 51.3755 63.7449 48.952 60.1496 48.952C58.5653 48.952 57.1074 49.4302 55.884 50.2458V40.7958C61.0683 38.0348 64.2793 32.6067 64.2793 26.5182C64.2793 17.5369 56.9667 10.2294 47.9809 10.2294C38.9996 10.2294 31.6873 17.5371 31.6873 26.5182C31.6873 32.5322 34.9263 37.9509 40.1717 40.815V63.9762C38.1794 60.8121 36.2529 58.5621 36.1263 58.4168C33.1076 54.8778 29.3576 54.109 25.5513 56.2418C21.717 58.4028 20.4936 63.2684 22.767 67.3137L22.931 67.6044L23.1888 67.82C23.2545 67.8762 29.8966 73.4731 31.4014 83.978C32.3155 90.2733 33.2108 95.7906 34.9077 99.5732C35.0202 99.831 35.1983 100.028 35.3999 100.197C37.8515 105.854 44.4186 113.847 61.9967 113.847H66.206C82.0268 113.847 91.6868 105.409 92.4188 91.1966C92.461 91.0419 92.4891 90.8826 92.4891 90.7185L92.4793 89.5547ZM35.2873 26.5175C35.2873 19.5238 40.9826 13.8287 47.9809 13.8287C54.984 13.8287 60.6793 19.5194 60.6793 26.5175C60.6793 30.6191 58.9074 34.205 55.884 36.5159V27.005C55.884 22.3643 52.4293 18.7269 48.023 18.7269C43.6214 18.7269 40.1761 22.3643 40.1761 27.005V36.4972C37.1245 34.1206 35.287 30.4925 35.287 26.5175H35.2873ZM66.2065 110.237H61.9971C49.5003 110.237 41.0679 105.751 38.2503 97.5995C38.1331 97.2667 37.9316 96.9902 37.6738 96.7886C36.4831 93.4464 35.7331 88.7449 34.9644 83.453C33.4316 72.7514 27.2066 66.587 25.7722 65.2886C24.6472 63.0246 25.2847 60.5214 27.3191 59.373C28.7394 58.5761 30.9144 57.8496 33.3941 60.7557C33.441 60.812 38.1284 66.2823 40.1722 71.9073V75.7511C40.1722 76.7448 40.9784 77.5511 41.9722 77.5511C42.9659 77.5511 43.7722 76.7448 43.7722 75.7511V27.0059C43.7722 24.3386 45.6002 22.3278 48.0191 22.3278C50.4472 22.3278 52.28 24.3387 52.28 27.0059V71.7059C52.28 72.6996 53.0863 73.5059 54.08 73.5059C55.0738 73.5059 55.88 72.6996 55.88 71.7059V57.2399C55.88 54.5679 57.7128 52.5524 60.1457 52.5524C62.5691 52.5524 64.402 54.5681 64.402 57.2399V71.7059C64.402 72.6996 65.2082 73.5059 66.202 73.5059C67.1957 73.5059 68.002 72.6996 68.002 71.7059V61.5528C68.002 58.8809 69.83 56.8653 72.2536 56.8653C74.677 56.8653 76.5005 58.881 76.5005 61.5528V72.6762C76.5005 73.6699 77.3067 74.4762 78.3005 74.4762C79.2942 74.4762 80.1005 73.6699 80.1005 72.6762V66.8684C80.1005 64.2575 81.9286 62.3637 84.4505 62.3637C86.8505 62.3637 88.8005 64.5528 88.8005 67.2481L88.8755 89.6077C88.8005 108.222 73.0079 110.237 66.2063 110.237L66.2065 110.237Z" fill="black"/>
<path d="M65.7745 35.016C65.2261 35.8457 65.4558 36.9613 66.2855 37.5097L71.3995 40.88C71.423 40.8941 71.4464 40.8988 71.4698 40.9128C71.5683 40.9738 71.6714 41.0159 71.7745 41.0535C71.8214 41.0722 71.8683 41.0956 71.9198 41.1097C72.0698 41.1519 72.2245 41.1753 72.3792 41.1753H72.3933H72.4073C72.562 41.1753 72.7167 41.1519 72.8667 41.1097C72.9136 41.0956 72.9604 41.0722 73.0073 41.0535C73.1151 41.0159 73.2183 40.9691 73.3167 40.9081C73.3401 40.8941 73.3636 40.8894 73.3823 40.8753L78.4917 37.505C79.3214 36.9566 79.5511 35.841 79.0026 35.0113C78.4542 34.1816 77.3339 33.9519 76.5089 34.5004L74.1886 36.0284C74.1886 36.0191 74.1933 36.0144 74.1933 36.005V11.3162L76.5136 12.8443C76.8183 13.0458 77.1605 13.1396 77.5027 13.1396C78.0886 13.1396 78.6605 12.8536 79.0073 12.3286C79.5558 11.499 79.3261 10.3833 78.4964 9.83493L73.3964 6.47865C73.3964 6.47865 73.3917 6.47865 73.3917 6.47396L73.387 6.46927H73.3776C73.3495 6.45052 73.3214 6.44115 73.298 6.42709C73.223 6.3849 73.1527 6.34271 73.073 6.3099C73.0214 6.28646 72.9698 6.27709 72.9183 6.26302C72.8573 6.24427 72.7964 6.22084 72.7355 6.21146C72.6698 6.1974 72.6089 6.1974 72.5433 6.19271C72.4964 6.18802 72.4542 6.17865 72.4073 6.17865H72.3933H72.3839C72.3276 6.17865 72.2761 6.18802 72.2198 6.19271C72.1636 6.1974 72.1073 6.1974 72.0511 6.21146C71.9808 6.22552 71.9151 6.24896 71.8495 6.26771C71.8026 6.28177 71.7605 6.29115 71.7136 6.3099C71.7089 6.3099 71.7042 6.31459 71.6995 6.31459C71.6245 6.34271 71.5589 6.3849 71.4933 6.42709C71.4839 6.43177 71.4745 6.43646 71.4698 6.44115C71.4417 6.44584 71.423 6.45521 71.3995 6.46927L71.3948 6.47396C71.3948 6.47396 71.3901 6.47396 71.3901 6.47865L71.3855 6.48334C71.3855 6.48334 71.3808 6.48334 71.3808 6.48802L66.2854 9.83494C65.4558 10.3834 65.2261 11.499 65.7698 12.3287C66.1167 12.8537 66.6886 13.1396 67.2745 13.1396C67.612 13.1396 67.9589 13.0458 68.2636 12.8443L70.5839 11.3162V36.0146C70.5839 36.024 70.5886 36.0287 70.5886 36.038L68.2636 34.5053C67.4386 33.9569 66.3229 34.1865 65.7745 35.0162L65.7745 35.016Z" fill="black"/>
</svg>
