<svg width="68" height="68" viewBox="0 0 68 68" fill="none" xmlns="http://www.w3.org/2000/svg">
<path d="M36.125 68H31.875C30.1842 68 28.5627 67.3284 27.3672 66.1328C26.1716 64.9373 25.5 63.3158 25.5 61.625C25.4862 61.2079 25.3498 60.8041 25.1079 60.464C24.8661 60.1239 24.5294 59.8625 24.14 59.7125C23.63 59.5708 23.1625 59.4008 22.7375 59.2025C22.3545 59.0344 21.9305 58.983 21.5184 59.0548C21.1064 59.1267 20.7248 59.3185 20.4212 59.6062C19.2305 60.7679 17.6329 61.4182 15.9694 61.4182C14.3058 61.4182 12.7082 60.7679 11.5175 59.6062L8.5 56.4825C7.3383 55.2918 6.68805 53.6942 6.68805 52.0306C6.68805 50.3671 7.3383 48.7695 8.5 47.5788C8.78425 47.2729 8.97212 46.8902 9.04014 46.4782C9.10817 46.0663 9.05334 45.6435 8.8825 45.2625C8.6275 44.8375 8.40792 44.37 8.22375 43.86C8.07811 43.4801 7.82649 43.15 7.49877 42.9089C7.17105 42.6679 6.78101 42.5259 6.375 42.5C4.68425 42.5 3.06274 41.8284 1.86719 40.6328C0.67165 39.4373 0 37.8158 0 36.125L0 31.875C0 30.1842 0.67165 28.5627 1.86719 27.3672C3.06274 26.1716 4.68425 25.5 6.375 25.5C6.79211 25.4862 7.1959 25.3498 7.53601 25.1079C7.87612 24.8661 8.13749 24.5294 8.2875 24.14C8.42917 23.63 8.59917 23.1625 8.7975 22.7375C8.9795 22.3645 9.04831 21.9465 8.99545 21.5348C8.94258 21.1232 8.77034 20.7361 8.5 20.4212C7.3383 19.2305 6.68805 17.6329 6.68805 15.9694C6.68805 14.3058 7.3383 12.7082 8.5 11.5175L11.5175 8.5C12.7082 7.3383 14.3058 6.68805 15.9694 6.68805C17.6329 6.68805 19.2305 7.3383 20.4212 8.5C20.7271 8.78425 21.1098 8.97212 21.5218 9.04014C21.9337 9.10817 22.3565 9.05334 22.7375 8.8825L24.14 8.30875C24.5327 8.15734 24.8716 7.89273 25.1137 7.54846C25.3559 7.20419 25.4903 6.79577 25.5 6.375C25.5 4.68425 26.1716 3.06274 27.3672 1.86719C28.5627 0.67165 30.1842 0 31.875 0L36.125 0C37.8158 0 39.4373 0.67165 40.6328 1.86719C41.8284 3.06274 42.5 4.68425 42.5 6.375C42.5138 6.79211 42.6502 7.1959 42.8921 7.53601C43.1339 7.87612 43.4706 8.13749 43.86 8.2875L45.2625 8.86125C45.6415 9.03484 46.0631 9.09315 46.4749 9.02892C46.8868 8.96468 47.2707 8.78075 47.5788 8.5C48.7695 7.3383 50.3671 6.68805 52.0306 6.68805C53.6942 6.68805 55.2918 7.3383 56.4825 8.5L59.5 11.5175C60.6617 12.7082 61.312 14.3058 61.312 15.9694C61.312 17.6329 60.6617 19.2305 59.5 20.4212C59.2158 20.7271 59.0279 21.1098 58.9599 21.5218C58.8918 21.9337 58.9467 22.3565 59.1175 22.7375C59.33 23.205 59.5213 23.6725 59.6912 24.14C59.8427 24.5327 60.1073 24.8716 60.4515 25.1137C60.7958 25.3559 61.2042 25.4903 61.625 25.5C63.3158 25.5 64.9373 26.1716 66.1328 27.3672C67.3284 28.5627 68 30.1842 68 31.875V36.125C68 37.8158 67.3284 39.4373 66.1328 40.6328C64.9373 41.8284 63.3158 42.5 61.625 42.5C61.2079 42.5138 60.8041 42.6502 60.464 42.8921C60.1239 43.1339 59.8625 43.4706 59.7125 43.86C59.5425 44.3275 59.3512 44.795 59.1387 45.2625C58.9652 45.6415 58.9069 46.0631 58.9711 46.4749C59.0353 46.8868 59.2193 47.2707 59.5 47.5788C60.6617 48.7695 61.312 50.3671 61.312 52.0306C61.312 53.6942 60.6617 55.2918 59.5 56.4825L56.4825 59.5C56.0844 59.8958 55.5458 60.1179 54.9844 60.1179C54.423 60.1179 53.8844 59.8958 53.4863 59.5C53.0905 59.1019 52.8683 58.5633 52.8683 58.0019C52.8683 57.4405 53.0905 56.9019 53.4863 56.5037L56.5887 53.4012C56.9593 53.0071 57.1656 52.4866 57.1656 51.9456C57.1656 51.4047 56.9593 50.8841 56.5887 50.49C55.6976 49.5793 55.0999 48.4224 54.8726 47.1686C54.6454 45.9149 54.799 44.6218 55.3138 43.4563C55.505 43.0525 55.6538 42.6487 55.8025 42.245C56.2714 41.0795 57.0742 40.0785 58.1101 39.3677C59.146 38.6569 60.3688 38.2681 61.625 38.25C62.1886 38.25 62.7291 38.0261 63.1276 37.6276C63.5261 37.2291 63.75 36.6886 63.75 36.125V31.875C63.75 31.3114 63.5261 30.7709 63.1276 30.3724C62.7291 29.9739 62.1886 29.75 61.625 29.75C60.3481 29.7377 59.1043 29.3422 58.0548 28.6147C57.0053 27.8873 56.1984 26.8614 55.7388 25.67C55.5979 25.2646 55.4347 24.8674 55.25 24.48C54.7306 23.3118 54.5744 22.0144 54.8018 20.7563C55.0292 19.4982 55.6296 18.3375 56.525 17.425C56.8955 17.0309 57.1018 16.5103 57.1018 15.9694C57.1018 15.4284 56.8955 14.9079 56.525 14.5138L53.4863 11.4113C53.0921 11.0407 52.5716 10.8344 52.0306 10.8344C51.4897 10.8344 50.9691 11.0407 50.575 11.4113C49.6625 12.3067 48.5018 12.9071 47.2437 13.1344C45.9856 13.3618 44.6882 13.2057 43.52 12.6862C43.1375 12.495 42.7337 12.3462 42.33 12.1763C41.1403 11.7394 40.1123 10.95 39.3833 9.91333C38.6542 8.87671 38.2588 7.64229 38.25 6.375C38.25 5.81141 38.0261 5.27091 37.6276 4.8724C37.2291 4.47388 36.6886 4.25 36.125 4.25H31.875C31.3114 4.25 30.7709 4.47388 30.3724 4.8724C29.9739 5.27091 29.75 5.81141 29.75 6.375C29.7377 7.65192 29.3422 8.89572 28.6147 9.94523C27.8873 10.9947 26.8614 11.8016 25.67 12.2612C25.2646 12.4021 24.8674 12.5653 24.48 12.75C23.3118 13.2694 22.0144 13.4256 20.7563 13.1982C19.4982 12.9708 18.3375 12.3704 17.425 11.475C17.0309 11.1045 16.5103 10.8982 15.9694 10.8982C15.4284 10.8982 14.9079 11.1045 14.5138 11.475L11.4113 14.5138C11.0407 14.9079 10.8344 15.4284 10.8344 15.9694C10.8344 16.5103 11.0407 17.0309 11.4113 17.425C12.313 18.3286 12.9227 19.4821 13.1614 20.7362C13.4001 21.9902 13.2567 23.2871 12.75 24.4587C12.5588 24.8625 12.41 25.2663 12.2612 25.67C11.8016 26.8614 10.9947 27.8873 9.94523 28.6147C8.89572 29.3422 7.65192 29.7377 6.375 29.75C5.81141 29.75 5.27091 29.9739 4.8724 30.3724C4.47388 30.7709 4.25 31.3114 4.25 31.875V36.125C4.25 36.6886 4.47388 37.2291 4.8724 37.6276C5.27091 38.0261 5.81141 38.25 6.375 38.25C7.65192 38.2623 8.89572 38.6578 9.94523 39.3853C10.9947 40.1127 11.8016 41.1386 12.2612 42.33C12.4021 42.7354 12.5653 43.1326 12.75 43.52C13.2694 44.6882 13.4256 45.9856 13.1982 47.2437C12.9708 48.5018 12.3704 49.6625 11.475 50.575C11.1045 50.9691 10.8982 51.4897 10.8982 52.0306C10.8982 52.5716 11.1045 53.0921 11.475 53.4863L14.5775 56.5887C14.9716 56.9593 15.4922 57.1656 16.0331 57.1656C16.5741 57.1656 17.0946 56.9593 17.4887 56.5887C18.4013 55.6933 19.5619 55.0929 20.82 54.8656C22.0781 54.6382 23.3755 54.7943 24.5438 55.3138C24.9263 55.505 25.33 55.6538 25.7337 55.8237C26.9115 56.2709 27.9259 57.0648 28.643 58.1006C29.36 59.1363 29.746 60.3652 29.75 61.625C29.75 62.1886 29.9739 62.7291 30.3724 63.1276C30.7709 63.5261 31.3114 63.75 31.875 63.75H36.125C36.6886 63.75 37.2291 63.5261 37.6276 63.1276C38.0261 62.7291 38.25 62.1886 38.25 61.625C38.2623 60.3481 38.6578 59.1043 39.3853 58.0548C40.1127 57.0053 41.1386 56.1984 42.33 55.7388C42.7354 55.5979 43.1326 55.4347 43.52 55.25C43.7753 55.1356 44.0507 55.0726 44.3304 55.0646C44.6101 55.0566 44.8886 55.1038 45.1501 55.2034C45.4115 55.3031 45.6508 55.4532 45.8542 55.6454C46.0576 55.8375 46.2212 56.0678 46.3356 56.3231C46.45 56.5785 46.513 56.8538 46.521 57.1335C46.529 57.4132 46.4818 57.6917 46.3822 57.9532C46.2825 58.2146 46.1324 58.4539 45.9403 58.6573C45.7481 58.8607 45.5178 59.0243 45.2625 59.1387C44.795 59.3512 44.3275 59.5425 43.86 59.7125C43.4706 59.8625 43.1339 60.1239 42.8921 60.464C42.6502 60.8041 42.5138 61.2079 42.5 61.625C42.5 63.3158 41.8284 64.9373 40.6328 66.1328C39.4373 67.3284 37.8158 68 36.125 68Z" fill="black"/>
<path d="M34 53.125C30.2174 53.125 26.5198 52.0033 23.3747 49.9019C20.2296 47.8004 17.7783 44.8135 16.3308 41.3188C14.8833 37.8242 14.5045 33.9788 15.2425 30.2689C15.9804 26.559 17.8019 23.1513 20.4766 20.4766C23.1513 17.8019 26.559 15.9804 30.2689 15.2425C33.9788 14.5045 37.8242 14.8833 41.3188 16.3308C44.8135 17.7783 47.8004 20.2296 49.9019 23.3747C52.0033 26.5198 53.125 30.2174 53.125 34C53.125 39.0723 51.1101 43.9368 47.5234 47.5234C43.9368 51.1101 39.0723 53.125 34 53.125ZM34 19.125C31.058 19.125 28.1821 19.9974 25.7359 21.6319C23.2897 23.2664 21.3832 25.5895 20.2573 28.3076C19.1314 31.0256 18.8369 34.0165 19.4108 36.902C19.9848 39.7874 21.4015 42.4379 23.4818 44.5182C25.5621 46.5985 28.2126 48.0152 31.098 48.5892C33.9835 49.1631 36.9744 48.8686 39.6924 47.7427C42.4105 46.6169 44.7336 44.7103 46.3681 42.2641C48.0026 39.8179 48.875 36.942 48.875 34C48.875 30.0549 47.3078 26.2714 44.5182 23.4818C41.7286 20.6922 37.9451 19.125 34 19.125Z" fill="black"/>
<path d="M34 44.625C33.4364 44.625 32.8959 44.4011 32.4974 44.0026C32.0989 43.6041 31.875 43.0636 31.875 42.5V34C31.875 33.4364 32.0989 32.8959 32.4974 32.4974C32.8959 32.0989 33.4364 31.875 34 31.875C34.5636 31.875 35.1041 32.0989 35.5026 32.4974C35.9011 32.8959 36.125 33.4364 36.125 34V42.5C36.125 43.0636 35.9011 43.6041 35.5026 44.0026C35.1041 44.4011 34.5636 44.625 34 44.625Z" fill="black"/>
<path d="M34 27.625C33.5797 27.625 33.1689 27.5004 32.8194 27.2669C32.47 27.0334 32.1976 26.7015 32.0368 26.3132C31.8759 25.9249 31.8338 25.4976 31.9158 25.0854C31.9978 24.6732 32.2002 24.2946 32.4974 23.9974C32.7946 23.7002 33.1732 23.4978 33.5854 23.4158C33.9976 23.3338 34.4249 23.3759 34.8132 23.5368C35.2015 23.6976 35.5334 23.97 35.7669 24.3194C36.0004 24.6689 36.125 25.0797 36.125 25.5C36.125 26.0636 35.9011 26.6041 35.5026 27.0026C35.1041 27.4011 34.5636 27.625 34 27.625Z" fill="black"/>
</svg>
