<svg width="60" height="39" viewBox="0 0 60 39" fill="none" xmlns="http://www.w3.org/2000/svg">
<path d="M38.1133 4.83496H21.8892V34.1647H38.1133V4.83496Z" fill="#FF5F00"/>
<path d="M22.919 19.5003C22.9138 13.7769 25.5254 8.36904 30.0009 4.83544C21.9499 -1.5307 10.2933 -0.125794 3.96502 7.97337C-2.36323 16.0725 -0.966693 27.799 7.08427 34.1651C13.8088 39.4824 23.2764 39.4824 30.0009 34.1651C25.5254 30.6315 22.9139 25.2237 22.919 19.5003Z" fill="#EB001B"/>
<path d="M60 19.5003C60.0004 29.8016 51.6996 38.1527 41.4596 38.1531C37.3037 38.1533 33.2682 36.7488 30.0009 34.1651C38.0518 27.7966 39.4464 16.0682 33.1158 7.96904C32.2049 6.80372 31.1592 5.75176 30.0009 4.83545C38.0514 -1.53057 49.7077 -0.125866 56.0358 7.97292C58.6041 11.2598 60.0002 15.3195 60 19.5003Z" fill="#F79E1B"/>
<path d="M58.2312 31.057V30.4565H58.4718V30.3342H57.8589V30.4565H58.0997V31.057H58.2312H58.2312ZM59.4212 31.057V30.333H59.2333L59.0172 30.831L58.801 30.333H58.613V31.057H58.7457V30.5109L58.9483 30.9817H59.0859L59.2886 30.5097V31.057H59.4211L59.4212 31.057Z" fill="#F79E1B"/>
</svg>
