<svg width="220" height="255" viewBox="0 0 220 255" fill="none" xmlns="http://www.w3.org/2000/svg">
<path d="M138.858 234.307H151.878" stroke="black" stroke-width="5" stroke-linecap="round" stroke-linejoin="round"/>
<path d="M134.527 251.659H156.217" stroke="black" stroke-width="5" stroke-linecap="round" stroke-linejoin="round"/>
<path d="M216.976 247.32C216.976 244.69 216.966 241.81 216.966 238.64V186.568C216.966 178.188 210.636 169.218 202.246 169.218C193.856 169.218 186.586 178.188 186.586 186.568V203.928V169.218C186.586 160.828 180.297 151.818 171.906 151.818C163.547 151.818 156.216 160.828 156.216 169.218V195.248V151.858C156.216 143.478 149.886 134.508 141.496 134.508C133.117 134.508 125.847 143.478 125.847 151.858V190.908V108.468C125.847 100.088 119.517 91.1182 111.127 91.1182C102.737 91.1182 95.4772 100.088 95.4772 108.468V216.946C95.4772 204.916 85.7072 180.676 74.2472 169.217C63.4371 158.407 36.9275 164.927 52.5472 186.567C62.9073 200.917 66.7573 231.545 69.437 247.317" stroke="black" stroke-width="5" stroke-linecap="round" stroke-linejoin="round"/>
<rect x="3" y="2.5" width="27" height="27" rx="2.5" stroke="black" stroke-width="5"/>
<rect x="50" y="2.5" width="27" height="27" rx="2.5" stroke="black" stroke-width="5"/>
<rect x="97" y="2.5" width="27" height="27" rx="2.5" stroke="black" stroke-width="5"/>
<rect x="3" y="49.5" width="27" height="27" rx="2.5" stroke="black" stroke-width="5"/>
<rect x="50" y="49.5" width="27" height="27" rx="2.5" stroke="black" stroke-width="5"/>
<rect x="97" y="49.5" width="27" height="27" rx="2.5" stroke="black" stroke-width="5"/>
<rect x="3" y="96.5" width="27" height="27" rx="2.5" stroke="black" stroke-width="5"/>
<rect x="50" y="96.5" width="27" height="27" rx="2.5" stroke="black" stroke-width="5"/>
</svg>
