<svg width="56" height="82" viewBox="0 0 56 82" fill="none" xmlns="http://www.w3.org/2000/svg">
<path d="M2.73044 81.3011L8.42184 77.8284L14.1132 81.3011C14.3711 81.4612 14.664 81.5394 14.957 81.5394C15.25 81.5394 15.5429 81.4612 15.8007 81.3011L21.4843 77.8323L27.164 81.3011C27.6836 81.6175 28.3359 81.6175 28.8554 81.3011L34.5351 77.8323L40.2148 81.3011C40.7344 81.6175 41.3867 81.6175 41.9062 81.3011L47.5859 77.8323L53.2656 81.3011C53.7656 81.6058 54.3945 81.6175 54.9023 81.3323C55.4141 81.0472 55.7305 80.5042 55.7305 79.9182L55.7344 2.08623C55.7344 1.50029 55.418 0.957332 54.9062 0.672132C54.3945 0.386932 53.7695 0.394792 53.2695 0.703382L47.5899 4.17218L41.9101 0.703382C41.3906 0.386972 40.7383 0.386972 40.2188 0.703382L34.539 4.17218L28.8594 0.703382C28.3398 0.386972 27.6875 0.386972 27.168 0.703382L21.4882 4.17218L15.8047 0.703382C15.2851 0.386972 14.6328 0.386972 14.1172 0.703382L8.42575 4.17608L2.73435 0.703382C2.23435 0.398692 1.60935 0.386972 1.09765 0.672132C0.585931 0.957292 0.269531 1.50025 0.269531 2.08623L0.265625 79.9142C0.265625 80.5002 0.582034 81.0431 1.09374 81.3283C1.60545 81.6135 2.23044 81.6018 2.73044 81.301V81.3011ZM3.50778 4.97308L7.57808 7.45358C8.09761 7.76999 8.74998 7.76999 9.26558 7.45358L14.957 3.98478L20.6445 7.45358C21.164 7.76999 21.8164 7.76999 22.3359 7.45358L28.0156 3.98478L33.6953 7.45358C34.2148 7.76999 34.8672 7.76999 35.3867 7.45358L41.0664 3.98478L46.7461 7.45358C47.2656 7.76999 47.918 7.76999 48.4375 7.45358L52.4961 4.97308V77.0241L48.4375 74.5436C47.918 74.2272 47.2656 74.2272 46.7461 74.5436L41.0664 78.0124L35.3867 74.5436C34.8671 74.2272 34.2148 74.2272 33.6953 74.5436L28.0156 78.0124L22.3359 74.5436C21.8164 74.2272 21.164 74.2272 20.6445 74.5436L14.957 78.0124L9.26558 74.5436C9.00778 74.3834 8.7148 74.3053 8.42183 74.3053C8.12886 74.3053 7.8359 74.3834 7.57808 74.5436L3.50778 77.0241V4.97308Z" fill="black"/>
<path d="M29.7422 33.6801H22.625C21.7305 33.6801 21.0039 34.4067 21.0039 35.3012C21.0039 36.1958 21.7305 36.9223 22.625 36.9223H26.3789V37.7582C26.3789 38.6528 27.1055 39.3793 28 39.3793C28.8945 39.3793 29.6211 38.6528 29.6211 37.7582V36.9223H29.7422C32.6406 36.9223 35 34.5629 35 31.6645C35 28.7661 32.6406 26.4067 29.7422 26.4067H26.2617C25.1523 26.4067 24.2461 25.5044 24.2461 24.3911C24.2461 23.2817 25.1484 22.3755 26.2617 22.3755H33.3789C34.2734 22.3755 35 21.6489 35 20.7544C35 19.8599 34.2734 19.1333 33.3789 19.1333H29.625V18.2974C29.625 17.4028 28.8984 16.6763 28.0039 16.6763C27.1094 16.6763 26.3828 17.4028 26.3828 18.2974V19.1333H26.2617C23.3633 19.1333 21.0039 21.4927 21.0039 24.3911C21.0039 27.2895 23.3633 29.6489 26.2617 29.6489H29.7422C30.8516 29.6489 31.7539 30.5512 31.7539 31.6645C31.7539 32.7739 30.8516 33.6801 29.7422 33.6801Z" fill="black"/>
<path d="M9.35254 52.3521H46.6455C47.5401 52.3521 48.2666 51.6255 48.2666 50.731C48.2666 49.8364 47.5401 49.1099 46.6455 49.1099L9.35254 49.106C8.45801 49.106 7.73145 49.8325 7.73145 50.7271C7.73145 51.6255 8.458 52.3521 9.35254 52.3521V52.3521Z" fill="black"/>
<path d="M9.35254 65.3198H46.6455C47.5401 65.3198 48.2666 64.5933 48.2666 63.6987C48.2666 62.8042 47.5401 62.0776 46.6455 62.0776H9.35254C8.45801 62.0776 7.73145 62.8042 7.73145 63.6987C7.73145 64.5972 8.458 65.3198 9.35254 65.3198Z" fill="black"/>
</svg>
