<svg width="13" height="16" viewBox="0 0 13 16" fill="none" xmlns="http://www.w3.org/2000/svg">
<g clip-path="url(#clip0_344_427)">
<path d="M0.81002 2.78002C0.80684 2.75167 0.810083 2.72297 0.819511 2.69604C0.82894 2.66912 0.844314 2.64466 0.864487 2.62449C0.88466 2.60431 0.909117 2.58894 0.936043 2.57951C0.962968 2.57008 0.991669 2.56684 1.02002 2.57002H11.64C11.6684 2.56684 11.6971 2.57008 11.724 2.57951C11.7509 2.58894 11.7754 2.60431 11.7956 2.62449C11.8157 2.64466 11.8311 2.66912 11.8405 2.69604C11.85 2.72297 11.8532 2.75167 11.85 2.78002V4.45002C11.8532 4.47837 11.85 4.50707 11.8405 4.534C11.8311 4.56093 11.8157 4.58538 11.7956 4.60556C11.7754 4.62573 11.7509 4.6411 11.724 4.65053C11.6971 4.65996 11.6684 4.6632 11.64 4.66002H1.02002C0.991669 4.6632 0.962968 4.65996 0.936043 4.65053C0.909117 4.6411 0.88466 4.62573 0.864487 4.60556C0.844314 4.58538 0.82894 4.56093 0.819511 4.534C0.810083 4.50707 0.80684 4.47837 0.81002 4.45002V2.78002ZM4.33002 1.12002C4.33252 1.04125 4.36493 0.966387 4.42066 0.91066C4.47639 0.854932 4.55125 0.822521 4.63002 0.820019H7.92002C8.00053 0.819977 8.0779 0.851262 8.13576 0.907253C8.19362 0.963244 8.22743 1.03955 8.23002 1.12002V1.76002H4.33002V1.12002ZM10.66 13.95C10.66 14.2736 10.5315 14.5839 10.3027 14.8127C10.0739 15.0415 9.76359 15.17 9.44002 15.17H3.22002C2.89646 15.17 2.58614 15.0415 2.35735 14.8127C2.12856 14.5839 2.00002 14.2736 2.00002 13.95V5.48002H10.66V13.95ZM1.02002 5.47002H1.18002V13.95C1.18002 14.4805 1.39074 14.9892 1.76581 15.3642C2.14088 15.7393 2.64959 15.95 3.18002 15.95H9.40002C9.93045 15.95 10.4392 15.7393 10.8142 15.3642C11.1893 14.9892 11.4 14.4805 11.4 13.95V5.48002H11.56C11.8252 5.48002 12.0796 5.37466 12.2671 5.18713C12.4547 4.99959 12.56 4.74523 12.56 4.48002V2.78002C12.56 2.51481 12.4547 2.26045 12.2671 2.07291C12.0796 1.88538 11.8252 1.78002 11.56 1.78002H9.11002V1.14002C9.10741 0.843784 8.98857 0.560422 8.77909 0.350945C8.56962 0.141467 8.28625 0.0226297 7.99002 0.0200195H4.67002C4.37379 0.0226297 4.09042 0.141467 3.88095 0.350945C3.67147 0.560422 3.55263 0.843784 3.55002 1.14002V1.78002H1.02002C0.754803 1.78002 0.500452 1.88538 0.312916 2.07291C0.125379 2.26045 0.0200195 2.51481 0.0200195 2.78002V4.45002C0.0200195 4.71524 0.125379 4.96959 0.312916 5.15713C0.500452 5.34466 0.754803 5.45002 1.02002 5.45002V5.47002Z" fill="black"/>
<path d="M8.85003 7.22998H8.03003V13.2H8.85003V7.22998Z" fill="black"/>
<path d="M6.74993 7.22998H5.92993V13.2H6.74993V7.22998Z" fill="black"/>
<path d="M4.64007 7.22998H3.82007V13.2H4.64007V7.22998Z" fill="black"/>
</g>
<defs>
<clipPath id="clip0_344_427">
<rect width="12.67" height="16" fill="white"/>
</clipPath>
</defs>
</svg>
