<svg width="21" height="25" viewBox="0 0 21 25" fill="none" xmlns="http://www.w3.org/2000/svg">
<path fill-rule="evenodd" clip-rule="evenodd" d="M20.663 20.4919L16.5492 24.596C16.3254 24.8619 16.0436 24.9975 15.7065 24.9975C15.3694 25.0184 15.0771 24.9088 14.8295 24.6637L10.6157 20.4918C10.3919 20.2702 10.2786 19.9912 10.2786 19.6575C10.2786 19.3446 10.3919 19.0812 10.6157 18.857C10.8396 18.6327 11.1108 18.5232 11.4242 18.5232C11.7613 18.5232 12.0431 18.6327 12.267 18.857L14.6609 21.1933L14.6636 5.13909C14.6636 4.80534 14.7768 4.52895 15.0007 4.30471C15.2245 4.08308 15.5063 3.97096 15.8434 3.97096C16.1595 3.97096 16.4386 4.08308 16.6862 4.30471C16.91 4.52895 17.0233 4.80534 17.0233 5.13909L17.0233 20.8255L19.0116 18.8569C19.2355 18.6326 19.5068 18.5231 19.8201 18.5231C20.1572 18.5231 20.439 18.6326 20.6629 18.8569C20.8868 19.0811 21 19.3575 21 19.6912C21 20.0015 20.8868 20.2702 20.663 20.4919ZM4.38231 19.8244L4.38231 3.80424L2.0226 6.1066C1.77504 6.3517 1.49587 6.47425 1.17984 6.47425C0.866445 6.47425 0.595182 6.3517 0.371341 6.1066C0.123781 5.8615 1.66287e-06 5.59294 1.67541e-06 5.30613C1.68909e-06 4.99324 0.123781 4.71685 0.371342 4.47175L4.58511 0.333752C4.80896 0.10951 5.09076 -6.95415e-07 5.42786 -6.8068e-07C5.7439 -6.66866e-07 6.01252 0.10951 6.23637 0.333752L10.4159 4.47175C10.6397 4.69599 10.753 4.97238 10.753 5.30613C10.753 5.61902 10.6397 5.88498 10.4159 6.1066C10.192 6.3517 9.91023 6.47425 9.57313 6.47425C9.2571 6.47425 8.98847 6.3517 8.76463 6.1066L6.74202 4.138L6.74202 19.8244C6.74202 20.1581 6.62877 20.4371 6.40492 20.6587C6.18106 20.883 5.89926 20.9925 5.56216 20.9925C5.24877 20.9925 4.96697 20.883 4.71941 20.6587C4.49555 20.4371 4.38231 20.1581 4.38231 19.8244Z" fill="white"/>
</svg>
