<svg width="72" height="104" viewBox="0 0 72 104" fill="none" xmlns="http://www.w3.org/2000/svg">
<path d="M71.4793 79.5547C71.4793 79.5219 71.484 79.4938 71.484 79.461C71.484 79.4469 71.4793 79.4329 71.4793 79.4188L71.409 57.238C71.409 52.5646 67.8417 48.7583 63.459 48.7583C61.7715 48.7583 60.2433 49.2411 58.9824 50.0849C58.3449 46.1615 55.1854 43.2646 51.2574 43.2646C49.5277 43.2646 47.9527 43.8318 46.6683 44.7927C45.7027 41.3755 42.7449 38.952 39.1496 38.952C37.5653 38.952 36.1074 39.4302 34.884 40.2458V30.7958C40.0683 28.0348 43.2793 22.6067 43.2793 16.5182C43.2793 7.53689 35.9667 0.22937 26.9809 0.22937C17.9996 0.22937 10.6873 7.53713 10.6873 16.5182C10.6873 22.5322 13.9263 27.9509 19.1717 30.815V53.9762C17.1794 50.8121 15.2529 48.5621 15.1263 48.4168C12.1076 44.8778 8.35761 44.109 4.55133 46.2418C0.716971 48.4028 -0.506427 53.2684 1.76697 57.3137L1.93104 57.6044L2.18884 57.82C2.25447 57.8762 8.8966 63.4731 10.4014 73.978C11.3155 80.2733 12.2108 85.7906 13.9077 89.5732C14.0202 89.831 14.1983 90.0279 14.3999 90.1966C16.8515 95.8544 23.4186 103.847 40.9967 103.847H45.206C61.0268 103.847 70.6868 95.4092 71.4188 81.1966C71.461 81.0419 71.4891 80.8826 71.4891 80.7185L71.4793 79.5547ZM14.2873 16.5175C14.2873 9.52383 19.9826 3.82875 26.9809 3.82875C33.984 3.82875 39.6793 9.51939 39.6793 16.5175C39.6793 20.6191 37.9074 24.205 34.884 26.5159V17.005C34.884 12.3643 31.4293 8.72691 27.023 8.72691C22.6214 8.72691 19.1761 12.3643 19.1761 17.005V26.4972C16.1245 24.1206 14.287 20.4925 14.287 16.5175H14.2873ZM45.2065 100.237H40.9971C28.5003 100.237 20.0679 95.7508 17.2503 87.5995C17.1331 87.2667 16.9316 86.9902 16.6738 86.7886C15.4831 83.4464 14.7331 78.7449 13.9644 73.453C12.4316 62.7514 6.20664 56.587 4.77216 55.2886C3.64716 53.0246 4.28466 50.5214 6.31908 49.373C7.7394 48.5761 9.9144 47.8496 12.3941 50.7557C12.441 50.812 17.1284 56.2823 19.1722 61.9073V65.7511C19.1722 66.7448 19.9784 67.5511 20.9722 67.5511C21.9659 67.5511 22.7722 66.7448 22.7722 65.7511V17.0059C22.7722 14.3386 24.6002 12.3278 27.0191 12.3278C29.4472 12.3278 31.28 14.3387 31.28 17.0059V61.7059C31.28 62.6996 32.0863 63.5059 33.08 63.5059C34.0738 63.5059 34.88 62.6996 34.88 61.7059V47.2399C34.88 44.5679 36.7128 42.5524 39.1457 42.5524C41.5691 42.5524 43.402 44.5681 43.402 47.2399V61.7059C43.402 62.6996 44.2082 63.5059 45.202 63.5059C46.1957 63.5059 47.002 62.6996 47.002 61.7059V51.5528C47.002 48.8809 48.83 46.8653 51.2536 46.8653C53.677 46.8653 55.5005 48.881 55.5005 51.5528V62.6762C55.5005 63.6699 56.3067 64.4762 57.3005 64.4762C58.2942 64.4762 59.1005 63.6699 59.1005 62.6762V56.8684C59.1005 54.2575 60.9286 52.3637 63.4505 52.3637C65.8505 52.3637 67.8005 54.5528 67.8005 57.2481L67.8755 79.6077C67.8005 98.2221 52.0079 100.237 45.2063 100.237L45.2065 100.237Z" fill="black"/>
</svg>
