<svg width="34" height="34" viewBox="0 0 34 34" fill="none" xmlns="http://www.w3.org/2000/svg">
<path fill-rule="evenodd" clip-rule="evenodd" d="M24.8125 26.0027C22.0306 28.475 18.3947 29.7661 14.6766 29.6019C10.9584 29.4377 7.45053 27.8311 4.8974 25.1231C2.34426 22.4151 0.946793 18.8188 1.00155 15.0974C1.05631 11.376 2.55898 7.82241 5.19069 5.1907C7.82239 2.559 11.376 1.05631 15.0974 1.00155C18.8188 0.946793 22.4151 2.34426 25.1231 4.89739C27.8311 7.45053 29.4376 10.9584 29.6019 14.6766C29.7661 18.3947 28.475 22.0306 26.0027 24.8125L26.0182 24.828L32.7513 31.5611C32.9095 31.719 32.9985 31.9331 32.9987 32.1566C32.9989 32.38 32.9104 32.5944 32.7526 32.7526C32.5948 32.9108 32.3806 32.9998 32.1571 33C31.9337 33.0002 31.7193 32.9117 31.5611 32.7539L24.828 26.0182L24.8125 26.0027ZM24.2419 24.2368C26.0082 22.471 27.2112 20.221 27.6987 17.7715C28.1862 15.322 27.9363 12.7829 26.9807 10.4754C26.0251 8.16786 24.4066 6.19557 22.33 4.80793C20.2534 3.42029 17.8119 2.67963 15.3144 2.67963C12.8168 2.67963 10.3753 3.42029 8.29871 4.80793C6.22211 6.19557 4.60365 8.16786 3.64802 10.4754C2.6924 12.7829 2.44254 15.322 2.93003 17.7715C3.41753 20.221 4.62048 22.471 6.38676 24.2368C8.75473 26.6041 11.966 27.934 15.3144 27.934C18.6627 27.934 21.874 26.6041 24.2419 24.2368Z" fill="black" stroke="black"/>
</svg>
