<svg width="80" height="25" viewBox="0 0 80 25" fill="none" xmlns="http://www.w3.org/2000/svg">
<path d="M30.3748 0.495577L19.9011 24.5681H13.0678L7.91371 5.35712C7.60079 4.17384 7.32871 3.74035 6.37705 3.24183C4.82331 2.42984 2.25749 1.66801 0 1.19519L0.153332 0.495579H11.1529C12.5549 0.495579 13.8153 1.39468 14.1337 2.95003L16.8557 16.8796L23.5832 0.49518H30.3748V0.495577ZM57.1489 16.7086C57.1764 10.3551 48.0289 10.0051 48.0918 7.16695C48.1114 6.30317 48.9652 5.38481 50.8339 5.1504C51.7601 5.0336 54.3122 4.94449 57.2068 6.22771L58.3422 1.12294C56.7868 0.579068 54.7855 0.0556641 52.2956 0.0556641C45.906 0.0556641 41.4094 3.32773 41.3714 8.01306C41.3302 11.4786 44.581 13.4124 47.0302 14.564C49.5497 15.7433 50.3952 16.5011 50.3856 17.5559C50.3676 19.1707 48.376 19.8835 46.5148 19.9116C43.2656 19.9598 41.3802 19.0647 39.8773 18.3916L38.7056 23.6653C40.216 24.3328 43.0039 24.9153 45.8943 24.9446C52.6856 24.9445 57.128 21.713 57.1489 16.7086ZM74.0213 24.568H80L74.7813 0.495575H69.263C68.0221 0.495575 66.9755 1.19157 66.5122 2.26165L56.8118 24.568H63.5997L64.9472 20.9725H73.2409L74.0213 24.568ZM66.8084 16.0387L70.2109 7.00037L72.1692 16.0387H66.8084ZM39.611 0.495577L34.2657 24.5681H27.8015L33.149 0.495579H39.611V0.495577Z" fill="#1434CB"/>
</svg>
