<svg width="110" height="110" viewBox="0 0 110 110" fill="none" xmlns="http://www.w3.org/2000/svg">
<path d="M54.7503 0.25C24.679 0.25 0.245117 24.6683 0.245117 54.7396C0.245117 84.8109 24.679 109.25 54.7503 109.25C84.8216 109.25 109.24 84.8109 109.24 54.7396C109.24 24.6683 84.8216 0.25 54.7503 0.25ZM54.7503 5.42073C82.0185 5.42073 104.07 27.472 104.07 54.7401C104.07 82.0083 82.0185 104.054 54.7503 104.054C27.4821 104.054 5.43609 82.0083 5.43609 54.7401C5.43609 27.472 27.4821 5.42073 54.7503 5.42073ZM54.7452 30.0882C53.3055 30.0882 52.1498 31.244 52.1498 32.6837V63.8295C52.1498 65.2692 53.3055 66.425 54.7452 66.425C56.1849 66.425 57.3407 65.2692 57.3407 63.8295V32.6837C57.3407 31.244 56.1849 30.0882 54.7452 30.0882ZM54.7452 74.2115C53.3055 74.2115 52.1498 75.3673 52.1498 76.8069C52.1498 78.2466 53.3055 79.4024 54.7452 79.4024C56.1849 79.4024 57.3407 78.2466 57.3407 76.8069C57.3407 75.3673 56.1849 74.2115 54.7452 74.2115Z" fill="#B02E2F"/>
</svg>
