<svg width="256" height="256" viewBox="0 0 256 256" fill="none" xmlns="http://www.w3.org/2000/svg">
<path d="M129.501 20.5C69.358 20.5 20.4902 69.3366 20.4902 129.479C20.4902 189.622 69.358 238.5 129.501 238.5C189.643 238.5 238.48 189.622 238.48 129.479C238.48 69.3366 189.643 20.5 129.501 20.5ZM129.501 30.8415C184.037 30.8415 228.139 74.9439 228.139 129.48C228.139 184.017 184.037 228.109 129.501 228.109C74.9643 228.109 30.8722 184.017 30.8722 129.48C30.8722 74.9439 74.9643 30.8415 129.501 30.8415ZM129.49 80.1764C126.611 80.1764 124.3 82.488 124.3 85.3674V147.659C124.3 150.538 126.611 152.85 129.49 152.85C132.37 152.85 134.681 150.538 134.681 147.659V85.3674C134.681 82.488 132.37 80.1764 129.49 80.1764ZM129.49 168.423C126.611 168.423 124.3 170.735 124.3 173.614C124.3 176.493 126.611 178.805 129.49 178.805C132.37 178.805 134.681 176.493 134.681 173.614C134.681 170.735 132.37 168.423 129.49 168.423Z" fill="black"/>
</svg>
