<svg width="24" height="24" viewBox="0 0 24 24" fill="none" xmlns="http://www.w3.org/2000/svg">
<path fill-rule="evenodd" clip-rule="evenodd" d="M12.0018 24C14.778 23.9996 17.4682 23.0366 19.614 21.2751C21.7599 19.5136 23.2285 17.0625 23.7698 14.3396C24.311 11.6166 23.8914 8.79009 22.5823 6.34184C21.2733 3.89358 19.1558 1.97497 16.5908 0.912872C14.0257 -0.149228 11.1718 -0.289083 8.51521 0.517134C5.85861 1.32335 3.56375 3.02575 2.02162 5.33428C0.479488 7.64281 -0.214501 10.4146 0.0579195 13.1775C0.33034 15.9403 1.55232 18.5232 3.51562 20.4861C5.76701 22.7355 8.81921 23.9994 12.0018 24ZM12.0018 2.32013C14.2414 2.31959 16.4119 3.09565 18.1434 4.51607C19.8749 5.93649 21.0604 7.91337 21.4977 10.1099C21.935 12.3063 21.5971 14.5865 20.5417 16.5618C19.4862 18.5371 17.7785 20.0854 15.7095 20.9427C13.6405 21.8 11.3382 21.9133 9.19497 21.2633C7.05175 20.6134 5.20022 19.2405 3.95586 17.3784C2.71151 15.5163 2.15133 13.2803 2.37079 11.0515C2.59025 8.82263 3.57581 6.73884 5.15945 5.15521C6.05788 4.25643 7.12451 3.54342 8.29854 3.05696C9.47257 2.5705 10.731 2.32017 12.0018 2.32013ZM12.0018 18.2045C11.6941 18.2045 11.3991 18.0823 11.1815 17.8648C10.964 17.6472 10.8417 17.3522 10.8417 17.0445L10.8417 12.0097C10.8417 11.702 10.964 11.4069 11.1815 11.1894C11.3991 10.9718 11.6941 10.8496 12.0018 10.8496C12.1543 10.8493 12.3054 10.879 12.4464 10.9372C12.5874 10.9953 12.7156 11.0808 12.8236 11.1885C12.9316 11.2963 13.0173 11.4242 13.0757 11.5651C13.1342 11.706 13.1642 11.8571 13.1642 12.0097L13.1642 17.0204C13.1658 17.174 13.1369 17.3263 13.0792 17.4686C13.0214 17.6109 12.936 17.7403 12.8279 17.8493C12.7198 17.9584 12.591 18.0449 12.4492 18.1038C12.3074 18.1627 12.1553 18.1928 12.0018 18.1925L12.0018 18.2045ZM10.8417 7.37422C10.8346 7.21727 10.8593 7.06052 10.9145 6.91341C10.9696 6.76629 11.054 6.63185 11.1625 6.51826C11.271 6.40467 11.4015 6.31429 11.546 6.25252C11.6904 6.19075 11.8458 6.15895 12.0029 6.15895C12.1601 6.15895 12.3156 6.19075 12.46 6.25252C12.6045 6.31429 12.7349 6.40467 12.8434 6.51826C12.9519 6.63185 13.0364 6.76629 13.0915 6.91341C13.1467 7.06052 13.1714 7.21727 13.1642 7.37422C13.1506 7.67305 13.0223 7.95521 12.806 8.16187C12.5897 8.36853 12.3021 8.48387 12.0029 8.48387C11.7038 8.48387 11.4162 8.36853 11.1999 8.16187C10.9837 7.95521 10.8553 7.67305 10.8417 7.37422Z" fill="#D06F1A"/>
</svg>
