<svg width="128" height="128" viewBox="0 0 128 128" fill="none" xmlns="http://www.w3.org/2000/svg">
<g clip-path="url(#clip0_5670_5118)">
<path d="M126.78 109.68C128.18 110.78 128.4 112.62 127.32 114.18C126.22 115.58 124.2 115.8 122.82 114.72L1.2176 18.712C-0.1696 17.616 -0.4064 15.604 0.6888 14.2172C1.7838 12.8301 3.796 12.5934 5.184 13.6886L126.78 109.68ZM128 77C128 83.34 125.7 89.12 121.9 93.42L116.86 89.62C119.82 86.26 121.6 81.84 121.6 77C121.6 66.22 113 57.8 102.4 57.8H96C94.24 57.8 92.8 56.36 92.8 54.6C92.8 52.84 94.24 51.4 96 51.4H102.4C116.54 51.4 128 62.86 128 77ZM67.18 102.6C53.04 102.6 41.6 91.16 41.6 77.02C41.6 72.74 42.66 68.7 44.52 65.14L49.68 69.02C48.42 71.42 47.82 74.24 47.82 77.02C47.82 87.62 56.58 96.2 67.18 96.2H83.88L91.98 102.6H67.18ZM60.82 32.2H44.12L36.02 25.8H60.82C74.96 25.8 86.4 37.24 86.4 51.38C86.4 55.66 85.34 59.7 83.48 63.26L78.32 59.2C79.4 56.8 80 54.16 80 51.38C80 40.78 71.42 32.2 60.82 32.2ZM6.4 51.4C6.4 62 14.996 70.6 25.6 70.6H32C33.76 70.6 35.2 72.04 35.2 73.8C35.2 75.56 33.76 77 32 77H25.6C11.462 77 0 65.54 0 51.4C0 45.06 2.298 39.28 6.108 34.8L11.136 38.78C8.186 42.14 6.4 46.56 6.4 51.4Z" fill="black"/>
</g>
<defs>
<clipPath id="clip0_5670_5118">
<rect width="128" height="128" fill="white"/>
</clipPath>
</defs>
</svg>
